<svg xmlns="http://www.w3.org/2000/svg" viewBox="0 0 748.5 269.14"><defs><style>.cls-1{fill:#0070b0;}.cls-2{fill:#3e3e40;}.cls-3{fill:#fff;}.cls-4{fill:#ee3324;}</style></defs><g id="Layer_2" data-name="Layer 2"><g id="Layer_1-2" data-name="Layer 1"><path class="cls-1" d="M557.64,201.24c.7-3.14,1.27-5.83,1.9-8.52q7.28-31.26,14.56-62.51,6-25.67,11.88-51.33a2.29,2.29,0,0,1,2.56-2.13c13.12,0,26.25-.2,39.37.12a27.36,27.36,0,0,1,14.76,4.21c6.09,4.07,8.4,9.61,6.81,16.81-1,4.44-2.29,8.82-3,13.3-1.73,10.49-8.18,16.48-18,19.54-2.09.66-4.13,1.48-6.91,2.49,2.76.94,4.75,1.56,6.7,2.29,8.24,3.06,10.57,7.66,8.6,16.28-2.64,11.56-5.38,23.1-7.5,34.75-.84,4.63-.14,9.53-.14,14.58-.94,0-1.9.12-2.86.13H604c-3.27,0-3.78-.55-4-3.92-.43-6.34,1-12.44,2.39-18.53,2.37-10.25,4.85-20.47,7.19-30.73,1.16-5.08-3.07-8.79-8.06-7-.72.25-1.26,1.6-1.48,2.53-2.23,9.36-4.36,18.75-6.54,28.13-2.14,9.21-4.26,18.42-6.51,27.59a2.92,2.92,0,0,1-2,1.87C576,201.28,567.07,201.24,557.64,201.24ZM604,126.53c6.59.92,10.58-1.17,11.89-6.13,1.83-7,3.53-14,5-21.07,1.13-5.31-.89-7.52-6.35-7.47-.79,0-1.58.09-2.57.15Z"/><path class="cls-1" d="M499.92,200.75c.85-10.92,1.71-21.93,2.61-33.41-4.81,0-9.26-.1-13.7.1-.69,0-1.57,1.36-1.92,2.26q-5.7,14.6-11.21,29.28c-.52,1.36-1,2.32-2.76,2.3-8.36-.08-16.73,0-25.09-.05a10.07,10.07,0,0,1-1.4-.24c1.57-3.93,3.05-7.72,4.61-11.48q6.72-16.23,13.47-32.44,9.54-23,19.05-46.08c4.29-10.4,8.61-20.8,12.78-31.25.85-2.13,1.86-3.07,4.28-3,11.23.13,22.46.06,34.05.06,0,3.28.13,6.39,0,9.49-.22,4.36-.76,8.71-1,13.07-.29,5.45-.33,10.91-.58,16.36-.5,10.62-1.07,21.24-1.63,31.86-.34,6.51-.71,13-1.06,19.53-.55,10.53-1,21.06-1.71,31.58-.06.9-1.3,2.46-2,2.47-8.71.14-17.43,0-26.15,0C500.38,201.12,500.23,200.94,499.92,200.75Zm8.5-87.54-1.27-.29c-4.32,12.59-8.65,25.18-13.07,38.05h9.86C505.44,138.3,506.93,125.76,508.42,113.21Z"/><path class="cls-1" d="M322.64,118.65c1.71-7.24,3.28-14,4.9-20.73.52-2.15,1.19-4.28-1.37-5.63-2.1-1.11-5.92-.53-7.47,1.21a5.68,5.68,0,0,0-1.34,2.27q-1.47,6-2.73,12c-1.17,5.61,1.41,9.88,4.84,14,6.47,7.84,12.92,15.71,19,23.88a17.56,17.56,0,0,1,3.14,15c-1.75,7.18-3.1,14.49-5.19,21.57-3.06,10.36-10.79,16-20.93,18.34-10.93,2.51-22,2.87-33,.11-7.23-1.82-12.53-6-13.46-13.8-.36-3.07.51-6.35,1.17-9.46,1.59-7.5,3.42-14.95,5.07-22.44.45-2.05,1.29-2.92,3.59-2.86,6.74.19,13.49.06,20.23.08.94,0,1.88.11,3.12.19-1.56,6.7-3,13-4.49,19.34-.53,2.25-1,4.52-1.56,6.77-1,4.28-.29,6,3.09,7,3.2.94,7.93-.88,8.6-3.82,1.54-6.85,4.3-13.5,4-20.68a8.58,8.58,0,0,0-1.64-4.65c-6.41-8.23-13-16.3-19.49-24.51-2.94-3.74-5.73-7.76-6-12.66-.14-3,.64-6.15,1.27-9.17.94-4.44,2-8.87,3.21-13.25,2.53-9.12,8.66-14.94,17.5-17.75a63.48,63.48,0,0,1,34.35-1.73c10.85,2.54,15.24,9.65,12.78,20.56-1.35,6-2.88,12-4.18,18-.5,2.32-1.52,3.13-4,3-6.56-.19-13.13-.06-19.69-.07C325,118.79,324.05,118.71,322.64,118.65Z"/><path class="cls-1" d="M729.63,119.87c-3.59,0-7.19,0-10.78,0-2,0-2.44-.54-1.92-2.59,1.66-6.65,3.07-13.38,4.58-20.07.48-2.1,1.4-4.5-1.64-5.29-4.08-1.08-6.84.37-7.65,3.75-1.82,7.63-3.59,15.27-5.38,22.91q-6.93,29.57-13.88,59.12c-.22.95-.4,1.92-.59,2.88-.35,1.71-1.36,4,.79,4.72a11,11,0,0,0,6.34,0c1.08-.32,2.06-2.21,2.4-3.56q3.4-13.62,6.44-27.34c.37-1.71,1.11-2.2,2.7-2.2,7.19,0,14.38,0,21.58,0,1.66,0,2.45.29,1.94,2.36-2.18,8.83-4.34,17.67-6.16,26.58-1.45,7.11-5.86,11.7-11.76,15.18a43.23,43.23,0,0,1-22.23,6.07c-7.77,0-15.39-.3-22.55-3.78-5.34-2.59-8.63-6.72-9.1-12.63a25.06,25.06,0,0,1,1-7.37c3.37-14.6,6.83-29.17,10.24-43.76,2.66-11.37,5.5-22.71,7.89-34.14C684.71,87.44,693,80,705.89,77.48a90.09,90.09,0,0,1,17.57-1.67c5.66,0,11.39.62,16.69,3.27,7.78,3.89,9.13,9.59,8,16.42-1.22,7.37-3.41,14.58-5,21.9-.44,2.09-1.42,2.56-3.31,2.5C736.47,119.8,733.05,119.87,729.63,119.87Z"/><path class="cls-1" d="M362.58,200.64c1.95-8.17,3.93-16.29,5.82-24.43q8.46-36.47,16.86-72.95c1.83-7.91,3.69-15.8,5.46-23.72.46-2,1.31-2.87,3.61-2.84,11.68.14,23.38-.26,35,.19a65.91,65.91,0,0,1,17.83,3c8,2.6,8.77,9.13,7.37,16.38-2.53,13.12-5.87,26.09-8.95,39.1-2.2,9.25-8.74,14.57-17.16,17.73a34.8,34.8,0,0,1-10.19,1.75c-4.84.29-9.7.13-14.56,0-1.78,0-2.45.66-2.84,2.38-2.68,11.91-5.49,23.8-8.25,35.7a62,62,0,0,1-1.51,6.22c-.28.82-1.31,2-2,2-8.53.1-17.06,0-25.6,0C363.35,201.13,363.19,201,362.58,200.64ZM415.81,93.27c-3.51,15.17-6.91,29.84-10.32,44.56,6.79,1,11.51-1.2,12.63-5.82,2.6-10.65,5.06-21.33,7.51-32a4.71,4.71,0,0,0-3.53-6A46.75,46.75,0,0,0,415.81,93.27Z"/><path class="cls-2" d="M6.59,171.21c.59-2.47,1.09-4.62,1.6-6.77H240c.08.25.19.43.16.58-1.07,6.19-1.07,6.19-7.43,6.19H6.59Z"/><path class="cls-2" d="M253.84,107.25c-.63,2.49-1.15,4.56-1.69,6.73H20.08a56.26,56.26,0,0,1,1.33-5.51c.18-.54,1.08-1,1.73-1.17a5.88,5.88,0,0,1,1.88,0H253.84Z"/><path class="cls-2" d="M247,135.92c-.42,1.92-.68,3.69-1.22,5.36a2.74,2.74,0,0,1-1.65,1.31,6.91,6.91,0,0,1-2.14.06H13.39l1.46-6.73Z"/><path class="cls-2" d="M26.88,85.61c1-6.68,1-6.68,7.14-6.68H260.43c-.48,2.11-.79,3.84-1.33,5.5a2.38,2.38,0,0,1-1.51,1.12,7.7,7.7,0,0,1-2.15.06H26.88Z"/><path class="cls-2" d="M0,199.53,1.42,193H233.56c-.46,2-.79,3.84-1.32,5.6-.13.41-.91.78-1.44.87a17.21,17.21,0,0,1-2.69.06H0Z"/><path class="cls-3" d="M507.15,112.92l1.27.29"/><polygon class="cls-4" points="254.41 21.52 277.12 21.32 283.92 0 291.45 21.5 313.37 21.52 295.86 34.91 302.57 56.79 284.1 43.55 265.71 56.06 272.52 35.28 254.41 21.52"/><path class="cls-2" d="M272.23,219.61v38.2h-2.44v-38.2Z"/><path class="cls-2" d="M301.41,230.61c-.05,1.47-.22,3.62-.22,8.38v15c0,8-.8,10.43-2.33,12.3a7.91,7.91,0,0,1-6.23,2.83,11,11,0,0,1-5.5-1.36l.8-2a10.66,10.66,0,0,0,5,1.25c3.29,0,5.84-2,5.84-9.41v-3.46h-.11a5.56,5.56,0,0,1-5.39,3.69c-4,0-7.71-4.65-7.71-13.6,0-10.66,4.82-14.06,8.22-14.06s4.42,2.38,5.1,3.69H299l.11-3.23Zm-2.66,9a7.69,7.69,0,0,0-.17-2c-.57-2.26-1.7-5.32-4.93-5.32-3.46,0-5.55,4.64-5.55,11.67,0,8.16,2.66,11.68,5.61,11.68,1.58,0,3.74-.69,4.81-5.11a11.34,11.34,0,0,0,.23-2.66Z"/><path class="cls-2" d="M315.36,236.9c0-3.35-.17-4.37-.23-6.29h2.21l.11,3.34h.12a6.4,6.4,0,0,1,6-3.8c2.89,0,6.17,1.93,6.17,8.84v18.82h-2.43V240c0-3.86-.68-7.71-4.48-7.71-2.21,0-4.37,1.93-4.93,5.67a15,15,0,0,0-.12,2.38v17.51h-2.43Z"/><path class="cls-2" d="M347.21,223.64c0,1.3-.62,2.09-1.93,2.09-1,0-1.75-.79-1.75-2.09a1.87,1.87,0,0,1,1.81-2.1C346.59,221.54,347.21,222.39,347.21,223.64Zm-3.06,34.17v-27.2h2.44v27.2Z"/><path class="cls-2" d="M364.21,223.41v7.2h5.16v2.09h-5.16v18.53c0,3.8,1.25,4.82,2.89,4.82a6.13,6.13,0,0,0,1.65-.17l.28,1.87a5.47,5.47,0,0,1-2.44.4,4.27,4.27,0,0,1-3.62-1.59c-.85-1.13-1.19-2.77-1.19-6.23V232.7h-3.4v-2.09h3.4v-6.24Z"/><path class="cls-2" d="M384.22,223.64c0,1.3-.62,2.09-1.93,2.09-1,0-1.75-.79-1.75-2.09a1.87,1.87,0,0,1,1.81-2.1C383.6,221.54,384.22,222.39,384.22,223.64Zm-3.06,34.17v-27.2h2.44v27.2Z"/><path class="cls-2" d="M398,236.9c0-3.35-.17-4.37-.22-6.29H400l.11,3.34h.11a6.41,6.41,0,0,1,6-3.8c2.89,0,6.18,1.93,6.18,8.84v18.82H410V240c0-3.86-.68-7.71-4.48-7.71-2.21,0-4.36,1.93-4.93,5.67a16.39,16.39,0,0,0-.11,2.38v17.51H398Z"/><path class="cls-2" d="M441.29,230.61c-.05,1.47-.22,3.62-.22,8.38v15c0,8-.8,10.43-2.33,12.3a7.91,7.91,0,0,1-6.23,2.83,11,11,0,0,1-5.5-1.36l.8-2a10.66,10.66,0,0,0,5,1.25c3.29,0,5.84-2,5.84-9.41v-3.46h-.11a5.56,5.56,0,0,1-5.39,3.69c-4,0-7.7-4.65-7.7-13.6,0-10.66,4.81-14.06,8.21-14.06s4.42,2.38,5.1,3.69h.12l.11-3.23Zm-2.66,9a7.69,7.69,0,0,0-.17-2c-.57-2.26-1.7-5.32-4.93-5.32-3.46,0-5.55,4.64-5.55,11.67,0,8.16,2.66,11.68,5.61,11.68,1.58,0,3.74-.69,4.81-5.11a11.34,11.34,0,0,0,.23-2.66Z"/><path class="cls-2" d="M475,223.64c0,1.3-.62,2.09-1.93,2.09-1,0-1.75-.79-1.75-2.09a1.88,1.88,0,0,1,1.81-2.1C474.34,221.54,475,222.39,475,223.64Zm-3.06,34.17v-27.2h2.44v27.2Z"/><path class="cls-2" d="M488.73,236.9c0-3.35-.17-4.37-.22-6.29h2.21l.11,3.34h.11a6.42,6.42,0,0,1,6-3.8c2.89,0,6.18,1.93,6.18,8.84v18.82h-2.44V240c0-3.86-.68-7.71-4.47-7.71-2.21,0-4.37,1.93-4.94,5.67a16.39,16.39,0,0,0-.11,2.38v17.51h-2.44Z"/><path class="cls-2" d="M517.53,236.9c0-3.35-.17-4.37-.23-6.29h2.21l.11,3.34h.12a6.39,6.39,0,0,1,6-3.8c2.89,0,6.18,1.93,6.18,8.84v18.82h-2.44V240c0-3.86-.68-7.71-4.47-7.71-2.21,0-4.37,1.93-4.93,5.67a15,15,0,0,0-.12,2.38v17.51h-2.43Z"/><path class="cls-2" d="M561.05,244.21c0,10-4,14-8.21,14-3.86,0-7.88-4-7.88-14s4-14.06,8.27-14.06C557.09,230.15,561.05,234.18,561.05,244.21Zm-13.54,0c0,4.42.85,11.9,5.55,11.9s5.44-7.48,5.44-11.9-.85-11.9-5.55-11.9S547.51,239.79,547.51,244.21Z"/><path class="cls-2" d="M573.92,230.61l4.31,17.22c.4,1.48.91,3.92,1.25,6h.17c.28-1.92.79-4.25,1.19-6L585,230.61h2.5l-7,27.2h-2l-6.91-27.2Z"/><path class="cls-2" d="M609,257.81l-.23-3h-.17a5.59,5.59,0,0,1-5.1,3.46c-3.34,0-6-2.83-6-7.48,0-6.57,4.93-9.63,11.11-9.69v-1c0-4.65-.74-7.76-4.7-7.76a6.76,6.76,0,0,0-3.86,1.3l-.68-1.87a8.64,8.64,0,0,1,5.05-1.59c3.68,0,6.63,2.16,6.63,8.67v12.87a52,52,0,0,0,.23,6.12Zm-.4-14.62c-2.1,0-8.56.17-8.56,7.42,0,4.08,2,5.5,3.8,5.5,2.32,0,4.14-1.87,4.65-5.16a10,10,0,0,0,.11-1.76Z"/><path class="cls-2" d="M628.11,223.41v7.2h5.15v2.09h-5.15v18.53c0,3.8,1.24,4.82,2.89,4.82a6.05,6.05,0,0,0,1.64-.17l.28,1.87a5.45,5.45,0,0,1-2.43.4,4.28,4.28,0,0,1-3.63-1.59c-.85-1.13-1.19-2.77-1.19-6.23V232.7h-3.4v-2.09h3.4v-6.24Z"/><path class="cls-2" d="M648.11,223.64c0,1.3-.62,2.09-1.92,2.09-1,0-1.76-.79-1.76-2.09a1.88,1.88,0,0,1,1.81-2.1C647.49,221.54,648.11,222.39,648.11,223.64Zm-3.06,34.17v-27.2h2.44v27.2Z"/><path class="cls-2" d="M676.62,244.21c0,10-4,14-8.22,14-3.85,0-7.87-4-7.87-14s4-14.06,8.27-14.06C672.65,230.15,676.62,234.18,676.62,244.21Zm-13.54,0c0,4.42.85,11.9,5.55,11.9s5.44-7.48,5.44-11.9-.85-11.9-5.55-11.9S663.08,239.79,663.08,244.21Z"/><path class="cls-2" d="M689.66,236.9c0-3.35-.17-4.37-.23-6.29h2.21l.12,3.34h.11a6.41,6.41,0,0,1,6-3.8c2.89,0,6.17,1.93,6.17,8.84v18.82h-2.43V240c0-3.86-.68-7.71-4.48-7.71-2.21,0-4.36,1.93-4.93,5.67a16.39,16.39,0,0,0-.11,2.38v17.51h-2.44Z"/><path class="cls-2" d="M717.37,254.58a7.46,7.46,0,0,0,4.08,1.42c2.84,0,4.71-1.93,4.71-4.94,0-2.43-.74-4.25-3.69-6.34S717,240.52,717,237a6.65,6.65,0,0,1,6.63-6.86,7.27,7.27,0,0,1,4.42,1.48l-1.08,2a5.49,5.49,0,0,0-3.51-1.3,4,4,0,0,0-4,4.19c0,2.21.74,3.46,3.52,5.5,2.6,1.87,5.72,4.13,5.72,8.38,0,5.39-3.57,7.77-7.31,7.77a7.91,7.91,0,0,1-4.87-1.59Z"/></g></g></svg>