<svg xmlns="http://www.w3.org/2000/svg" xmlns:xlink="http://www.w3.org/1999/xlink" width="484px" height="126px" viewBox="0 0 484 126"><title>blog-mask</title><defs><polygon id="path-1" points="-2.98899794e-13 1.12812319e-13 484 1.12812319e-13 484 126 0 126"></polygon></defs><g id="Page-1" stroke="none" stroke-width="1" fill="none" fill-rule="evenodd"><g id="blog-mask"><mask id="mask-2" fill="white"><use xlink:href="#path-1"></use></mask><g id="Rectangle"></g><path d="M24,-150 L515.82901,-150 C529.083844,-150 539.82901,-139.254834 539.82901,-126 C539.82901,-122.399206 539.018779,-118.84456 537.458352,-115.599443 L454.816336,56.2656149 C451.296938,63.584672 444.314885,68.6274133 436.260501,69.6674434 L27.0735059,122.504108 C13.9278113,124.201558 1.89506483,114.920922 0.197614378,101.775228 C0.0660073344,100.756013 1.0658141e-14,99.7293981 1.0658141e-14,98.7017219 L0,-126 C0,-139.254834 10.745166,-150 24,-150 Z" id="Rectangle-Copy-8" fill="#000000" mask="url(#mask-2)"></path></g></g></svg>