<?xml version="1.0" encoding="UTF-8"?>
<svg id="Layer_1" data-name="Layer 1" xmlns="http://www.w3.org/2000/svg" viewBox="0 0 160 160">
  <defs>
    <style>
      .cls-1, .cls-2 {
        fill: #fff;
      }

      .cls-2 {
        fill-rule: evenodd;
      }

      .cls-3 {
        fill: red;
      }

      .cls-4 {
        fill: #00008b;
      }

      .cls-5 {
        fill: #f9c90c;
      }
    </style>
  </defs>
  <path class="cls-5" d="M115.79,54.24c0-19.77-16.02-35.79-35.79-35.79s-35.79,16.02-35.79,35.79c0,18.41,13.9,33.55,31.77,35.55v23.91s-10.71,0-10.71,0c-1.7,0-3.07,1.38-3.07,3.07s1.38,3.07,3.07,3.07h10.71v6.5h-10.71c-1.7,0-3.07,1.38-3.07,3.07s1.38,3.07,3.07,3.07h10.71v4.45c0,2.55,2.07,4.61,4.61,4.61s4.61-2.07,4.61-4.61v-47.34c17.29-2.53,30.59-17.38,30.59-35.37Z"/>
  <g>
    <path class="cls-4" d="M112.6,49.32c-2.76-15.75-16.5-27.71-33.04-27.71-1.62,0-3.22.12-4.77.34-16.28,2.73-28.48,17.48-27.16,34.82,1.22,16.03,14.22,28.96,30.26,30.08,19.14,1.34,35.08-13.79,35.08-32.64,0-1.66-.12-3.29-.36-4.89h0Z"/>
    <path class="cls-2" d="M63.84,57.54l1.61,5.02,4.95-1.88-2.93,4.42,4.55,2.69-5.26.46.73,5.25-3.64-3.85-3.66,3.85.73-5.25-5.27-.46,4.55-2.69-2.93-4.42,4.95,1.88,1.62-5.02ZM106.91,66.6l.76,2.39,2.17-.82-.39.81-.8,1.22.12.07c-.47.84-.98,1.65-1.53,2.45l-.32-.34-1.73,1.83.33-2.5-2.5-.22,2.16-1.29-1.4-2.1,2.35.89.78-2.39ZM106.64,35.35l-1.46,1.54.33-2.5-2.5-.22,1.81-1.08c.63.73,1.24,1.48,1.81,2.26h0ZM95.93,44.44l.78,2.4,2.35-.89-1.4,2.1,2.16,1.29-2.49.21.33,2.49-1.73-1.83-1.73,1.83.35-2.49-2.51-.21,2.16-1.29-1.38-2.1,2.35.89.76-2.4ZM112.51,51.95l.43,1.06c.02.4.02.8.02,1.2,0,.46-.01.91-.03,1.37l-.43-.26-1.37.84.38-1.57-1.24-1.03,1.62-.11.6-1.49h0Z"/>
    <path class="cls-1" d="M55.72,32.57l26.85,13.43h5.58v-2.78l-28.63-14.32c-1.37,1.12-2.64,2.35-3.81,3.67ZM49.43,43.21c.95-2.65,2.23-5.16,3.82-7.48l28.13-14.07c2.33.12,4.59.49,6.77,1.06v1.13l-38.72,19.37Z"/>
    <path class="cls-1" d="M52,37.7h7.07v8.3h8.32v-8.3h20.76v-8.32h-20.76v-5.26c-3.01,1.29-5.82,3.03-8.32,5.16v.1h-.12c-2.76,2.37-5.11,5.18-6.95,8.32Z"/>
    <path class="cls-3" d="M53.05,36.03h7.67v9.97h4.99v-9.97h22.44v-4.99h-22.44v-6.14c-1.75.87-3.42,1.9-4.99,3.06v3.07h-3.57c-1.53,1.52-2.9,3.2-4.11,4.99Z"/>
    <path class="cls-3" d="M50.94,39.66l3.96-1.98h3.72l-8.76,4.39c.33-.82.69-1.62,1.08-2.4h0ZM82.99,21.78c.97.1,1.93.24,2.88.42l-14.35,7.17h-3.7l15.18-7.6ZM88.15,46l-16.63-8.31h3.72l12.89,6.46v1.86h.02,0Z"/>
  </g>
</svg>