<?xml version="1.0" encoding="UTF-8"?>
<svg id="Layer_1" data-name="Layer 1" xmlns="http://www.w3.org/2000/svg" xmlns:xlink="http://www.w3.org/1999/xlink" viewBox="0 0 160 160">
  <defs>
    <style>
      .cls-1 {
        fill: #fff;
      }

      .cls-2 {
        fill: #00732f;
      }

      .cls-3 {
        fill: none;
      }

      .cls-4 {
        fill: red;
      }

      .cls-5 {
        fill: #f9c90c;
      }

      .cls-6 {
        clip-path: url(#clippath);
      }
    </style>
    <clipPath id="clippath">
      <ellipse class="cls-3" cx="80" cy="53.99" rx="32.71" ry="32.66"/>
    </clipPath>
  </defs>
  <path class="cls-5" d="M115.79,54.24c0-19.77-16.02-35.79-35.79-35.79s-35.79,16.02-35.79,35.79c0,18.41,13.9,33.55,31.77,35.55v23.91s-10.71,0-10.71,0c-1.7,0-3.07,1.38-3.07,3.07s1.38,3.07,3.07,3.07h10.71v6.5h-10.71c-1.7,0-3.07,1.38-3.07,3.07s1.38,3.07,3.07,3.07h10.71v4.45c0,2.55,2.07,4.61,4.61,4.61s4.61-2.07,4.61-4.61v-47.34c17.29-2.53,30.59-17.38,30.59-35.37Z"/>
  <g class="cls-6">
    <g>
      <path class="cls-1" d="M80.19,18.26c9.92,0,18.9,4.02,25.4,10.52,6.5,6.5,10.52,15.48,10.52,25.4,0,9.92-4.02,18.9-10.52,25.4-6.5,6.5-15.48,10.52-25.4,10.52-9.92,0-18.9-4.02-25.4-10.52-6.5-6.5-10.52-15.48-10.52-25.4,0-9.92,4.02-18.9,10.52-25.4,6.5-6.5,15.48-10.52,25.4-10.52h0Z"/>
      <path class="cls-2" d="M110.99,42.63h-61.59c4.68-12.46,16.7-21.33,30.8-21.33,14.1,0,26.12,8.87,30.8,21.33h0Z"/>
      <path d="M49.11,64.95h62.16c-4.46,12.88-16.69,22.12-31.08,22.12-14.39,0-26.62-9.25-31.08-22.12h0Z"/>
      <path class="cls-4" d="M66.04,24.49v59.39c-11.08-5.29-18.74-16.6-18.74-29.69,0-13.1,7.66-24.41,18.74-29.69Z"/>
    </g>
  </g>
</svg>