<?xml version="1.0" encoding="UTF-8"?>
<svg id="Layer_1" data-name="Layer 1" xmlns="http://www.w3.org/2000/svg" xmlns:xlink="http://www.w3.org/1999/xlink" viewBox="0 0 160 160">
  <defs>
    <style>
      .cls-1 {
        fill: #fff;
      }

      .cls-2 {
        fill: none;
      }

      .cls-3 {
        fill: #b00;
      }

      .cls-4 {
        fill: #f9c90c;
      }

      .cls-5 {
        stroke: #000;
        stroke-miterlimit: 37.5;
        stroke-width: 2.48px;
      }

      .cls-6 {
        fill: #060;
      }

      .cls-7 {
        clip-path: url(#clippath);
      }
    </style>
    <clipPath id="clippath">
      <circle class="cls-2" cx="80" cy="54.27" r="32.66"/>
    </clipPath>
  </defs>
  <path class="cls-4" d="M115.79,54.24c0-19.77-16.02-35.79-35.79-35.79s-35.79,16.02-35.79,35.79c0,18.41,13.9,33.55,31.77,35.55v23.91s-10.71,0-10.71,0c-1.7,0-3.07,1.38-3.07,3.07s1.38,3.07,3.07,3.07h10.71v6.5h-10.71c-1.7,0-3.07,1.38-3.07,3.07s1.38,3.07,3.07,3.07h10.71v4.45c0,2.55,2.07,4.61,4.61,4.61s4.61-2.07,4.61-4.61v-47.34c17.29-2.53,30.59-17.38,30.59-35.37Z"/>
  <g class="cls-7">
    <g>
      <path class="cls-1" d="M29.04,21.61h102.29v65.32H29.04V21.61Z"/>
      <path d="M29.04,21.61h102.29v19.6H29.04v-19.6Z"/>
      <path class="cls-6" d="M29.04,67.33h102.29v19.6H29.04v-19.6Z"/>
      <g id="B">
        <path id="A" class="cls-5" d="M68,73.66l.74.41,19.91-33.03c1.16-.3,1.8-1.36,2.44-2.42.43-.71,2.13-3.54,2.87-7.21-2.95,2.45-4.66,5.28-5.08,5.99-.64,1.06-1.28,2.12-.97,3.24l-19.91,33.03Z"/>
        <path id="A-2" data-name="A" class="cls-1" d="M68,73.66l.74.41,19.91-33.03c1.16-.3,1.8-1.36,2.44-2.42.43-.71,2.13-3.54,2.87-7.21-2.95,2.45-4.66,5.28-5.08,5.99-.64,1.06-1.28,2.12-.97,3.24l-19.91,33.03Z"/>
      </g>
      <g id="B-2" data-name="B">
        <path id="A-3" data-name="A" class="cls-5" d="M92.36,73.66l-.74.41-19.91-33.03c-1.16-.3-1.8-1.36-2.44-2.42-.43-.71-2.13-3.54-2.87-7.21,2.95,2.45,4.66,5.28,5.08,5.99.64,1.06,1.28,2.12.97,3.24l19.91,33.03Z"/>
        <path id="A-4" data-name="A" class="cls-1" d="M92.36,73.66l-.74.41-19.91-33.03c-1.16-.3-1.8-1.36-2.44-2.42-.43-.71-2.13-3.54-2.87-7.21,2.95,2.45,4.66,5.28,5.08,5.99.64,1.06,1.28,2.12.97,3.24l19.91,33.03Z"/>
      </g>
      <path class="cls-3" d="M29.04,44.47v19.6h43.05c1.28,3.27,5.54,9.8,8.1,9.8s6.82-6.53,8.1-9.8h43.05v-19.6h-43.05c-1.28-3.27-5.54-9.8-8.1-9.8s-6.82,6.53-8.1,9.8H29.04Z"/>
      <path id="C" d="M88.28,64.07c1.28-3.27,2.13-6.53,2.13-9.8s-.85-6.53-2.13-9.8c-1.28,3.27-2.13,6.53-2.13,9.8s.85,6.53,2.13,9.8"/>
      <path id="C-2" data-name="C" d="M72.09,64.07c-1.28-3.27-2.13-6.53-2.13-9.8s.85-6.53,2.13-9.8c1.28,3.27,2.13,6.53,2.13,9.8s-.85,6.53-2.13,9.8"/>
      <g>
        <ellipse class="cls-1" cx="80.18" cy="54.27" rx="1.7" ry="2.45"/>
        <path id="D" class="cls-1" d="M80.61,56.66s1.7,3.27,1.7,8.57-1.7,8.57-1.7,8.57v-17.15Z"/>
        <path id="D-2" data-name="D" class="cls-1" d="M79.76,51.88s-1.7-3.27-1.7-8.57,1.7-8.57,1.7-8.57v17.15Z"/>
        <path id="D-3" data-name="D" class="cls-1" d="M79.76,56.66s-1.7,3.27-1.7,8.57,1.7,8.57,1.7,8.57v-17.15Z"/>
        <path id="D-4" data-name="D" class="cls-1" d="M80.61,51.88s1.7-3.27,1.7-8.57-1.7-8.57-1.7-8.57v17.15Z"/>
      </g>
    </g>
  </g>
</svg>