<?xml version="1.0" encoding="utf-8"?>
<!-- Generator: Adobe Illustrator 27.0.0, SVG Export Plug-In . SVG Version: 6.00 Build 0)  -->
<svg version="1.1" id="svg2589" xmlns:svg="http://www.w3.org/2000/svg"
	 xmlns="http://www.w3.org/2000/svg" xmlns:xlink="http://www.w3.org/1999/xlink" x="0px" y="0px" viewBox="0 0 682.7 682.7"
	 style="enable-background:new 0 0 682.7 682.7;" xml:space="preserve">
<style type="text/css">
	.st0{fill:#FFFFFF;}
</style>
<path class="st0" d="M655.4,412.9L404.2,161.7V20c0-8.1-4.9-15.4-12.3-18.5c-2.5-1-5.1-1.5-7.6-1.5C379,0,373.9,2,370,5.9
	L27.3,348.6c-5.7,5.7-7.4,14.3-4.3,21.8c3.1,7.5,10.4,12.3,18.5,12.3h141.7l202.5,202.5v77.4c0,11,9,20,20,20h85.7c11,0,20-9,20-20
	v-77.4l144.1-144.1C663.2,433.4,663.2,420.7,655.4,412.9z M425.6,577V448.4c0-0.7,0-1.4,0.1-2.2c0,0,0-0.1,0-0.1
	c0.1-0.7,0.2-1.3,0.3-1.9c0-0.1,0-0.2,0.1-0.3c0.1-0.6,0.3-1.1,0.4-1.7c0.1-0.2,0.1-0.4,0.2-0.7c0.1-0.4,0.3-0.9,0.5-1.3
	c0.1-0.3,0.3-0.6,0.4-0.9c0.2-0.3,0.3-0.7,0.5-1c0.2-0.3,0.4-0.7,0.5-1c0.2-0.3,0.4-0.6,0.6-0.9c0.2-0.3,0.4-0.6,0.6-0.9
	c0.2-0.3,0.5-0.7,0.7-1c0.2-0.2,0.4-0.4,0.5-0.7c0.3-0.4,0.7-0.8,1-1.1c0.2-0.2,0.3-0.3,0.5-0.5c0.4-0.4,0.8-0.8,1.2-1.1
	c0.2-0.2,0.4-0.3,0.6-0.5c0.4-0.3,0.8-0.6,1.2-0.9c0.2-0.2,0.5-0.3,0.7-0.5c0.4-0.2,0.7-0.5,1.1-0.7c0.3-0.2,0.6-0.3,0.8-0.5
	c0.4-0.2,0.8-0.4,1.2-0.6c0.3-0.1,0.5-0.2,0.8-0.3c0.5-0.2,0.9-0.3,1.4-0.5c0.2-0.1,0.4-0.1,0.6-0.2c0.6-0.2,1.1-0.3,1.7-0.4
	c0.1,0,0.2,0,0.4-0.1c0.6-0.1,1.3-0.2,1.9-0.3c0.1,0,0.1,0,0.2,0c0.7-0.1,1.4-0.1,2.1-0.1c0,0,0,0,0,0s0,0,0,0c0.7,0,1.4,0,2.1,0.1
	c0.1,0,0.1,0,0.2,0c0.6,0.1,1.3,0.2,1.9,0.3c0.1,0,0.3,0,0.4,0.1c0.6,0.1,1.1,0.3,1.7,0.4c0.2,0.1,0.4,0.1,0.7,0.2
	c0.5,0.1,0.9,0.3,1.3,0.5c0.3,0.1,0.6,0.2,0.9,0.4c0.4,0.2,0.7,0.3,1.1,0.5c0.3,0.2,0.6,0.3,0.9,0.5c0.3,0.2,0.7,0.4,1,0.6
	c0.3,0.2,0.5,0.4,0.8,0.5c0.4,0.3,0.7,0.5,1.1,0.8c0.2,0.2,0.4,0.3,0.6,0.5c0.4,0.3,0.8,0.7,1.2,1.1c0.1,0.1,0.3,0.3,0.4,0.4
	c0.4,0.4,0.7,0.8,1.1,1.2c0.2,0.2,0.3,0.4,0.5,0.6c0.3,0.4,0.6,0.7,0.8,1.1c0.2,0.3,0.4,0.5,0.5,0.8c0.2,0.3,0.4,0.7,0.6,1
	c0.2,0.3,0.3,0.6,0.5,0.9c0.2,0.4,0.3,0.7,0.5,1.1c0.1,0.3,0.3,0.6,0.4,0.9c0.2,0.4,0.3,0.9,0.5,1.3c0.1,0.2,0.1,0.5,0.2,0.7
	c0.2,0.5,0.3,1.1,0.4,1.6c0,0.1,0,0.3,0.1,0.4c0.1,0.6,0.2,1.3,0.3,1.9c0,0.1,0,0.1,0,0.2c0.1,0.7,0.1,1.4,0.1,2.1c0,0,0,0,0,0V577
	c0,0,0,0,0,0v65.7h-45.7V577z M364.2,68.3v93.4L183.1,342.8H89.7L364.2,68.3z M613,427L511.3,528.7v-80.2c0-1.1,0-2.2-0.1-3.2
	c0,0,0-0.1,0-0.1c-0.8-15.5-7.2-30-18.3-41.1c-11.1-11.1-25.6-17.5-41.1-18.3c0,0-0.1,0-0.1,0c-1.1-0.1-2.1-0.1-3.2-0.1
	c-1.1,0-2.2,0-3.2,0.1c0,0-0.1,0-0.1,0c-15.5,0.8-30,7.2-41.1,18.3c-10.3,10.3-16.6,23.6-18.1,38c0,0,0,0,0,0
	c-0.1,0.9-0.2,1.8-0.2,2.8c0,0.1,0,0.3,0,0.4c-0.1,1.1-0.1,2.1-0.1,3.2c0,0,0,0,0,0v0v80.3L219.7,362.8l164.5-164.5L613,427z"/>
</svg>
