<?xml version="1.0" encoding="UTF-8"?>
<svg id="Layer_2" data-name="Layer 2" xmlns="http://www.w3.org/2000/svg" viewBox="0 0 153.15 40.54">
  <defs>
    <style>
      .cls-1 {
        fill: #f9c90c;
      }

      .cls-2 {
        fill: #0c2549;
      }
    </style>
  </defs>
  <g id="Layer_1-2" data-name="Layer 1">
    <g>
      <g>
        <path class="cls-2" d="M131.5,39.47c-7.49,0-13.58-6.09-13.58-13.58s6.09-13.58,13.58-13.58c5.36,0,10.22,3.16,12.4,8.06.55,1.23,0,2.67-1.24,3.22-1.23.55-2.67,0-3.22-1.24-1.4-3.13-4.51-5.16-7.94-5.16-4.8,0-8.7,3.9-8.7,8.7s3.9,8.7,8.7,8.7c3.43,0,6.55-2.03,7.94-5.16.55-1.23,1.99-1.79,3.22-1.24s1.79,1.99,1.24,3.22c-2.18,4.89-7.05,8.05-12.4,8.05Z"/>
        <g>
          <path class="cls-2" d="M120.36,28.09c-.09,0-.18,0-.27-.01-1.34-.15-2.3-1.36-2.16-2.7l2.37-21.33c.15-1.34,1.34-2.31,2.7-2.16,1.34.15,2.3,1.36,2.16,2.7l-2.37,21.33c-.14,1.25-1.2,2.17-2.42,2.17Z"/>
          <path class="cls-2" d="M127.51,17.71c-.68,0-1.36-.28-1.84-.83-.89-1.01-.78-2.56.23-3.44l12.34-10.79c1.01-.89,2.56-.78,3.44.23.89,1.01.78,2.56-.23,3.44l-12.34,10.79c-.46.4-1.04.6-1.6.6Z"/>
          <path class="cls-2" d="M122.72,21.27c-.41,0-.83-.1-1.21-.32-1.17-.67-1.57-2.16-.9-3.33l9.42-16.39c.67-1.17,2.16-1.57,3.33-.9,1.17.67,1.57,2.16.9,3.33l-9.42,16.39c-.45.78-1.27,1.22-2.12,1.22Z"/>
        </g>
        <path class="cls-1" d="M131.43,23.84c1.13,0,2.06.92,2.06,2.06s-.92,2.06-2.06,2.06-2.06-.92-2.06-2.06.92-2.06,2.06-2.06M131.43,20.35c-3.06,0-5.54,2.48-5.54,5.54s2.48,5.54,5.54,5.54,5.54-2.48,5.54-5.54-2.48-5.54-5.54-5.54h0Z"/>
        <path class="cls-1" d="M152.1,26.94h-15.26c-.58,0-1.05-.47-1.05-1.05s.47-1.05,1.05-1.05h15.26c.58,0,1.05.47,1.05,1.05s-.47,1.05-1.05,1.05Z"/>
        <g>
          <path class="cls-1" d="M147.53,30.07c-.39,0-.7-.31-.7-.7v-3.36c0-.39.31-.7.7-.7s.7.31.7.7v3.36c0,.39-.31.7-.7.7Z"/>
          <path class="cls-1" d="M150.4,30.07c-.39,0-.7-.31-.7-.7v-3.36c0-.39.31-.7.7-.7s.7.31.7.7v3.36c0,.39-.31.7-.7.7Z"/>
        </g>
      </g>
      <g>
        <path class="cls-1" d="M2.29,23.34H0v-3.43h2.29v-2.54l4.57-2.14v4.69h3.23v3.43h-3.23v5.65c0,.71.12,1.24.37,1.58.25.34.64.51,1.18.51.71,0,1.36-.23,1.93-.7l-.25,3.72c-.41.21-.86.37-1.37.47-.51.1-1.01.15-1.5.15-1.68,0-2.92-.42-3.72-1.26-.8-.84-1.21-2.1-1.21-3.78v-6.35Z"/>
        <path class="cls-1" d="M12.29,14.02h4.57v7.55c.39-.64.9-1.14,1.54-1.49s1.35-.52,2.15-.52c1.35,0,2.44.48,3.26,1.43.82.96,1.23,2.24,1.23,3.84v9.54h-4.57v-9.05c0-.68-.14-1.2-.41-1.57-.27-.37-.69-.55-1.24-.55-.42,0-.8.11-1.14.33-.34.22-.61.52-.81.9v9.94h-4.57V14.02Z"/>
        <path class="cls-1" d="M27.61,19.91h4.5v2.44c.42-.96.96-1.67,1.61-2.12.65-.45,1.33-.67,2.04-.67.15,0,.31,0,.48.03.17.02.32.04.46.08l-.48,4.74c-.29-.18-.69-.27-1.19-.27-.66,0-1.24.18-1.74.54-.5.36-.87.84-1.1,1.45v8.25h-4.57v-14.46Z"/>
        <path class="cls-1" d="M49.81,30.12l.43,3.67c-.53.29-1.23.51-2.12.68-.89.17-1.78.25-2.68.25-1.59,0-2.96-.32-4.11-.95-1.15-.63-2.04-1.54-2.65-2.71-.62-1.17-.93-2.57-.93-4.19,0-1.48.27-2.77.81-3.86.54-1.09,1.31-1.94,2.31-2.54,1-.61,2.18-.91,3.56-.91,1.86,0,3.31.56,4.36,1.69,1.04,1.13,1.56,2.72,1.56,4.8,0,.27,0,.6-.02,1-.02.4-.03.75-.05,1.03h-7.82c.39,2.12,1.6,3.19,3.63,3.19.69,0,1.39-.11,2.1-.32s1.25-.49,1.64-.83ZM42.37,25.46h4.01c0-.86-.17-1.51-.5-1.97s-.79-.68-1.38-.68c-1.22,0-1.93.88-2.13,2.65Z"/>
        <path class="cls-1" d="M64.46,31.86c0,.41.03.86.08,1.35.05.49.11.88.18,1.17h-4.29c-.09-.2-.15-.46-.2-.8-.05-.34-.09-.68-.13-1.02-.37.73-.89,1.28-1.56,1.63s-1.43.54-2.3.54c-1.22,0-2.21-.39-2.97-1.17-.76-.78-1.14-1.82-1.14-3.12,0-1.45.59-2.62,1.77-3.52s2.88-1.47,5.12-1.7l.89-.08c-.12-1.41-.99-2.12-2.62-2.12-.63,0-1.29.12-1.98.35-.69.23-1.35.6-1.96,1.1l-.25-3.7c.69-.38,1.48-.67,2.35-.88.87-.21,1.75-.32,2.63-.32,2.08,0,3.67.52,4.76,1.57,1.09,1.04,1.64,2.56,1.64,4.54v6.19ZM56.62,29.96c0,.48.13.87.39,1.15.26.29.6.43,1.03.43.36,0,.7-.1,1.04-.31.34-.21.61-.5.81-.87v-2.68l-.2.03c-1.1.12-1.89.38-2.36.76s-.71.88-.71,1.49Z"/>
        <path class="cls-1" d="M68.27,23.34h-2.29v-3.43h2.29v-2.54l4.57-2.14v4.69h3.23v3.43h-3.23v5.65c0,.71.12,1.24.37,1.58.25.34.64.51,1.18.51.71,0,1.36-.23,1.93-.7l-.25,3.72c-.41.21-.86.37-1.37.47-.51.1-1.01.15-1.5.15-1.68,0-2.92-.42-3.72-1.26-.8-.84-1.21-2.1-1.21-3.78v-6.35Z"/>
        <path class="cls-2" d="M78.18,30.12c.59.46,1.23.82,1.92,1.06.69.24,1.37.36,2.04.36s1.2-.12,1.57-.35c.37-.23.56-.54.56-.94,0-.3-.16-.56-.49-.76-.33-.21-.99-.48-1.97-.82-1.44-.5-2.45-1.11-3.03-1.82-.58-.71-.88-1.58-.88-2.6,0-1.48.52-2.63,1.57-3.46s2.43-1.23,4.14-1.23c.8,0,1.6.1,2.41.29.81.2,1.48.46,2.01.78l-.97,3.19c-.44-.36-.91-.64-1.4-.84-.49-.21-1.03-.31-1.6-.31-.54,0-.98.1-1.32.29-.34.2-.51.47-.51.83,0,.29.18.54.55.76.36.22.99.49,1.89.79,1.03.34,1.83.74,2.4,1.2.57.46.96.97,1.18,1.51.22.55.33,1.12.33,1.73,0,1.55-.55,2.76-1.66,3.63-1.11.87-2.6,1.3-4.48,1.3-.86,0-1.71-.1-2.55-.29-.84-.2-1.55-.46-2.12-.78l.41-3.54Z"/>
        <path class="cls-2" d="M98.57,34.57c-.54,1.48-1.15,2.66-1.83,3.54-.68.87-1.45,1.5-2.31,1.87s-1.85.56-2.95.56c-.56,0-1.06-.04-1.51-.12-.45-.08-.88-.2-1.28-.36l.36-3.7c.32.18.64.31.95.4s.67.13,1.08.13c.75,0,1.37-.22,1.88-.66.51-.44.95-1.2,1.32-2.29l.08-.19c-1.76-4.57-3.45-9.19-5.08-13.85h4.7c.44,1.46.88,2.94,1.32,4.43s.9,2.97,1.37,4.43c.47-1.48.92-2.96,1.35-4.45.42-1.48.86-2.96,1.3-4.42h4.57c-1.66,4.77-3.43,9.65-5.31,14.65Z"/>
        <path class="cls-2" d="M104.97,30.12c.59.46,1.23.82,1.92,1.06.69.24,1.37.36,2.04.36s1.2-.12,1.57-.35c.37-.23.56-.54.56-.94,0-.3-.16-.56-.49-.76-.33-.21-.99-.48-1.97-.82-1.44-.5-2.45-1.11-3.03-1.82-.58-.71-.88-1.58-.88-2.6,0-1.48.52-2.63,1.57-3.46s2.43-1.23,4.14-1.23c.8,0,1.6.1,2.41.29.81.2,1.48.46,2.01.78l-.97,3.19c-.44-.36-.91-.64-1.4-.84-.49-.21-1.03-.31-1.6-.31-.54,0-.98.1-1.32.29-.34.2-.51.47-.51.83,0,.29.18.54.55.76.36.22.99.49,1.89.79,1.03.34,1.83.74,2.4,1.2.57.46.96.97,1.18,1.51.22.55.33,1.12.33,1.73,0,1.55-.55,2.76-1.66,3.63-1.11.87-2.6,1.3-4.48,1.3-.86,0-1.71-.1-2.55-.29-.84-.2-1.55-.46-2.12-.78l.41-3.54Z"/>
      </g>
    </g>
  </g>
</svg>