<?xml version="1.0" encoding="UTF-8"?>
<svg id="Layer_2" data-name="Layer 2" xmlns="http://www.w3.org/2000/svg" viewBox="0 0 388.22 427.23">
  <defs>
    <style>
      .cls-1, .cls-2 {
        isolation: isolate;
      }

      .cls-1, .cls-3 {
        opacity: .3;
      }

      .cls-4 {
        fill: #ffbf9d;
      }

      .cls-5 {
        fill: #9bbdf9;
      }

      .cls-6 {
        opacity: .4;
      }

      .cls-7 {
        fill: #ff9a6c;
      }

      .cls-8 {
        fill: #263238;
      }

      .cls-2 {
        fill: #fafafa;
        opacity: .8;
      }

      .cls-9 {
        fill: #ffe7aa;
      }

      .cls-10 {
        fill: #fff;
      }

      .cls-11 {
        fill: #fda92f;
      }

      .cls-12 {
        fill: #a6a6a6;
      }

      .cls-13 {
        fill: #ffbe9d;
      }

      .cls-14 {
        fill: #ff725e;
      }

      .cls-15 {
        fill: #e0e0e0;
      }

      .cls-16 {
        fill: #3a5da4;
      }

      .cls-17 {
        fill: #407bff;
      }

      .cls-18 {
        stroke: #f9c90c;
        stroke-dasharray: 6.02 6.02;
      }

      .cls-18, .cls-19, .cls-20, .cls-21, .cls-22, .cls-23 {
        fill: none;
      }

      .cls-18, .cls-19, .cls-21, .cls-22 {
        stroke-linecap: round;
      }

      .cls-18, .cls-23 {
        stroke-miterlimit: 10;
      }

      .cls-24 {
        fill: #789dd0;
      }

      .cls-19, .cls-21 {
        stroke: #fff;
      }

      .cls-19, .cls-21, .cls-22 {
        stroke-linejoin: round;
      }

      .cls-19, .cls-22, .cls-23 {
        stroke-width: .5px;
      }

      .cls-25 {
        fill: #f5c50c;
      }

      .cls-26 {
        fill: #bccee8;
      }

      .cls-20 {
        stroke-miterlimit: 10;
        stroke-width: .5px;
      }

      .cls-20, .cls-23 {
        stroke: #bccee8;
      }

      .cls-21 {
        stroke-width: .76px;
      }

      .cls-22 {
        stroke: #000;
      }

      .cls-27 {
        fill: #274089;
      }

      .cls-28 {
        fill: #455a64;
      }

      .cls-29 {
        fill: #e5edfd;
      }

      .cls-30 {
        fill: #ebebeb;
      }

      .cls-31 {
        fill: #f9c90c;
      }

      .cls-32 {
        fill: #f5f5f5;
      }

      .cls-33 {
        fill: #36353a;
      }

      .cls-34 {
        fill: #0c2549;
      }

      .cls-35 {
        opacity: .5;
      }
    </style>
  </defs>
  <g id="Layer_1-2" data-name="Layer 1">
    <circle class="cls-18" cx="194.11" cy="233.12" r="193.61" transform="translate(-107.99 205.54) rotate(-45)"/>
    <g>
      <g>
        <path class="cls-24" d="M304.34,22.46h-63.57c-1.1,0-1.98.89-1.98,1.98v44.91c0,1.1.89,1.98,1.98,1.98h24.39s1.55,4.8-3.26,7.28h22.81s-5.43-1.86-4.03-7.28h23.65c1.09,0,1.98-.89,1.98-1.98V24.44c0-1.09-.88-1.98-1.98-1.98Z"/>
        <path class="cls-8" d="M273.4,66.6c.87,1.24-.49,2.59-1.72,1.72-.04-.03-.08-.07-.11-.11-.86-1.24.49-2.59,1.72-1.72.04.03.08.06.11.11Z"/>
        <path class="cls-10" d="M241.65,23.28h61.8c.98,0,1.78.8,1.78,1.78h0v38.07h-65.36V25.06c0-.98.8-1.78,1.78-1.78,0,0,0,0,0,0Z"/>
        <path class="cls-30" d="M241.55,23.28h62.3c.76,0,1.38.62,1.38,1.38h0v1.93h-65.36v-1.63c0-.93.75-1.68,1.68-1.68,0,0,0,0,0,0Z"/>
        <path class="cls-15" d="M242.42,25.01c0,.25-.21.46-.46.46s-.46-.21-.46-.46.21-.46.46-.46h0c.25,0,.46.21.46.46Z"/>
        <path class="cls-15" d="M243.78,25.01c0,.25-.21.46-.46.46-.25,0-.46-.21-.46-.46,0-.25.21-.46.46-.46,0,0,0,0,0,0,.25,0,.46.2.46.46,0,0,0,0,0,0Z"/>
        <path class="cls-15" d="M245.08,25.01c0,.25-.21.46-.46.46s-.46-.21-.46-.46.21-.46.46-.46h0c.25,0,.46.21.46.46Z"/>
        <path class="cls-8" d="M292.97,71.34s-9.05.04-20.21.04-20.21-.01-20.21-.04,9.04-.04,20.21-.04,20.21.02,20.21.04Z"/>
      </g>
      <g>
        <rect class="cls-28" x="243.29" y="33.11" width="2.86" height="1.04"/>
        <rect class="cls-28" x="248.23" y="33.11" width="25.25" height="1.04"/>
        <rect class="cls-11" x="275.24" y="33.11" width="5.43" height="1.04"/>
        <rect class="cls-28" x="291.96" y="47.08" width="5.43" height="1.04"/>
        <rect class="cls-12" x="281.85" y="33.11" width="18.31" height="1.04"/>
        <rect class="cls-28" x="246.15" y="35.9" width="2.86" height="1.04"/>
        <rect class="cls-12" x="251.02" y="35.9" width="21.52" height="1.04"/>
        <rect class="cls-12" x="282.53" y="47.08" width="8.14" height="1.04"/>
        <rect class="cls-12" x="248.23" y="44.29" width="20.56" height="1.04"/>
        <rect class="cls-11" x="251.02" y="38.7" width="14.42" height="1.04"/>
        <rect class="cls-12" x="286.9" y="41.49" width="14.42" height="1.04"/>
        <rect class="cls-12" x="267.04" y="38.7" width="23.51" height="1.04"/>
        <rect class="cls-11" x="248.23" y="47.08" width="32.43" height="1.04"/>
        <rect class="cls-28" x="273.89" y="35.9" width="14.2" height="1.04"/>
        <rect class="cls-28" x="292.43" y="38.7" width="9.25" height="1.04"/>
        <rect class="cls-28" x="246.15" y="38.7" width="2.86" height="1.04"/>
        <rect class="cls-12" x="243.29" y="41.49" width="2.86" height="1.04"/>
        <rect class="cls-28" x="248.23" y="41.49" width="16.9" height="1.04"/>
        <rect class="cls-28" x="251.02" y="49.88" width="16.9" height="1.04"/>
        <rect class="cls-11" x="283.01" y="52.67" width="15.96" height="1.04"/>
        <rect class="cls-11" x="269.29" y="49.88" width="17.43" height="1.04"/>
        <rect class="cls-28" x="266.3" y="52.67" width="15.23" height="1.04"/>
        <rect class="cls-12" x="251.02" y="52.67" width="4.89" height="1.04"/>
        <rect class="cls-28" x="269.95" y="44.29" width="18.75" height="1.04"/>
        <rect class="cls-11" x="289.88" y="44.29" width="7.51" height="1.04"/>
        <rect class="cls-11" x="266.85" y="41.49" width="18.72" height="1.04"/>
        <rect class="cls-28" x="243.29" y="44.29" width="2.86" height="1.04"/>
        <rect class="cls-28" x="243.29" y="47.08" width="2.86" height="1.04"/>
        <rect class="cls-12" x="246.15" y="49.88" width="2.86" height="1.04"/>
        <rect class="cls-28" x="246.15" y="52.67" width="2.86" height="1.04"/>
        <rect class="cls-28" x="243.29" y="55.01" width="2.86" height="1.04"/>
        <rect class="cls-28" x="248.23" y="55.01" width="33.53" height="1.04"/>
        <rect class="cls-28" x="246.15" y="57.81" width="2.86" height="1.04"/>
        <rect class="cls-12" x="251.02" y="57.81" width="21.52" height="1.04"/>
        <rect class="cls-11" x="251.02" y="60.6" width="14.42" height="1.04"/>
        <rect class="cls-12" x="267.04" y="60.6" width="23.51" height="1.04"/>
        <rect class="cls-28" x="273.89" y="57.81" width="14.2" height="1.04"/>
        <rect class="cls-28" x="246.15" y="60.6" width="2.86" height="1.04"/>
        <path class="cls-11" d="M245.05,30.36c.1.09.1.25,0,.35,0,0,0,0,0,0-.05.04-.11.07-.17.07-.07,0-.13-.02-.18-.07l-1.1-1.12v-.02h0s0-.02,0-.03h0v-.02s0,0,0,0v-.05s0,0,0-.02v-.02h0v-.03h0s.01-.02.02-.04h0s.01-.02.02-.03l1.1-1.12c.1-.1.26-.1.35,0,.1.09.1.25,0,.35,0,0,0,0,0,0l-.93.94.89.86Z"/>
        <path class="cls-11" d="M246.07,30.48l.96-2.29c.05-.11.18-.16.29-.11.11.05.16.17.11.27,0,0,0,0,0,0l-.96,2.29c-.04.08-.11.13-.2.13-.03,0-.05,0-.08,0-.11-.04-.17-.16-.13-.27,0,0,0-.02.01-.03Z"/>
        <path class="cls-11" d="M249.31,29.56h0s-.02.02-.03.03l-1.1,1.12s-.11.07-.18.07c-.07,0-.13-.02-.18-.07-.1-.09-.1-.25,0-.35,0,0,0,0,0,0l.93-.94-.93-.94c-.1-.09-.1-.25,0-.35,0,0,0,0,0,0,.1-.1.26-.1.35,0l1.1,1.12s.02.02.03.03h0s.01.02.02.04h0s0,.02,0,.04h0v.14s0,.02,0,.04h0l-.02.04Z"/>
      </g>
    </g>
    <g>
      <g>
        <path class="cls-29" d="M39.99,149.98h-18.46c-2.05,0-3.71-1.66-3.71-3.71v-43.3c0-2.05,1.66-3.71,3.71-3.71h18.46c2.05,0,3.71,1.66,3.71,3.71v43.3c0,2.05-1.66,3.71-3.71,3.71Z"/>
        <path class="cls-24" d="M39.99,100.53c1.34,0,2.44,1.09,2.44,2.44v43.3c0,1.34-1.09,2.44-2.44,2.44h-18.46c-1.34,0-2.44-1.09-2.44-2.44v-43.3c0-1.34,1.09-2.44,2.44-2.44h18.46M39.99,99.27h-18.46c-2.05,0-3.71,1.66-3.71,3.71v43.3c0,2.05,1.66,3.71,3.71,3.71h18.46c2.05,0,3.71-1.66,3.71-3.71v-43.3c0-2.05-1.66-3.71-3.71-3.71h0Z"/>
        <path class="cls-27" d="M36.53,99.39h-11.55v1.34c0,.6.48,1.08,1.08,1.08h9.39c.6,0,1.08-.48,1.08-1.08v-1.34h0Z"/>
        <line class="cls-21" x1="28.61" y1="100.4" x2="33.04" y2="100.4"/>
      </g>
      <g>
        <path class="cls-5" d="M35.37,144.41h-13.19c-.57,0-1.03-.46-1.03-1.03v-11.02c0-.57.46-1.03,1.03-1.03h13.19c.57,0,1.03.46,1.03,1.03v11.02c0,.57-.46,1.03-1.03,1.03Z"/>
        <g>
          <path class="cls-10" d="M26.72,137.01h-3.03c-.23,0-.41-.18-.41-.41v-3.03c0-.23.18-.41.41-.41h3.03c.23,0,.41.18.41.41v3.03c0,.23-.18.41-.41.41Z"/>
          <line class="cls-22" x1="28.45" y1="134.37" x2="31.93" y2="134.37"/>
          <line class="cls-22" x1="28.45" y1="135.61" x2="34.06" y2="135.61"/>
          <line class="cls-19" x1="23.28" y1="138.61" x2="27.13" y2="138.61"/>
          <line class="cls-19" x1="23.28" y1="139.89" x2="34.06" y2="139.89"/>
          <line class="cls-19" x1="23.28" y1="141.3" x2="34.06" y2="141.3"/>
        </g>
      </g>
      <g>
        <circle class="cls-31" cx="23.28" cy="123.96" r="3.05"/>
        <polyline class="cls-19" points="22.05 124.1 23.01 124.81 24.65 123.11"/>
      </g>
      <g>
        <path class="cls-10" d="M39.67,118.73h-17.84c-.57,0-1.03-.46-1.03-1.03v-11.02c0-.57.46-1.03,1.03-1.03h17.84c.57,0,1.03.46,1.03,1.03v11.02c0,.57-.46,1.03-1.03,1.03Z"/>
        <g>
          <g>
            <path class="cls-5" d="M25.46,112.15h-2.66c-.2,0-.36-.16-.36-.36v-2.66c0-.2.16-.36.36-.36h2.66c.2,0,.36.16.36.36v2.66c0,.2-.16.36-.36.36Z"/>
            <path class="cls-5" d="M29.76,112.15h-2.66c-.2,0-.36-.16-.36-.36v-2.66c0-.2.16-.36.36-.36h2.66c.2,0,.36.16.36.36v2.66c0,.2-.16.36-.36.36Z"/>
            <path class="cls-5" d="M34.06,112.15h-2.66c-.2,0-.36-.16-.36-.36v-2.66c0-.2.16-.36.36-.36h2.66c.2,0,.36.16.36.36v2.66c0,.2-.16.36-.36.36Z"/>
            <path class="cls-31" d="M38.36,112.15h-2.66c-.2,0-.36-.16-.36-.36v-2.66c0-.2.16-.36.36-.36h2.66c.2,0,.36.16.36.36v2.66c0,.2-.16.36-.36.36Z"/>
          </g>
          <g>
            <path class="cls-5" d="M25.46,116.71h-2.66c-.2,0-.36-.16-.36-.36v-2.66c0-.2.16-.36.36-.36h2.66c.2,0,.36.16.36.36v2.66c0,.2-.16.36-.36.36Z"/>
            <path class="cls-5" d="M29.76,116.71h-2.66c-.2,0-.36-.16-.36-.36v-2.66c0-.2.16-.36.36-.36h2.66c.2,0,.36.16.36.36v2.66c0,.2-.16.36-.36.36Z"/>
            <path class="cls-5" d="M34.06,116.71h-2.66c-.2,0-.36-.16-.36-.36v-2.66c0-.2.16-.36.36-.36h2.66c.2,0,.36.16.36.36v2.66c0,.2-.16.36-.36.36Z"/>
            <path class="cls-5" d="M38.36,116.71h-2.66c-.2,0-.36-.16-.36-.36v-2.66c0-.2.16-.36.36-.36h2.66c.2,0,.36.16.36.36v2.66c0,.2-.16.36-.36.36Z"/>
          </g>
        </g>
      </g>
      <g>
        <path class="cls-10" d="M40.03,128.55h-11.67c-.37,0-.68-.3-.68-.68v-7.21c0-.37.3-.68.68-.68h11.67c.37,0,.68.3.68.68v7.21c0,.37-.3.68-.68.68Z"/>
        <path class="cls-5" d="M38.93,122.91h-9.25c-.2,0-.36-.16-.36-.36v-1.23c0-.2.16-.36.36-.36h9.25c.2,0,.36.16.36.36v1.23c0,.2-.16.36-.36.36Z"/>
        <g>
          <line class="cls-22" x1="29.45" y1="124.19" x2="34" y2="124.19"/>
          <line class="cls-22" x1="29.45" y1="125.29" x2="39.16" y2="125.29"/>
          <line class="cls-22" x1="29.45" y1="126.51" x2="39.16" y2="126.51"/>
        </g>
      </g>
      <g>
        <path class="cls-31" d="M27.12,137.01h-3.83c-.26,0-.47-.21-.47-.47v-3.32c0-.26.21-.47.47-.47h3.83c.26,0,.47.21.47.47v3.32c0,.26-.21.47-.47.47Z"/>
        <path class="cls-10" d="M26.15,134.7l-.16-.03c-.02-.07-.05-.13-.08-.19l.09-.13s.03-.11-.01-.15l-.09-.09s-.11-.05-.15-.01l-.13.09c-.06-.04-.13-.06-.19-.08l-.03-.16c0-.06-.06-.1-.12-.1h-.14c-.06,0-.11.04-.12.1l-.03.16c-.07.02-.13.05-.19.08l-.13-.09s-.11-.03-.15.01l-.09.09s-.05.11-.01.15l.09.13c-.04.06-.06.13-.08.19l-.16.03c-.06,0-.1.06-.1.12v.13c0,.06.04.11.1.12l.16.03c.02.07.05.13.08.19l-.09.13s-.03.11.01.15l.09.09s.11.05.15.01l.13-.09c.06.04.13.06.19.08l.03.16c0,.06.06.1.12.1h.13c.06,0,.11-.04.12-.1l.03-.16c.07-.02.13-.05.19-.08l.13.09s.11.03.15-.01l.09-.09s.05-.11.01-.15l-.09-.13c.04-.06.06-.13.08-.19l.16-.03c.06,0,.1-.06.1-.12v-.13c0-.06-.04-.11-.1-.12ZM25.21,135.3c-.23,0-.42-.19-.42-.42s.19-.42.42-.42.42.19.42.42h0c0,.23-.19.42-.42.42Z"/>
      </g>
      <path class="cls-10" d="M37.97,110.27c0-.52-.42-.94-.94-.94s-.94.42-.94.94c0,.17.05.34.13.47h0,0c.04.06.08.12.13.17l.68.9.68-.9c.05-.05.09-.11.13-.17h0s0,0,0,0c.08-.14.13-.3.13-.47ZM37.03,110.68c-.23,0-.41-.19-.41-.41s.19-.41.41-.41.41.19.41.41c0,.23-.19.41-.41.41Z"/>
    </g>
    <g>
      <g>
        <path class="cls-29" d="M154.74,18.54h0c-5.03,1.34-10.2-1.65-11.54-6.68h0c-1.34-5.03,1.65-10.2,6.68-11.54h0c5.03-1.34,10.2,1.65,11.54,6.68h0c1.34,5.03-1.65,10.2-6.68,11.55Z"/>
        <path class="cls-33" d="M154.39,17.24h0c-4.31,1.15-8.74-1.41-9.89-5.72h0c-1.15-4.31,1.41-8.74,5.72-9.89h0c4.31-1.15,8.74,1.41,9.89,5.72h0c1.15,4.31-1.41,8.74-5.72,9.89Z"/>
        <g>
          <path class="cls-10" d="M152.94,11.81c-.47.13-.75.61-.62,1.08s.61.75,1.08.62.75-.61.62-1.08-.61-.75-1.08-.62Z"/>
          <path class="cls-10" d="M151.21,5.35c-2.01.54-3.62,1.84-4.59,3.52l.87.5c.84-1.45,2.23-2.59,3.98-3.05,1.75-.47,3.52-.18,4.97.66l.5-.87c-1.68-.97-3.72-1.3-5.74-.76Z"/>
          <path class="cls-10" d="M148.47,9.94l.87.5c.57-.98,1.51-1.75,2.69-2.06s2.38-.12,3.36.45l.5-.87c-1.2-.7-2.67-.93-4.12-.55-1.45.39-2.6,1.33-3.3,2.53Z"/>
          <path class="cls-10" d="M150.4,11.06l.87.5c.28-.49.75-.87,1.33-1.02s1.18-.06,1.67.22l.5-.87c-.71-.41-1.57-.55-2.43-.32-.85.23-1.53.78-1.94,1.49Z"/>
        </g>
      </g>
      <g>
        <circle class="cls-29" cx="92.19" cy="47.41" r="7.74" transform="translate(-9.99 29.95) rotate(-17.52)"/>
        <path class="cls-33" d="M91.04,43.11c-2.38.63-3.79,3.08-3.15,5.45s3.08,3.79,5.45,3.15c2.38-.63,3.79-3.08,3.15-5.45s-3.08-3.79-5.45-3.15ZM95.91,46.42c.11.43.15.85.12,1.27-.21-.31-.53-.71-.96-1.14.06-.53.06-1.1-.02-1.71.4.44.7.97.86,1.58ZM94.46,44.31c.14.66.19,1.27.16,1.83-.72-.61-1.66-1.19-2.85-1.48.57-.54,1.08-.87,1.3-1,.5.12.97.34,1.38.64ZM94.31,48.97l1.08.58c-.14.2-.29.4-.47.57-.48.04-.93.03-1.36-.02.26-.33.52-.71.74-1.13ZM93.03,50.02c-1.42-.28-2.48-.99-3.22-1.73.09-.55.25-1.05.45-1.5l3.64,1.96c-.26.49-.57.92-.87,1.27ZM90.06,46.14l-1.2-.65c.09-.16.21-.32.32-.47.59-.08,1.15-.08,1.66-.03-.27.33-.54.72-.78,1.14ZM89.84,46.57c-.18.4-.33.83-.44,1.3-.49-.56-.79-1.09-.95-1.38.05-.19.11-.38.19-.56l1.2.64ZM90.47,46.36c.27-.5.59-.93.91-1.29,1.39.27,2.44.96,3.18,1.65-.08.59-.25,1.12-.45,1.6l-3.64-1.96ZM92.35,43.57c-.31.23-.72.55-1.13.99-.47-.08-.98-.1-1.52-.07.42-.36.92-.63,1.49-.79.39-.1.78-.14,1.16-.13ZM88.35,47.24c.23.35.54.77.95,1.2-.06.45-.08.94-.05,1.46-.35-.42-.63-.92-.78-1.49-.1-.39-.14-.79-.13-1.17ZM89.8,50.43c-.08-.56-.1-1.08-.06-1.56.73.65,1.69,1.26,2.92,1.56-.4.4-.76.67-.95.81-.7-.09-1.36-.38-1.91-.81ZM92.46,51.26c.22-.19.47-.43.74-.72.35.06.72.09,1.11.09-.34.22-.71.4-1.12.51-.24.06-.49.1-.73.12ZM95.63,49.13l-1.11-.6c.19-.43.35-.89.45-1.4.55.6.86,1.13.93,1.27-.07.25-.16.49-.28.73Z"/>
      </g>
      <g>
        <circle class="cls-24" cx="134.23" cy="47.71" r="14.31" transform="translate(25.72 140.02) rotate(-59.95)"/>
        <circle class="cls-20" cx="134.22" cy="47.72" r="17" transform="translate(-3.81 82.92) rotate(-33.88)"/>
        <path class="cls-10" d="M140.21,45.79l-.13.03-1.15-4.32c-.06-.23-.29-.36-.52-.3s-.36.29-.3.52l1.15,4.32-10.17,2.72-1.15-4.32c-.06-.23-.29-.36-.52-.3s-.36.29-.3.52l1.15,4.32-.17.05c-.53.14-.84.68-.7,1.21l.77,2.88c.14.53.68.84,1.21.7l12.12-3.24c.53-.14.84-.68.7-1.21l-.77-2.88c-.14-.53-.68-.84-1.21-.7ZM129.34,51.97c-.37.1-.74-.12-.84-.49s.12-.74.49-.84.74.12.84.49-.12.74-.49.84ZM131.59,51.37c-.37.1-.74-.12-.84-.49s.12-.74.49-.84.74.12.84.49-.12.74-.49.84ZM133.84,50.77c-.37.1-.74-.12-.84-.49s.12-.74.49-.84.74.12.84.49-.12.74-.49.84ZM136.09,50.17c-.37.1-.74-.12-.84-.49s.12-.74.49-.84.74.12.84.49-.12.74-.49.84ZM138.35,49.57c-.37.1-.74-.12-.84-.49s.12-.74.49-.84.74.12.84.49-.12.74-.49.84ZM140.6,48.96c-.37.1-.74-.12-.84-.49s.12-.74.49-.84.74.12.84.49-.12.74-.49.84Z"/>
      </g>
      <line class="cls-23" x1="117.16" y1="49.75" x2="99.89" y2="48.19"/>
      <line class="cls-23" x1="142.16" y1="32.93" x2="149.23" y2="18.62"/>
    </g>
    <g>
      <path class="cls-17" d="M337.67,114.27l-.15-.19c.62-.51,1.28-.97,1.97-1.37l.12.21c-.68.4-1.33.85-1.94,1.35Z"/>
      <path class="cls-17" d="M332.74,121.13l-.22-.08c.83-2.2,2.11-4.19,3.77-5.85l.17.17c-1.63,1.64-2.9,3.6-3.71,5.76Z"/>
      <g>
        <path class="cls-24" d="M381.25,132.12c-.06-6.92-5.72-12.48-12.63-12.42-1.57.01-3.12.32-4.58.91-3.67-7.51-12.73-10.63-20.24-6.96-4.14,2.02-7.13,5.82-8.14,10.31-7.18.45-12.63,6.64-12.18,13.82.43,6.87,6.14,12.22,13.03,12.2h41.45c5.1,0,9.24-4.12,9.25-9.22,0-3.84-2.37-7.28-5.96-8.64h0Z"/>
        <path class="cls-34" d="M371.93,132.48h-33.17c-.56,0-1.02-.46-1.02-1.02h0c0-.56.46-1.02,1.02-1.02h33.17c.56,0,1.02.46,1.02,1.02h0c0,.56-.46,1.02-1.02,1.02Z"/>
        <polygon class="cls-17" points="367.7 118.01 364.52 131.56 345.55 131.56 350.85 108.95 363.99 112.03 367.7 118.01"/>
        <polygon class="cls-2" points="367.7 118.01 364.52 131.56 345.55 131.56 350.85 108.95 363.99 112.03 367.7 118.01"/>
        <path class="cls-25" d="M365.22,120.09l-14.41-3.38c-.21-.05-.34-.25-.29-.46,0,0,0,0,0,0h0c.05-.21.25-.34.46-.29l14.41,3.38c.21.05.34.26.29.46h0c-.05.21-.26.34-.46.29Z"/>
        <path class="cls-25" d="M364.67,122.44l-14.41-3.38c-.21-.05-.34-.26-.29-.46,0,0,0,0,0,0h0c.05-.21.26-.34.46-.29l14.41,3.38c.21.05.34.26.29.46h0c-.05.21-.26.34-.46.29Z"/>
        <path class="cls-25" d="M364.12,124.77l-14.41-3.38c-.21-.05-.34-.26-.29-.46h0c.05-.21.26-.33.46-.29l14.41,3.38c.21.05.34.26.29.46,0,0,0,0,0,0h0c-.05.21-.26.34-.46.29,0,0,0,0,0,0Z"/>
        <path class="cls-25" d="M363.57,127.13l-14.41-3.37c-.21-.05-.33-.26-.29-.46h0c.05-.21.26-.34.46-.29l14.41,3.38c.21.05.34.26.29.46h0c-.05.2-.26.33-.46.28Z"/>
        <path class="cls-25" d="M357.29,128.13l-8.68-2.04c-.2-.05-.33-.26-.28-.46h0c.05-.21.25-.34.46-.29,0,0,0,0,0,0l8.68,2.04c.21.05.34.26.29.46,0,0,0,0,0,0h0c-.05.21-.26.34-.46.29,0,0,0,0,0,0Z"/>
        <polygon class="cls-25" points="367.7 118.01 362.85 116.87 363.99 112.03 367.7 118.01"/>
      </g>
    </g>
    <g>
      <g>
        <polygon class="cls-24" points="156.06 262.46 157.79 337.36 161.09 337.36 160.88 262.65 156.06 262.46"/>
        <polygon class="cls-24" points="144.12 261.62 128.05 337.36 124.37 337.36 137.75 261.62 144.12 261.62"/>
        <polygon class="cls-8" points="174.23 262.46 192.01 337.36 195.69 337.36 179.56 262.15 174.23 262.46"/>
        <path class="cls-24" d="M123.26,180.11s-20.36-1.16-18.33,22.4c2.03,23.56,3.2,47.46,10.77,55.62,7.57,8.16,83.79,8.44,90.19,1.75,6.4-6.69-12.22-6.4-15.71-6.4s-25.02,2.03-32-16.32c-6.98-18.35-5.24-58.21-34.92-57.05Z"/>
        <path class="cls-26" d="M121.95,180.16s-15.56,3.19-14.11,19.48c1.45,16.29,5.53,44.81,13.1,52.08,7.57,7.27,37.17,8.86,53.24,7.86,18.62-1.17,30.37-4.71,30.37-4.71,0,0,3.4,2.18,2.38,3.63-1.02,1.44-10.11,7.07-54.12,6.13-44.01-.94-40.96-7.43-42.78-14.5-1.82-7.07-5.67-44.91-5.13-53.22.53-8.31,4.72-15.32,17.06-16.73Z"/>
        <path class="cls-24" d="M190.51,332.87l.17-8.16-15.27-.42-.37,11.92.91.09c4.21.34,21.41,1.47,24.25.69,3.2-.86-9.69-4.12-9.69-4.12Z"/>
        <g class="cls-35">
          <path class="cls-10" d="M180.59,336.26c-.19-1.3-.86-2.48-1.87-3.31-.98-.84-2.25-1.27-3.54-1.21l-.12,4.26,5.52.25Z"/>
        </g>
        <g class="cls-6">
          <path class="cls-10" d="M196.81,334.7s4.53,1.43,3.93,2.17-18.01.25-25.68-.63v-.34l20.33.73s.53-1.92,1.42-1.93Z"/>
        </g>
        <path class="cls-8" d="M174.79,335.87h.26l.75.06,2.77.2c2.34.15,5.58.31,9.16.42,3.58.11,6.82.12,9.16.1h3.79-3.79c-2.35,0-5.58-.06-9.16-.16s-6.81-.24-9.16-.35l-2.77-.15h-.75l-.26-.12Z"/>
        <path class="cls-8" d="M195.39,336.86c.14-.46.33-.9.56-1.31.28-.38.61-.73.97-1.03-.95.39-1.56,1.32-1.53,2.35h0Z"/>
        <path class="cls-8" d="M190.95,334.45s.27-.23.5-.57.39-.64.34-.68-.26.24-.5.58c-.16.2-.28.43-.34.67Z"/>
        <path class="cls-8" d="M189.73,333.76s.28-.11.54-.34.46-.44.44-.48-.28.11-.55.34-.46.44-.43.48Z"/>
        <path class="cls-8" d="M188.99,332.3c.25.1.53.15.8.13.27.03.54.01.8-.06-.52-.15-1.07-.17-1.6-.06h0Z"/>
        <path class="cls-8" d="M188.76,331.28c.26.19.58.29.91.28.3.06.62.03.91-.09-.3-.06-.6-.09-.91-.09-.3-.06-.6-.09-.91-.1Z"/>
        <path class="cls-8" d="M191.51,333.14c.32.05.65.05.98,0,.36-.04.71-.1,1.05-.2.21-.05.41-.13.6-.23.12-.07.21-.17.25-.3.04-.15-.02-.3-.14-.4-.76-.4-1.69-.21-2.24.44-.16.19-.27.41-.34.64-.02.09-.02.18,0,.27.11-.3.27-.58.47-.82.23-.25.52-.44.85-.53.39-.12.81-.08,1.17.11.15.13.08.31-.09.41-.18.09-.37.16-.56.22-.33.1-.67.18-1.02.24-.63.13-1,.11-1,.15Z"/>
        <path class="cls-8" d="M191.76,333.19c.13-.2.18-.44.14-.68-.02-.26-.11-.51-.24-.73-.16-.3-.47-.5-.81-.52-.21.04-.35.23-.32.44.02.16.08.31.15.44.13.22.28.42.45.6.14.18.33.33.54.42,0,0-.19-.18-.45-.5-.15-.19-.28-.39-.39-.6-.13-.22-.21-.59,0-.63s.49.24.63.44c.13.19.22.41.26.64.03.22.04.44.03.66Z"/>
        <path class="cls-8" d="M175.27,331.7s.44,0,1.12.07c1.84.25,3.36,1.53,3.92,3.3.21.66.23,1.1.25,1.1s0-.11,0-.31c-.02-.28-.06-.56-.15-.82-.25-.9-.76-1.71-1.48-2.32-.72-.6-1.6-.97-2.54-1.07-.28-.03-.56-.03-.84,0-.1,0-.2.02-.29.05Z"/>
        <path class="cls-8" d="M177.02,325.4c-.14,1.04-.21,2.09-.22,3.14-.06,1.04-.06,2.09,0,3.14.13-1.04.21-2.08.22-3.13.06-1.05.06-2.1,0-3.15Z"/>
        <path class="cls-8" d="M182.55,334.82c.72.2,1.47.29,2.22.28.75.06,1.5.02,2.24-.11,0-.05-1.01,0-2.23-.07s-2.22-.15-2.23-.1Z"/>
        <path class="cls-8" d="M179.55,334.74s.07.21.17.44.15.44.2.44.08-.24,0-.51-.34-.41-.37-.37Z"/>
        <path class="cls-8" d="M178.42,333.31s.05.19.21.35.31.27.34.24-.05-.19-.21-.36-.26-.26-.34-.23Z"/>
        <path class="cls-8" d="M176.87,332.62c0,.05.21.05.44.14s.38.22.42.18-.08-.25-.35-.35-.52,0-.5.04Z"/>
        <path class="cls-8" d="M175.7,332.29s.06.13.19.18.24.05.26,0-.06-.13-.19-.18-.26-.05-.26,0Z"/>
        <path class="cls-24" d="M227.37,289.26l-3.54-7.34-13.81,6.55,5.07,10.8.91-.35c3.91-1.59,19.76-8.38,21.94-10.35,2.41-2.2-10.57.71-10.57.71Z"/>
        <g class="cls-35">
          <path class="cls-10" d="M220.06,296.78c-.76-1.07-1.88-1.81-3.15-2.1-1.26-.29-2.58-.11-3.7.53l1.81,3.86,5.04-2.28Z"/>
        </g>
        <g class="cls-6">
          <path class="cls-10" d="M233.82,288.04s4.67-.76,4.48.15-15.95,8.38-23.19,11.06l-.13-.32,18.46-8.55s-.41-1.93.38-2.35Z"/>
        </g>
        <path class="cls-8" d="M214.76,299.03c.09-.01.17-.04.24-.08l.71-.28,2.59-1.08c2.16-.91,5.11-2.25,8.36-3.78s6.14-2.97,8.21-4.05l2.47-1.29.66-.36.23-.15-.24.11-.68.33-2.48,1.24c-2.1,1.04-5,2.47-8.24,4.01s-6.18,2.86-8.33,3.82l-2.53,1.13-.69.32-.27.12Z"/>
        <path class="cls-8" d="M233.54,290.61c-.09-.47-.12-.94-.1-1.41.09-.47.22-.93.4-1.37-.35.37-.55.85-.58,1.35-.09.5.01,1.01.28,1.43Z"/>
        <path class="cls-8" d="M228.49,290.48c.05,0,.14-.33.18-.73s.05-.75,0-.76c-.11.23-.17.48-.18.73-.05.42-.05.75,0,.76Z"/>
        <path class="cls-8" d="M227.09,290.41s.19-.23.34-.55.21-.61.15-.63-.19.23-.33.55-.21.61-.16.63Z"/>
        <path class="cls-8" d="M225.77,289.44c.27-.02.53-.11.76-.24.26-.09.49-.23.69-.42-.27.02-.53.11-.76.24-.41.19-.72.37-.69.42Z"/>
        <path class="cls-8" d="M225.09,288.65c.63.02,1.24-.21,1.7-.65-.56.22-1.13.44-1.7.65Z"/>
        <path class="cls-8" d="M228.39,289.05c.33-.09.63-.23.91-.43.3-.19.59-.41.85-.65.16-.15.3-.31.44-.48.07-.11.1-.25.08-.38-.03-.15-.15-.27-.3-.29-1-.02-1.83.78-1.85,1.78,0,.13,0,.25.03.38,0,.16.08.25.09.24-.04-.3-.02-.61.05-.91.09-.33.27-.62.53-.85.29-.28.68-.44,1.09-.43.19,0,.22.23.1.39-.12.16-.25.32-.39.45-.25.24-.52.47-.81.67-.49.31-.83.47-.82.5Z"/>
        <path class="cls-8" d="M228.63,288.99c.03-.24-.04-.48-.18-.67-.14-.22-.33-.4-.55-.53-.28-.19-.64-.23-.95-.1-.17.13-.2.37-.08.54.09.13.2.24.34.32.21.14.44.26.68.34.21.09.44.13.67.12,0,0-.24-.07-.63-.24-.22-.1-.43-.21-.63-.35-.21-.13-.45-.43-.24-.57.26-.08.53-.04.76.1.2.12.38.27.53.45.12.19.22.39.29.6Z"/>
        <path class="cls-8" d="M213.26,295.13s.37-.23,1.03-.44c1.75-.6,3.68-.15,4.98,1.17.5.49.71.91.73.86-.03-.1-.08-.2-.14-.28-.14-.24-.31-.46-.5-.67-1.3-1.42-3.33-1.9-5.12-1.21-.26.1-.51.23-.74.38-.17.11-.25.18-.24.19Z"/>
        <path class="cls-8" d="M211.96,288.71c.35.99.76,1.95,1.22,2.89.41.96.87,1.9,1.39,2.81-.35-.99-.76-1.95-1.22-2.89-.4-.96-.87-1.9-1.39-2.81Z"/>
        <path class="cls-8" d="M221.16,294.61c.73-.16,1.44-.41,2.1-.75.69-.29,1.35-.66,1.95-1.12,0-.05-.91.44-2.02.95-1.12.52-2.05.87-2.03.92Z"/>
        <path class="cls-8" d="M218.45,295.89c0,.05.16.15.35.32s.33.33.37.3,0-.25-.25-.44-.46-.23-.47-.18Z"/>
        <path class="cls-8" d="M216.83,295.1c0,.05.15.15.35.23s.4.11.42.05-.15-.15-.35-.23-.4-.1-.42-.05Z"/>
        <path class="cls-8" d="M215.1,295.22s.22-.05.45-.07.44,0,.45,0-.18-.18-.48-.15-.46.18-.43.22Z"/>
        <path class="cls-8" d="M213.93,295.43s.12.08.25.07.24-.06.24-.11-.12-.09-.24-.08-.24.06-.24.12Z"/>
        <path class="cls-31" d="M126.75,182.57l3.25-16.32c2.36-13.29,21.03-14.2,21.03-14.2l14.7-.24s10.88-1.46,17.58,6.1c6.93,7.82,15.47,17.08,15.47,17.08l-6.51,16.38-15.41-12.69c1.29,2.26,2,4.8,2.07,7.41,0,4.34-4.53,6.35-4.53,6.35l-1.41,13.17,4.53,21.33-47.87-1.92c.81-7.15,3.23-14.03,7.08-20.12l-.91-22.33h-9.07Z"/>
        <path class="cls-8" d="M147.26,164.32c-.13.34-.21.69-.25,1.04-.15.77-.34,1.72-.56,2.86-.49,2.52-1.12,5.8-1.81,9.43s-1.31,7.03-1.69,9.46c-.2,1.21-.34,2.2-.42,2.88-.07.35-.09.71-.06,1.07.12-.34.2-.69.24-1.04.15-.77.34-1.72.56-2.86.49-2.52,1.12-5.8,1.81-9.43s1.31-7.03,1.69-9.46c.2-1.21.34-2.19.42-2.88.06-.35.08-.71.07-1.07Z"/>
        <path class="cls-8" d="M126.47,181.72c2.94.25,5.9.34,8.85.27,2.95.09,5.9.02,8.85-.21-2.94-.25-5.9-.33-8.85-.26-2.95-.09-5.9-.02-8.85.2Z"/>
        <path class="cls-13" d="M124.65,196.48c.91-7.81,2.2-14.5,2.2-14.5h16.95s-2.1,9.97-1.64,12.24c.42,2,33.26,3.33,41.82,3.46.52-.38,1.25.26,1.91-.32.58-.52,1.08-1.13,1.46-1.81.5-.83.9-1.72,1.17-2.65.09-.49.56-.82,1.06-.73.23.04.43.17.57.36.34.73-.05,3.17-1.67,5.53s2.64,1.13,4.2.72,6.45-1.48,6.95-1.09c.74.57.28,1.49-1.29,1.87-1.57.38-6.2,1.81-5.95,2.72s8.16-1.42,8.16-1.42c0,0,1.61-.75,1.94.2.58,1.72-8,3.46-8.83,3.63-.57.11-.33,1.02.28.91s7.85-2.42,8.46-.67c.47,1.34-7.05,1.5-8.29,2.83-1.24,1.32,5.69-.72,6.09.58.15.49-2.72.71-6.89,1.3-4.26.41-8.55.56-12.83.45-9.62.53-43.63,1.23-50.89.72-8.45-.64-5.27-11.59-4.94-14.3Z"/>
        <path class="cls-8" d="M178.51,183.04c-.13-.75-.33-1.48-.58-2.19-.2-.68-.44-1.48-.75-2.36-.15-.44-.33-.91-.52-1.37-.11-.25-.24-.47-.31-.68-.07-.23-.1-.47-.09-.71.04-.51.12-1.01.23-1.5.09-.49.18-.96.27-1.42.15-.91.29-1.69.42-2.43.17-.74.26-1.5.27-2.26-.28.71-.48,1.44-.6,2.19-.16.73-.34,1.54-.52,2.4l-.3,1.43c-.12.52-.21,1.05-.24,1.58-.02.29.02.58.12.86.09.24.2.48.33.72.19.45.37.91.53,1.34.3.82.59,1.6.84,2.3.21.73.51,1.44.9,2.09Z"/>
        <g class="cls-3">
          <path d="M146.69,168.74c-.59,9.07-.91,17.45-1.12,26.54-1.21-.05-2.39-.42-3.41-1.07-.46-3.88,2.47-15.69,4.53-25.47Z"/>
        </g>
        <path class="cls-29" d="M129.53,222.88s62.6-13.12,68.67-10.24c6.06,2.87,34.01,71.96,34.01,71.96l-22.51,9.68-24.21-58.71s-43.83,16.01-51.49,14.4c-7.66-1.61-4.47-27.09-4.47-27.09Z"/>
        <path class="cls-29" d="M157.52,226.56c.95.32,37.17,15.21,39.72,19.99,2.56,4.78-3.72,84.25-3.72,84.25h-20.6l1.27-70.63-40.2-10.21,23.52-23.41Z"/>
        <path class="cls-8" d="M133.79,250.15c.2,0,.4-.03.59-.07l1.69-.3c1.46-.27,3.57-.69,6.17-1.24,5.19-1.1,12.36-2.72,20.15-4.99,3.9-1.12,7.58-2.3,10.88-3.44,3.3-1.14,6.28-2.28,8.72-3.33,1.23-.5,2.33-1,3.29-1.43s1.81-.81,2.46-1.15l1.52-.77c.19-.08.36-.18.53-.3-.19.06-.38.13-.56.22l-1.57.69c-.67.31-1.5.67-2.47,1.08-.97.41-2.08.91-3.31,1.36-2.46,1.01-5.44,2.07-8.75,3.23-3.31,1.16-7,2.28-10.88,3.4-7.79,2.24-14.92,3.94-20.1,5.12l-6.14,1.39-1.67.38c-.19.04-.37.1-.55.17Z"/>
        <path class="cls-8" d="M197.23,264.8c.1-.39.17-.79.19-1.19.09-.86.21-1.96.34-3.26s.28-3.04.44-4.83c.28-1.99.28-4,0-5.99-.4-2.01-1.46-3.83-3-5.18-1.23-1.09-2.62-1.99-4.12-2.66-1-.45-2.02-.86-3.05-1.21-.37-.15-.76-.26-1.16-.34,0,.08,1.6.65,4.07,1.81,1.45.68,2.79,1.58,3.97,2.67,1.45,1.3,2.45,3.04,2.84,4.95.25,1.95.25,3.92,0,5.87-.14,1.81-.25,3.44-.35,4.84s-.15,2.41-.19,3.27c-.04.41-.03.83.03,1.24Z"/>
        <path class="cls-8" d="M179.16,257.98c-1.74.42-3.39,1.15-4.88,2.15,1.74-.43,3.39-1.15,4.88-2.15Z"/>
        <path class="cls-8" d="M177.34,255.8c-.59.74-1.13,1.52-1.64,2.32-.91,1.24-1.88,2.1-1.81,2.21.89-.43,1.64-1.1,2.17-1.93.67-.73,1.11-1.63,1.29-2.6Z"/>
        <path class="cls-8" d="M169.44,259.03s.06.17.32.33c.37.2.78.29,1.2.28.57-.02,1.14,0,1.71.05.63.09,1.08.67,1.02,1.31-.07,1.84.02,3.68.25,5.5.23-1.83.31-3.68.22-5.53,0-.42-.14-.83-.39-1.17-.27-.3-.63-.49-1.03-.54-.6-.03-1.21-.01-1.81.05-.51.04-1.02-.06-1.49-.27Z"/>
        <polygon class="cls-1" points="174.38 212.23 131.71 215.65 133.53 210.87 173.96 210.29 174.38 212.23"/>
      </g>
      <path class="cls-8" d="M178.29,151.37l-.78-4.73c-2.91-15.01-4.62-33.45-7.39-38.02-5.13-8.42-17.75-7.27-17.75-7.27-16.77,1.46-17.69,14.67-17.5,26.54,0,2.01-.24,5.64-.66,9.85-1.1,8.81-2.8,17.94-8.01,24.65-1.99,2.62-3.08,5.83-3.1,9.12,0,3.24,2.25,6.77,5.5,6.8-2.49,3.26-1.86,7.92,1.4,10.41.49.38,1.03.69,1.6.93,2.92,1.24,6.29.5,9.33-.35s6.19-1.9,8.32-4.23c2.13-2.33,2.89-5.59,3.36-8.72.56-3.77-5.13-20.03-5.17-23.84l30.85-1.14Z"/>
      <path class="cls-4" d="M165.73,151.85l-.53-3.02c-.31-3.26-.46-4.6-.46-4.56,0,.03,6.73-1.89,7.18-11,.22-4.53-.92-10.53-2.13-16.42-1.63-8.13-8.12-12.18-14.72-11.12l-1.19-.79-10.48,6.29c-1.61.34-2.69,1.87-2.47,3.5l7.63,37.79c1.03,1.46,2.67,3.45,5.12,5.31,2.32,1.76,4.55,2.8,6.18,3.4,1-.59,3.11-2.04,4.54-4.76.97-1.85,1.24-3.56,1.32-4.63Z"/>
      <path class="cls-8" d="M157.65,125.29c.07.62-.36,1.19-.98,1.28-.6.11-1.18-.28-1.29-.89,0,0,0-.02,0-.03-.07-.62.36-1.18.97-1.27.6-.12,1.18.28,1.3.88,0,0,0,.02,0,.03Z"/>
      <path class="cls-8" d="M168.67,123.78c.07.62-.36,1.19-.98,1.28-.6.11-1.18-.28-1.29-.89,0,0,0-.02,0-.03-.07-.62.36-1.18.97-1.28.61-.11,1.19.29,1.3.89,0,0,0,.01,0,.02Z"/>
      <path class="cls-8" d="M169.05,119.41c-.13.16-1.07-.38-2.3-.24-1.23.14-2.07.85-2.22.71s0-.35.41-.68c.49-.44,1.11-.71,1.76-.79.64-.07,1.29.06,1.85.38.42.25.57.5.51.6Z"/>
      <path class="cls-8" d="M156.63,121.5c-.15.16-1.02-.49-2.27-.48s-2.14.64-2.28.49.07-.34.47-.63c.54-.38,1.18-.58,1.83-.57.65-.01,1.28.19,1.8.57.39.29.51.57.45.63Z"/>
      <path class="cls-8" d="M162.34,129.74c.63-.27,1.29-.46,1.97-.57.31-.07.6-.16.63-.38,0-.33-.12-.65-.31-.91l-1.19-2.3c-1.67-3.28-2.91-5.99-2.78-6.06s1.57,2.54,3.27,5.82l1.15,2.32c.22.36.32.78.27,1.19-.07.24-.24.43-.47.52-.17.07-.35.11-.53.13-.65.17-1.33.25-2,.24Z"/>
      <path class="cls-7" d="M164.79,144.26c-4.21.52-8.48-.13-12.33-1.89,0,0,3.68,5.86,12.57,4.05l-.24-2.16Z"/>
      <path class="cls-7" d="M162.14,132.77c-.54-.55-1.33-.78-2.08-.61-.55.11-1.02.43-1.32.9-.3.46-.27,1.05.06,1.48.46.41,1.11.5,1.67.24.56-.27,1.06-.65,1.48-1.12.13-.11.23-.25.31-.4.08-.15.06-.34-.06-.46"/>
      <path class="cls-8" d="M158.79,130.99c.2-.04.35,1.3,1.57,2.13s2.66.53,2.69.71-.29.29-.9.38c-.78.09-1.57-.09-2.24-.52-.63-.42-1.08-1.06-1.25-1.8-.09-.56.03-.9.12-.9Z"/>
      <path class="cls-8" d="M157.04,116.54c-.13.35-1.37.19-2.82.38-1.45.19-2.63.59-2.83.29-.09-.15.12-.46.59-.79,1.28-.83,2.86-1.01,4.3-.51.54.2.81.47.76.63Z"/>
      <path class="cls-8" d="M168.03,114.15c-.19.31-1.07.11-2.09.2s-1.87.39-2.11.13c-.1-.13,0-.43.35-.74.97-.76,2.3-.87,3.38-.26.39.24.54.53.46.67Z"/>
      <path class="cls-8" d="M143.65,130.25s6.59.95,7.66-15.11c.37-5.5,4.6-10.57,4.6-10.57l-2.09-.27s-11.78,5.5-12,5.66-2.1,6.9-2.1,6.9l3.94,13.4Z"/>
      <path class="cls-4" d="M145.11,129.42c-.07-.66-1.01-2.15-1.68-2.18-1.79-.08-4.94.41-4.49,4.87.63,6.11,6.63,4.22,6.62,4.05s-.2-4.43-.46-6.73Z"/>
      <path class="cls-7" d="M143.46,134.04s-.09.09-.27.19c-.24.13-.52.16-.79.09-.67-.17-1.32-1.14-1.46-2.24-.07-.53-.02-1.06.14-1.57.08-.38.33-.71.68-.88.25-.09.52,0,.66.23.1.16.07.29.11.3s.12-.12,0-.36c-.04-.15-.14-.28-.27-.36-.18-.11-.4-.15-.6-.09-.5.15-.89.55-1.01,1.06-.21.55-.27,1.15-.2,1.74.17,1.23.91,2.32,1.82,2.48.34.06.7-.04.96-.27.24-.16.25-.31.23-.31Z"/>
      <path class="cls-8" d="M147.44,126.61s.33-.08.88-.33c.76-.37,1.43-.91,1.95-1.57.37-.47.68-.98.93-1.52.27-.62.48-1.26.63-1.92.29-1.52.49-3.06.6-4.6.15-1.55.38-3.09.69-4.62.25-1.25.59-2.47,1.03-3.67.29-.81.64-1.6,1.04-2.36.14-.27.27-.47.35-.6.04-.07.08-.14.13-.2-.03.08-.06.15-.1.22-.07.14-.19.35-.32.61-.38.77-.71,1.55-.99,2.36-.42,1.19-.75,2.42-.99,3.66-.29,1.4-.5,2.96-.68,4.6-.11,1.55-.31,3.1-.61,4.63-.15.67-.37,1.31-.66,1.93-.25.54-.57,1.05-.94,1.52-.54.68-1.23,1.22-2.02,1.57-.29.14-.59.24-.91.3Z"/>
      <g>
        <rect class="cls-24" x="271.55" y="164.72" width="58.84" height="40.96"/>
        <rect class="cls-16" x="263.47" y="176.87" width="60.52" height="15.02"/>
        <rect class="cls-27" x="266.15" y="179.96" width="11.92" height="1.83"/>
        <rect class="cls-27" x="266.15" y="183.12" width="11.92" height="1.83"/>
        <rect class="cls-27" x="266.15" y="186.38" width="11.92" height="1.83"/>
        <path class="cls-8" d="M282.78,181.07c0,.38-.31.68-.68.68s-.68-.31-.68-.68c0-.38.31-.68.68-.68h0c.37,0,.68.3.68.67,0,0,0,0,0,.01Z"/>
        <path class="cls-8" d="M285.8,181.07c0,.38-.31.68-.68.68s-.68-.31-.68-.68c0-.38.31-.68.68-.68h0c.38,0,.68.31.68.68Z"/>
        <path class="cls-8" d="M288.82,181.07c0,.38-.31.68-.68.68s-.68-.31-.68-.68c0-.38.31-.68.68-.68h0c.38,0,.68.31.68.68Z"/>
        <path class="cls-8" d="M291.84,181.07c0,.38-.3.69-.68.69-.38,0-.69-.3-.69-.68,0-.38.3-.69.68-.69,0,0,0,0,.01,0,.38,0,.68.31.68.68Z"/>
        <path class="cls-8" d="M315.21,181.07c0,.38-.31.68-.68.68s-.68-.31-.68-.68c0-.38.31-.68.68-.68h0c.38,0,.68.31.68.68Z"/>
        <path class="cls-8" d="M318.29,181.07c0,.38-.3.69-.68.69-.38,0-.69-.3-.69-.68,0-.38.3-.69.68-.69,0,0,0,0,.01,0,.38,0,.68.31.68.68Z"/>
        <path class="cls-8" d="M294.85,181.07c0,.38-.31.68-.68.68s-.68-.31-.68-.68c0-.38.31-.68.68-.68h0c.38,0,.68.31.68.68Z"/>
        <path class="cls-8" d="M309.67,181.07c0,.38-.31.68-.68.68s-.68-.31-.68-.68c0-.38.31-.68.68-.68h0c.38,0,.68.31.68.68Z"/>
        <path class="cls-32" d="M297.87,181.07c0,.38-.31.68-.68.68s-.68-.31-.68-.68c0-.38.31-.68.68-.68h0c.38,0,.68.31.68.68Z"/>
        <path class="cls-32" d="M300.89,181.07c0,.38-.31.68-.68.68s-.68-.31-.68-.68c0-.38.31-.68.68-.68h0c.38,0,.68.31.68.68Z"/>
        <path class="cls-32" d="M307,181.07c0,.38-.31.68-.68.68s-.68-.31-.68-.68c0-.38.31-.68.68-.68h0c.37,0,.68.3.68.67,0,0,0,0,0,.01Z"/>
        <path class="cls-32" d="M320.79,181.07c0,.38-.31.68-.68.68s-.68-.31-.68-.68c0-.38.31-.68.68-.68h0c.38,0,.68.31.68.68Z"/>
        <path class="cls-31" d="M303.9,181.07c0,.38-.3.69-.68.69s-.69-.3-.69-.68.3-.69.68-.69c0,0,0,0,0,0,.38,0,.69.3.69.68,0,0,0,0,0,0Z"/>
        <path class="cls-31" d="M312.54,181.07c0,.38-.31.68-.68.68s-.68-.31-.68-.68c0-.38.31-.68.68-.68h0c.38,0,.68.31.68.68Z"/>
        <path class="cls-8" d="M319.42,184.37c0-.38.31-.68.68-.68s.68.31.68.68c0,.38-.31.68-.68.68h0c-.38,0-.68-.31-.68-.68Z"/>
        <path class="cls-8" d="M316.41,184.37c0-.38.31-.68.68-.68s.68.31.68.68c0,.38-.31.68-.68.68h0c-.38,0-.68-.31-.68-.68Z"/>
        <path class="cls-8" d="M313.39,184.37c0-.38.31-.68.68-.68s.68.31.68.68c0,.38-.31.68-.68.68h0c-.38,0-.68-.31-.68-.68Z"/>
        <path class="cls-8" d="M310.37,184.37c0-.38.3-.69.68-.69.38,0,.69.3.69.68s-.3.69-.68.69c0,0,0,0,0,0-.38,0-.69-.3-.69-.68,0,0,0,0,0,0Z"/>
        <path class="cls-8" d="M286.99,184.37c0-.38.31-.68.68-.68.38,0,.68.31.68.68,0,.38-.3.68-.68.68-.38,0-.69-.3-.69-.68,0,0,0,0,0,0Z"/>
        <path class="cls-8" d="M283.92,184.37c0-.38.31-.68.68-.68s.68.31.68.68c0,.38-.31.68-.68.68h0c-.38,0-.68-.31-.68-.68Z"/>
        <path class="cls-8" d="M307.36,184.37c0-.38.31-.68.68-.68s.68.31.68.68-.31.68-.68.68h0c-.38,0-.68-.31-.68-.68Z"/>
        <path class="cls-8" d="M292.53,184.37c0-.38.31-.68.68-.68s.68.31.68.68c0,.38-.31.68-.68.68h0c-.38,0-.68-.31-.68-.68Z"/>
        <path class="cls-32" d="M304.36,184.37c0-.38.31-.68.68-.68s.68.31.68.68c0,.38-.31.68-.68.68h0c-.38,0-.68-.31-.68-.68Z"/>
        <path class="cls-32" d="M301.32,184.37c0-.38.31-.68.68-.68s.68.31.68.68c0,.38-.31.68-.68.68h0c-.38,0-.68-.31-.68-.68Z"/>
        <path class="cls-32" d="M295.22,184.37c0-.38.31-.68.68-.68s.68.31.68.68c0,.38-.31.68-.68.68h0c-.38,0-.68-.31-.68-.68Z"/>
        <path class="cls-32" d="M281.42,184.37c0-.38.31-.68.68-.68s.68.31.68.68c0,.38-.31.68-.68.68h0c-.38,0-.68-.31-.68-.68Z"/>
        <path class="cls-31" d="M298.31,184.37c0-.38.31-.68.68-.68s.68.31.68.68c0,.38-.31.68-.68.68h0c-.38,0-.68-.31-.68-.68Z"/>
        <path class="cls-31" d="M289.67,184.37c0-.38.31-.68.68-.68.38,0,.68.31.68.68,0,.37-.29.67-.66.68-.38.01-.69-.28-.7-.66,0,0,0-.01,0-.02Z"/>
        <path class="cls-8" d="M282.78,187.3c0,.38-.31.68-.68.68s-.68-.31-.68-.68c0-.38.31-.68.68-.68h0c.38,0,.68.31.68.68Z"/>
        <circle class="cls-8" cx="285.12" cy="187.3" r=".68"/>
        <circle class="cls-8" cx="288.14" cy="187.3" r=".68"/>
        <circle class="cls-8" cx="291.15" cy="187.3" r=".68"/>
        <circle class="cls-8" cx="314.53" cy="187.3" r=".68"/>
        <circle class="cls-8" cx="317.61" cy="187.3" r=".68"/>
        <path class="cls-8" d="M294.85,187.3c0,.38-.31.68-.68.68s-.68-.31-.68-.68c0-.38.31-.68.68-.68h0c.38,0,.68.31.68.68Z"/>
        <path class="cls-8" d="M309.67,187.3c0,.38-.31.68-.68.68s-.68-.31-.68-.68c0-.38.31-.68.68-.68h0c.38,0,.68.31.68.68Z"/>
        <circle class="cls-32" cx="297.18" cy="187.3" r=".68"/>
        <path class="cls-32" d="M300.89,187.3c0,.38-.31.68-.68.68s-.68-.31-.68-.68c0-.38.31-.68.68-.68h0c.38,0,.68.31.68.68Z"/>
        <path class="cls-32" d="M307,187.3c0,.38-.31.68-.68.68s-.68-.31-.68-.68c0-.38.31-.68.68-.68h0c.38,0,.68.31.68.68Z"/>
        <path class="cls-32" d="M320.79,187.3c0,.38-.31.68-.68.68s-.68-.31-.68-.68c0-.38.31-.68.68-.68h0c.38,0,.68.31.68.68Z"/>
        <path class="cls-31" d="M303.9,187.3c0,.38-.3.69-.68.69s-.69-.3-.69-.68.3-.69.68-.69c0,0,0,0,0,0,.38,0,.69.3.69.68,0,0,0,0,0,0Z"/>
        <circle class="cls-31" cx="311.86" cy="187.3" r=".68"/>
        <rect class="cls-16" x="263.47" y="195.4" width="60.52" height="15.02"/>
        <path class="cls-8" d="M282.64,199.45c0,.38-.3.69-.68.69s-.69-.3-.69-.68.3-.69.68-.69c0,0,0,0,0,0,.38,0,.69.3.69.68,0,0,0,0,0,0Z"/>
        <path class="cls-8" d="M285.65,199.45c0,.38-.31.68-.68.68-.38,0-.68-.31-.68-.68,0-.38.31-.68.68-.68,0,0,.02,0,.03,0,.37.01.66.32.66.68Z"/>
        <path class="cls-8" d="M288.67,199.45c0,.38-.31.68-.68.68s-.68-.31-.68-.68c0-.38.31-.68.68-.68h0c.38,0,.68.31.68.68Z"/>
        <path class="cls-8" d="M291.69,199.45c0,.38-.31.68-.68.68s-.68-.31-.68-.68c0-.38.31-.68.68-.68h0c.38,0,.68.31.68.68Z"/>
        <path class="cls-8" d="M315.06,199.45c0,.38-.31.68-.68.68s-.68-.31-.68-.68c0-.38.31-.68.68-.68h0c.38,0,.68.31.68.68Z"/>
        <path class="cls-8" d="M318.14,199.45c0,.38-.31.68-.68.68s-.68-.31-.68-.68c0-.38.31-.68.68-.68h0c.38,0,.68.31.68.68Z"/>
        <path class="cls-8" d="M294.68,199.45c0,.38-.31.68-.68.68s-.68-.31-.68-.68c0-.38.31-.68.68-.68h0c.38,0,.68.31.68.68Z"/>
        <path class="cls-8" d="M309.52,199.45c0,.38-.31.68-.68.68s-.68-.31-.68-.68c0-.38.31-.68.68-.68h0c.38,0,.68.31.68.68Z"/>
        <path class="cls-32" d="M297.72,199.45c0,.38-.31.68-.68.68s-.68-.31-.68-.68c0-.38.31-.68.68-.68h0c.38,0,.68.31.68.68Z"/>
        <path class="cls-32" d="M300.73,199.45c0,.38-.31.68-.68.68s-.68-.31-.68-.68c0-.38.31-.68.68-.68h0c.38,0,.68.31.68.68Z"/>
        <path class="cls-32" d="M306.86,199.45c0,.38-.3.69-.68.69-.38,0-.69-.3-.69-.68,0-.38.3-.69.68-.69,0,0,0,0,.01,0,.38,0,.68.31.68.68Z"/>
        <path class="cls-32" d="M320.64,199.45c0,.38-.31.68-.68.68s-.68-.31-.68-.68c0-.38.31-.68.68-.68h0c.38,0,.68.31.68.68Z"/>
        <path class="cls-31" d="M303.75,199.45c0,.38-.31.68-.68.68s-.68-.31-.68-.68c0-.38.31-.68.68-.68h0c.38,0,.68.31.68.68Z"/>
        <path class="cls-14" d="M312.39,199.45c0,.38-.31.68-.68.68s-.68-.31-.68-.68c0-.38.31-.68.68-.68h0c.38,0,.68.31.68.68Z"/>
        <path class="cls-8" d="M319.27,202.74c0-.38.31-.68.68-.68s.68.31.68.68c0,.38-.31.68-.68.68h0c-.38,0-.68-.31-.68-.68Z"/>
        <circle class="cls-8" cx="316.94" cy="202.74" r=".68"/>
        <path class="cls-8" d="M313.24,202.74c0-.38.3-.69.68-.69.38,0,.69.3.69.68,0,.38-.3.69-.68.69,0,0,0,0-.01,0-.38,0-.68-.31-.68-.68Z"/>
        <path class="cls-8" d="M310.23,202.74c0-.38.31-.68.68-.68s.68.31.68.68c0,.38-.31.68-.68.68h0c-.38,0-.68-.31-.68-.68Z"/>
        <path class="cls-8" d="M286.84,202.74c0-.38.3-.69.68-.69s.69.3.69.68-.3.69-.68.69c0,0,0,0,0,0-.38,0-.69-.3-.69-.68,0,0,0,0,0,0Z"/>
        <path class="cls-8" d="M283.77,202.74c0-.38.31-.68.68-.68s.68.31.68.68c0,.38-.31.68-.68.68h0c-.38,0-.68-.31-.68-.68Z"/>
        <circle class="cls-8" cx="307.89" cy="202.74" r=".68"/>
        <circle class="cls-8" cx="293.07" cy="202.74" r=".68"/>
        <path class="cls-32" d="M304.19,202.74c0-.38.31-.68.68-.68s.68.31.68.68c0,.38-.31.68-.68.68h0c-.38,0-.68-.31-.68-.68Z"/>
        <path class="cls-32" d="M301.17,202.74c0-.38.3-.69.68-.69s.69.3.69.68-.3.69-.68.69c0,0,0,0,0,0-.38,0-.69-.3-.69-.68,0,0,0,0,0,0Z"/>
        <circle class="cls-32" cx="295.74" cy="202.74" r=".68"/>
        <path class="cls-32" d="M281.26,202.74c0-.38.3-.69.68-.69.38,0,.69.3.69.68,0,.38-.3.69-.68.69,0,0,0,0-.01,0-.38,0-.68-.31-.68-.68Z"/>
        <path class="cls-31" d="M298.16,202.74c0-.38.31-.68.68-.68s.68.31.68.68c0,.38-.31.68-.68.68h0c-.38,0-.68-.31-.68-.68Z"/>
        <path class="cls-31" d="M289.52,202.74c0-.38.31-.68.68-.68s.68.31.68.68c0,.38-.31.68-.68.68h0c-.38,0-.68-.31-.68-.68Z"/>
        <path class="cls-8" d="M282.64,205.68c0,.38-.3.69-.68.69s-.69-.3-.69-.68.3-.69.68-.69c0,0,0,0,0,0,.38,0,.69.3.69.68,0,0,0,0,0,0Z"/>
        <path class="cls-8" d="M285.65,205.68c0,.38-.31.68-.68.68-.38,0-.68-.31-.68-.68,0-.38.31-.68.68-.68,0,0,.02,0,.03,0,.37.01.66.32.66.68Z"/>
        <path class="cls-8" d="M288.67,205.68c0,.38-.31.68-.68.68s-.68-.31-.68-.68c0-.38.31-.68.68-.68h0c.38,0,.68.31.68.68Z"/>
        <path class="cls-8" d="M291.69,205.68c0,.38-.31.68-.68.68s-.68-.31-.68-.68c0-.38.31-.68.68-.68h0c.38,0,.68.31.68.68Z"/>
        <path class="cls-8" d="M315.06,205.68c0,.38-.31.68-.68.68s-.68-.31-.68-.68c0-.38.31-.68.68-.68h0c.38,0,.68.31.68.68Z"/>
        <path class="cls-8" d="M318.14,205.68c0,.38-.31.68-.68.68s-.68-.31-.68-.68c0-.38.31-.68.68-.68h0c.38,0,.68.31.68.68Z"/>
        <path class="cls-8" d="M294.68,205.68c0,.38-.31.68-.68.68s-.68-.31-.68-.68c0-.38.31-.68.68-.68h0c.38,0,.68.31.68.68Z"/>
        <path class="cls-8" d="M309.52,205.68c0,.38-.31.68-.68.68s-.68-.31-.68-.68c0-.38.31-.68.68-.68h0c.38,0,.68.31.68.68Z"/>
        <path class="cls-32" d="M297.72,205.68c0,.38-.31.68-.68.68s-.68-.31-.68-.68c0-.38.31-.68.68-.68h0c.38,0,.68.31.68.68Z"/>
        <path class="cls-32" d="M300.73,205.68c0,.38-.31.68-.68.68s-.68-.31-.68-.68c0-.38.31-.68.68-.68h0c.38,0,.68.31.68.68Z"/>
        <path class="cls-32" d="M306.86,205.68c0,.38-.3.69-.68.69-.38,0-.69-.3-.69-.68,0-.38.3-.69.68-.69,0,0,0,0,.01,0,.38,0,.68.31.68.68Z"/>
        <path class="cls-32" d="M320.64,205.68c0,.38-.31.68-.68.68s-.68-.31-.68-.68c0-.38.31-.68.68-.68h0c.38,0,.68.31.68.68Z"/>
        <path class="cls-31" d="M303.75,205.68c0,.38-.31.68-.68.68s-.68-.31-.68-.68c0-.38.31-.68.68-.68h0c.38,0,.68.31.68.68Z"/>
        <path class="cls-31" d="M312.39,205.68c0,.38-.31.68-.68.68s-.68-.31-.68-.68c0-.38.31-.68.68-.68h0c.38,0,.68.31.68.68Z"/>
        <rect class="cls-27" x="266.15" y="198.49" width="11.92" height="1.83"/>
        <rect class="cls-27" x="266.15" y="201.65" width="11.92" height="1.83"/>
        <rect class="cls-27" x="266.15" y="204.91" width="11.92" height="1.83"/>
        <polygon class="cls-24" points="336.79 191.86 323.99 191.89 323.99 176.87 336.79 176.85 336.79 191.86"/>
        <polygon class="cls-24" points="336.79 210.28 323.99 210.3 323.99 195.28 336.79 195.26 336.79 210.28"/>
        <rect class="cls-8" x="266.59" y="167.98" width="11.92" height="1.83"/>
        <polygon class="cls-24" points="336.79 173.6 323.99 173.63 323.99 158.5 336.79 158.47 336.79 173.6"/>
        <rect class="cls-16" x="263.9" y="158.47" width="60.52" height="15.02"/>
        <rect class="cls-27" x="266.59" y="161.57" width="11.92" height="1.83"/>
        <rect class="cls-27" x="266.59" y="164.72" width="11.92" height="1.83"/>
        <path class="cls-8" d="M283.22,162.69c0,.38-.31.68-.68.68s-.68-.31-.68-.68c0-.38.31-.68.68-.68h0c.38,0,.68.31.68.68Z"/>
        <path class="cls-8" d="M286.24,162.69c0,.38-.3.69-.68.69-.38,0-.69-.3-.69-.68,0-.38.3-.69.68-.69,0,0,0,0,.01,0,.38,0,.68.31.68.68Z"/>
        <path class="cls-8" d="M289.25,162.69c0,.38-.31.68-.68.68s-.68-.31-.68-.68c0-.38.31-.68.68-.68h0c.38,0,.68.31.68.68Z"/>
        <path class="cls-8" d="M292.27,162.69c0,.38-.31.68-.68.68s-.68-.31-.68-.68c0-.38.31-.68.68-.68h0c.38,0,.68.31.68.68Z"/>
        <path class="cls-8" d="M315.66,162.69c0,.38-.31.68-.68.68s-.68-.31-.68-.68c0-.38.31-.68.68-.68h0c.38,0,.68.31.68.68Z"/>
        <path class="cls-8" d="M318.73,162.69c0,.38-.31.68-.68.68s-.68-.31-.68-.68c0-.38.31-.68.68-.68h0c.38,0,.68.31.68.68Z"/>
        <path class="cls-8" d="M295.29,162.69c0,.38-.31.68-.68.68s-.68-.31-.68-.68c0-.38.31-.68.68-.68h0c.38,0,.68.31.68.68Z"/>
        <path class="cls-8" d="M310.11,162.69c0,.38-.3.69-.68.69-.38,0-.69-.3-.69-.68s.3-.69.68-.69c0,0,0,0,0,0,.38,0,.69.3.69.68,0,0,0,0,0,0Z"/>
        <path class="cls-32" d="M298.31,162.69c0,.38-.3.69-.68.69s-.69-.3-.69-.68.3-.69.68-.69c0,0,0,0,0,0,.38,0,.69.3.69.68,0,0,0,0,0,0Z"/>
        <path class="cls-32" d="M301.32,162.69c0,.38-.31.68-.68.68s-.68-.31-.68-.68c0-.38.31-.68.68-.68h0c.38,0,.68.31.68.68Z"/>
        <path class="cls-32" d="M307.44,162.69c0,.38-.31.68-.68.68s-.68-.31-.68-.68c0-.38.31-.68.68-.68h0c.38,0,.68.31.68.68Z"/>
        <path class="cls-32" d="M321.23,162.69c0,.38-.31.68-.68.68s-.68-.31-.68-.68c0-.38.31-.68.68-.68h0c.38,0,.68.31.68.68Z"/>
        <path class="cls-31" d="M304.36,162.69c0,.38-.31.68-.68.68s-.68-.31-.68-.68c0-.38.31-.68.68-.68h0c.38,0,.68.31.68.68Z"/>
        <path class="cls-31" d="M312.97,162.69c0,.38-.31.68-.68.68s-.68-.31-.68-.68c0-.38.31-.68.68-.68h0c.38,0,.68.31.68.68Z"/>
        <path class="cls-8" d="M319.86,165.97c0-.38.31-.68.68-.68s.68.31.68.68c0,.38-.31.68-.68.68h0c-.38,0-.68-.31-.68-.68Z"/>
        <circle class="cls-8" cx="317.53" cy="165.97" r=".68"/>
        <path class="cls-8" d="M313.83,165.97c0-.38.31-.68.68-.68s.68.31.68.68c0,.38-.31.68-.68.68h0c-.38,0-.68-.31-.68-.68Z"/>
        <path class="cls-8" d="M310.82,165.97c0-.38.31-.68.68-.68s.68.31.68.68c0,.38-.31.68-.68.68h0c-.38,0-.68-.31-.68-.68Z"/>
        <path class="cls-8" d="M287.44,165.97c0-.38.31-.68.68-.68s.68.31.68.68c0,.38-.31.68-.68.68h0c-.38,0-.68-.31-.68-.68Z"/>
        <path class="cls-8" d="M284.36,165.97c0-.38.31-.68.68-.68s.68.31.68.68c0,.38-.31.68-.68.68h0c-.38,0-.68-.31-.68-.68Z"/>
        <path class="cls-8" d="M307.79,165.97c0-.38.31-.68.68-.68s.68.31.68.68-.31.68-.68.68h0c-.38,0-.68-.31-.68-.68Z"/>
        <circle class="cls-8" cx="293.67" cy="165.97" r=".68"/>
        <path class="cls-32" d="M304.78,165.97c0-.38.31-.68.68-.68s.68.31.68.68c0,.38-.31.68-.68.68h0c-.38,0-.68-.31-.68-.68Z"/>
        <circle class="cls-32" cx="302.45" cy="165.97" r=".68"/>
        <path class="cls-32" d="M295.64,165.97c0-.38.31-.68.68-.68s.68.31.68.68c0,.38-.31.68-.68.68h0c-.38,0-.68-.31-.68-.68Z"/>
        <circle class="cls-32" cx="282.54" cy="165.97" r=".68"/>
        <path class="cls-31" d="M298.74,165.97c0-.38.31-.68.68-.68s.68.31.68.68c0,.38-.31.68-.68.68h0c-.38,0-.68-.31-.68-.68Z"/>
        <path class="cls-31" d="M290.11,165.97c0-.38.31-.68.68-.68s.68.31.68.68c0,.38-.31.68-.68.68h0c-.38,0-.68-.31-.68-.68Z"/>
        <path class="cls-8" d="M283.22,168.9c0,.38-.31.68-.68.68s-.68-.31-.68-.68c0-.38.31-.68.68-.68h0c.38,0,.68.31.68.68Z"/>
        <path class="cls-8" d="M286.24,168.9c0,.38-.3.69-.68.69-.38,0-.69-.3-.69-.68,0-.38.3-.69.68-.69,0,0,0,0,.01,0,.38,0,.68.31.68.68Z"/>
        <path class="cls-8" d="M289.25,168.9c0,.38-.31.68-.68.68s-.68-.31-.68-.68c0-.38.31-.68.68-.68h0c.38,0,.68.31.68.68Z"/>
        <path class="cls-8" d="M292.27,168.9c0,.38-.31.68-.68.68s-.68-.31-.68-.68c0-.38.31-.68.68-.68h0c.38,0,.68.31.68.68Z"/>
        <path class="cls-8" d="M315.66,168.9c0,.38-.31.68-.68.68s-.68-.31-.68-.68c0-.38.31-.68.68-.68h0c.38,0,.68.31.68.68Z"/>
        <path class="cls-8" d="M318.73,168.9c0,.38-.31.68-.68.68s-.68-.31-.68-.68c0-.38.31-.68.68-.68h0c.38,0,.68.31.68.68Z"/>
        <path class="cls-8" d="M295.29,168.9c0,.38-.31.68-.68.68s-.68-.31-.68-.68c0-.38.31-.68.68-.68h0c.38,0,.68.31.68.68Z"/>
        <path class="cls-8" d="M310.11,168.9c0,.38-.3.69-.68.69-.38,0-.69-.3-.69-.68s.3-.69.68-.69c0,0,0,0,0,0,.38,0,.69.3.69.68,0,0,0,0,0,0Z"/>
        <path class="cls-32" d="M298.31,168.9c0,.38-.3.69-.68.69s-.69-.3-.69-.68.3-.69.68-.69c0,0,0,0,0,0,.38,0,.69.3.69.68,0,0,0,0,0,0Z"/>
        <path class="cls-32" d="M301.32,168.9c0,.38-.31.68-.68.68s-.68-.31-.68-.68c0-.38.31-.68.68-.68h0c.38,0,.68.31.68.68Z"/>
        <path class="cls-32" d="M307.44,168.9c0,.38-.31.68-.68.68s-.68-.31-.68-.68c0-.38.31-.68.68-.68h0c.38,0,.68.31.68.68Z"/>
        <path class="cls-32" d="M321.23,168.9c0,.38-.31.68-.68.68s-.68-.31-.68-.68c0-.38.31-.68.68-.68h0c.38,0,.68.31.68.68Z"/>
        <path class="cls-31" d="M304.36,168.9c0,.38-.31.68-.68.68s-.68-.31-.68-.68c0-.38.31-.68.68-.68h0c.38,0,.68.31.68.68Z"/>
        <path class="cls-31" d="M312.97,168.9c0,.38-.31.68-.68.68s-.68-.31-.68-.68c0-.38.31-.68.68-.68h0c.38,0,.68.31.68.68Z"/>
      </g>
      <g>
        <polygon class="cls-27" points="246.71 163.09 230.25 211.17 155.73 211.17 156.29 208.7 186.41 207.76 200.3 163.06 246.71 163.09"/>
        <path class="cls-10" d="M213.69,185.67c-.49,1.98.35,3.9,1.88,4.28s3.21-.86,3.67-2.83-.35-3.89-1.88-4.28c-1.53-.38-3.18.87-3.67,2.83Z"/>
      </g>
      <rect class="cls-9" x="284.14" y="214.8" width="6.34" height="149.42" transform="translate(574.61 579.02) rotate(180)"/>
      <g>
        <rect class="cls-9" x="79.95" y="214.8" width="6.34" height="148.97" transform="translate(166.24 578.56) rotate(180)"/>
        <rect class="cls-9" x="51.43" y="211.25" width="272.39" height="5.11" transform="translate(375.26 427.61) rotate(180)"/>
      </g>
      <path class="cls-8" d="M168.98,151.7c1.46.05,3.31.26,5.4.85,1.64.46,3.03,1.05,4.13,1.61-.07-.93-.15-1.86-.22-2.79"/>
    </g>
  </g>
</svg>