<?xml version="1.0" encoding="UTF-8"?>
<svg id="Layer_2" data-name="Layer 2" xmlns="http://www.w3.org/2000/svg" viewBox="0 0 193.08 248.32">
  <defs>
    <style>
      .cls-1 {
        fill: #143970;
      }

      .cls-2 {
        isolation: isolate;
      }

      .cls-2, .cls-3 {
        opacity: .3;
      }

      .cls-4 {
        fill: #263238;
      }

      .cls-5 {
        fill: #fff;
      }

      .cls-6 {
        fill: #ffbe9d;
      }

      .cls-7 {
        fill: #143b73;
      }

      .cls-8 {
        fill: #ae7461;
      }

      .cls-9 {
        fill: #f5c50c;
      }

      .cls-10 {
        fill: #143a72;
      }

      .cls-11 {
        fill: #ffc727;
      }

      .cls-12 {
        fill: #455a64;
      }

      .cls-13 {
        fill: #6f4439;
      }
    </style>
  </defs>
  <g id="Layer_1-2" data-name="Layer 1">
    <g>
      <g id="freepik--character-1--inject-249">
        <path class="cls-6" d="M40.83,135.14s-.04-.21-.15-.55c-.5-1.68-2.3-6.7-6.44-8.12-5.01-1.71-15.62-3.79-18.31-4.89-2.69-1.1-4.37-1.95-5.1-.6-.73,1.35.36,3.41,1.83,4.03,1.46.61,6.23,2.71,6.23,2.71l-2.56,7.43s13.8,5.1,15.87,7.32c1.24,1.36,1.84,3.18,1.65,5l8.87-7.23-1.89-5.1Z"/>
        <path class="cls-6" d="M.73,118.35s-.94.15-.33,1.11,5.93,7.12,5.93,7.12c0,0-.73,2.37,0,3.11s7.22,3.86,7.22,3.86c0,0,3.64,4.45,5.98,5.19s11.4,2.8,11.4,2.8l-1.86-8.66-6.8.3-3.14-2.67s1.54-3.04,1.87-2.96,3.6-.44,3.26-1.33-.73-1.78-3.13-1.46-6.1,3.78-6.1,3.78l-1.8-1.14,2.18-3.86s4.94-.96,3.8-4.45c0,0-5.13,1.11-6,1.7s-3.6,6.01-3.6,6.01l.2-4.89s2.73-2.82,2.26-4.59c-.47-1.78-1.73-1.7-1.73-1.7l-3.67,5.34-.15.91s-2.58-2.77-3.71-3.36c-.64-.36-1.41-.42-2.09-.15Z"/>
        <path class="cls-13" d="M30.92,141.65l-.34-.06-1-.2c-.89-.2-2.18-.5-3.82-.86-1.64-.36-3.69-.84-6.03-1.51-1.24-.45-2.36-1.17-3.28-2.11-1.07-.98-2.08-2.03-3.02-3.14l.04.04c-1.54-.73-3.17-1.54-4.86-2.42-.42-.22-.84-.45-1.27-.69l-.65-.41c-.24-.13-.44-.31-.61-.52-.24-.49-.33-1.04-.23-1.57.05-.52.15-1.04.31-1.54v.15l-3.34-3.95-1.75-2.1c-.28-.36-.58-.73-.85-1.13-.16-.23-.23-.51-.2-.79.1-.3.36-.52.67-.55h-.05c.59-.22,1.24-.22,1.83,0,.57.24,1.08.57,1.53,1,.92.79,1.78,1.67,2.64,2.57l-.31.09c.04-.28.09-.6.15-.92v-.07l3.74-5.34.05-.08h.09c.73.04,1.38.49,1.67,1.16.16.31.27.65.31,1,.03.35-.02.71-.13,1.05-.5,1.28-1.26,2.45-2.23,3.42l.05-.12v.62c-.06,1.46-.12,2.88-.17,4.27l-.36-.09c.52-1.02,1.06-2.02,1.61-3.01.53-1,1.14-1.96,1.83-2.85.22-.21.48-.37.77-.47.26-.1.53-.19.79-.28.53-.16,1.06-.31,1.59-.44,1.06-.27,2.1-.52,3.15-.73l.17-.04.04.16c.19.58.21,1.19.07,1.78-.18.57-.52,1.07-.98,1.46-.88.71-1.92,1.2-3.04,1.42l.12-.08c-.73,1.31-1.46,2.6-2.18,3.85l-.06-.23,1.77,1.12h-.2c.96-.89,2-1.7,3.09-2.42,1.02-.77,2.21-1.25,3.47-1.42.61-.07,1.24-.02,1.83.16.3.1.58.28.79.52.2.25.31.56.32.88.02.32-.1.64-.33.87-.21.21-.45.38-.73.49-.52.2-1.07.32-1.62.36l.09-.04-2.58,2.82v-.17l3.12,2.68h-.12c.8-.36,1.63-.65,2.48-.88.77-.19,1.55-.32,2.34-.37,1.25-.07,2.5.06,3.71.39.75.2,1.48.46,2.18.77l.55.25.17.09c-.06-.02-.13-.04-.19-.07l-.55-.23c-.71-.29-1.44-.54-2.18-.73-1.19-.3-2.42-.42-3.64-.33-.78.06-1.55.19-2.3.39-.85.24-1.67.54-2.48.9h-.07l-.05-.04-3.15-2.64-.1-.09.09-.09,2.56-2.83v-.04h.06c.53-.04,1.04-.16,1.54-.35.48-.19.94-.56.89-1.08-.02-.54-.39-1-.91-1.13-.56-.16-1.14-.21-1.71-.14-1.21.17-2.35.64-3.32,1.38-1.07.72-2.09,1.53-3.04,2.41l-.09.09-.11-.07-1.77-1.11-.14-.09.08-.14,2.18-3.86v-.07h.08c1.07-.21,2.08-.68,2.93-1.38.4-.34.7-.79.87-1.3.12-.52.1-1.07-.07-1.57l.21.12c-1.03.23-2.08.48-3.12.73-.52.14-1.05.28-1.57.44-.51.11-.98.33-1.4.64-.67.88-1.26,1.81-1.78,2.78-.55.98-1.08,1.99-1.6,3l-.39.77.04-.86c.06-1.41.12-2.84.17-4.27v-.69l.05-.05c.93-.93,1.65-2.05,2.13-3.28.1-.29.14-.59.12-.9-.04-.3-.13-.59-.27-.86-.23-.53-.73-.9-1.31-.95l.15-.08-3.74,5.34.04-.07-.11.94-.06.36-.25-.27c-.84-.9-1.71-1.76-2.6-2.54-.42-.4-.92-.72-1.46-.94-.5-.18-1.05-.18-1.55,0h-.05c-.17.04-.35.15-.37.28-.02.19.03.38.15.54.24.36.55.73.82,1.08l1.73,2.12,3.36,3.95.06.07v.09c-.14.48-.24.96-.3,1.46-.08.47-.02.95.17,1.38.34.32.73.59,1.15.8.42.25.84.47,1.27.73,1.68.9,3.31,1.7,4.83,2.45h0c.92,1.11,1.92,2.17,2.98,3.15.9.94,2,1.66,3.22,2.12,2.32.68,4.37,1.15,6,1.57l3.8.92.99.25.33.09Z"/>
        <path class="cls-13" d="M16.91,135.1c-1.11-.88-1.95-2.05-2.42-3.38-.11-.26-.21-.52-.31-.78-.11-.27-.15-.56-.09-.85.13-.45.36-.86.66-1.22.46-.62.92-.85.95-.78-.27.29-.51.6-.73.93-.24.34-.42.72-.54,1.11-.03.23,0,.46.09.67.1.23.22.52.31.77.57,1.24,1.27,2.41,2.07,3.52Z"/>
        <path class="cls-13" d="M10.6,130.97s-.31,0-.73-.21c-1.09-.66-1.43-2.08-.77-3.17.01-.02.03-.05.04-.07.26-.39.52-.52.55-.5s-.15.25-.32.63c-.23.48-.3,1.03-.19,1.56.13.52.42.99.83,1.33.31.27.6.37.58.43Z"/>
        <path class="cls-13" d="M6.52,126.72c-.22-.95-.28-1.94-.17-2.91-.02-.97.08-1.94.31-2.88.15.96.17,1.94.07,2.91.02.96-.05,1.93-.21,2.88Z"/>
        <path class="cls-5" d="M75.19,248.04s69.17.3,70.62,0-8.22-36.68-8.22-36.68l-56.37-2.01-6.04,38.69Z"/>
        <path class="cls-4" d="M76.31,135.3l4.48-31.18c2.02-24.33,1.57-53.88,5.18-61.6,6.69-14.25,26.9-14.56,26.9-14.56,26.85-.56,30.58,20.23,32.34,39.09.29,3.2,1.35,8.9,2.74,15.52,3.27,13.79,7.54,27.99,16.96,37.72,3.61,3.82,5.88,8.71,6.48,13.94.6,5.13-2.42,11.14-7.55,11.73,4.49,4.76,4.28,12.27-.49,16.77-.7.66-1.49,1.24-2.33,1.71-4.42,2.48-9.87,1.88-14.86,1.04-4.99-.84-10.19-1.94-13.94-5.27-3.74-3.33-5.55-8.37-6.84-13.24-1.55-5.88-2.64-11.87-3.24-17.92l-45.85,6.25Z"/>
        <path class="cls-6" d="M108.94,35.32l1.75-1.51,17.71,8.22c2.6.3,4.56,2.51,4.52,5.13l-5.69,60.39c-.18,4,1.4,5.94-1.18,9l-17.67,20.39c-6.17,7.35-4.79-9.46-8.95-18.11-.29-.6,1.21-2.72,1.14-3.15-.09-.44-.16-.88-.2-1.33-.3-4.77-.12-8.88-.12-8.88-.06-5.22-.06-7.36-.06-7.32s-11.01-1.83-13.29-16.2c-1.13-7.14-.36-16.86.55-26.41,1.25-13.24,10.84-20.79,21.49-20.23Z"/>
        <path class="cls-4" d="M108.46,65.85c0,1,.78,1.82,1.78,1.86.97.08,1.82-.65,1.9-1.62,0-.01,0-.03,0-.04.01-1-.78-1.82-1.78-1.86-.97-.08-1.82.65-1.9,1.62,0,.01,0,.03,0,.04Z"/>
        <path class="cls-4" d="M90.2,64.89c-.01,1,.78,1.82,1.78,1.86.97.08,1.82-.65,1.9-1.62,0-.01,0-.03,0-.04,0-1-.78-1.82-1.78-1.86-.97-.08-1.82.65-1.9,1.62,0,.01,0,.03,0,.04Z"/>
        <path class="cls-4" d="M89.14,59.42c.23.24,1.63-.79,3.64-.79s3.44,1,3.64.73c.11-.11-.12-.55-.73-1-.85-.59-1.87-.91-2.91-.9-1.03,0-2.04.32-2.88.92-.67.5-.87.93-.76,1.04Z"/>
        <path class="cls-4" d="M109.21,60.63c.25.22,1.54-.95,3.51-1.15,1.97-.2,3.52.64,3.71.38.09-.12-.18-.52-.86-.92-.92-.5-1.96-.71-3-.6-1.03.1-1.99.53-2.76,1.22-.56.53-.72.98-.6,1.08Z"/>
        <path class="cls-4" d="M101.57,77.6c0-.12-1.22-.33-3.23-.58-.5-.06-.98-.15-1.07-.5-.04-.52.08-1.05.34-1.5.47-1.22.98-2.51,1.5-3.85,2.08-5.49,3.59-10,3.36-10.08s-2.09,4.3-4.17,9.79l-1.46,3.88c-.32.61-.41,1.31-.26,1.99.15.36.46.62.83.73.28.08.57.12.86.12,2.03.13,3.28.13,3.29.01Z"/>
        <path class="cls-13" d="M100.18,98.14c6.76.12,13.42-1.65,19.24-5.1,0,0-4.84,9.94-19.22,8.59l-.02-3.49Z"/>
        <path class="cls-4" d="M107.7,52.83c.25.52,2.18.07,4.54.11,2.35.04,4.28.48,4.54,0,.12-.25-.26-.73-1.07-1.16-1.07-.55-2.24-.84-3.44-.85-1.2-.02-2.38.24-3.46.77-.82.43-1.21.89-1.1,1.14Z"/>
        <path class="cls-4" d="M89.86,50.93c.34.44,1.71,0,3.36-.04,1.65-.04,3.03.31,3.35-.17.15-.23-.08-.68-.68-1.11-1.67-1.04-3.81-.98-5.41.17-.58.47-.79.92-.61,1.15Z"/>
        <path class="cls-4" d="M131.3,72.27s-10.29,2.64-14.76-22.65c-1.53-8.65-9.11-15.97-9.11-15.97l3.27-.81s19.66,6.64,20.01,6.91,4.51,10.59,4.51,10.59l-3.93,21.94Z"/>
        <path class="cls-8" d="M128.84,71.21c0-1.06,1.25-3.59,2.3-3.75,2.82-.44,7.91-.21,7.95,6.95.06,9.8-9.79,7.83-9.81,7.56s-.45-7.06-.44-10.76Z"/>
        <path class="cls-13" d="M132.26,78.24s.17.12.46.25c.41.16.87.16,1.27,0,1.03-.39,1.9-2.03,1.94-3.8.02-.84-.15-1.67-.5-2.44-.19-.62-.67-1.11-1.29-1.3-.41-.11-.83.09-1,.47-.13.28-.07.47-.12.49s-.21-.16-.13-.57c.05-.24.19-.46.38-.62.27-.2.61-.29.95-.25.82.16,1.5.73,1.79,1.51.42.84.63,1.78.6,2.72-.05,1.97-1.05,3.83-2.46,4.24-.53.16-1.11.06-1.57-.25-.31-.23-.36-.44-.32-.47Z"/>
        <path class="cls-4" d="M124.63,67.14c-.49-.09-.98-.21-1.46-.36-1.28-.46-2.43-1.21-3.38-2.18-.65-.66-1.22-1.4-1.7-2.18-.54-.93-.98-1.9-1.33-2.91-.72-2.37-1.31-4.77-1.75-7.21-.51-2.43-1.14-4.84-1.89-7.21-.61-1.94-1.37-3.83-2.26-5.65-.61-1.23-1.3-2.41-2.07-3.55-.27-.4-.5-.73-.66-.9-.07-.11-.16-.21-.25-.3.06.12.13.23.2.33.14.21.36.52.62.92.73,1.15,1.39,2.34,1.98,3.57.86,1.83,1.59,3.71,2.18,5.64.69,2.18,1.3,4.61,1.86,7.19.44,2.45,1.03,4.86,1.78,7.24.36,1.03.82,2.02,1.38,2.96.49.81,1.09,1.56,1.76,2.24.96,1,2.16,1.75,3.47,2.18.49.13,1,.19,1.51.18Z"/>
        <path class="cls-5" d="M147.08,214.1c-8.96,3.91-18.9,4.99-28.5,3.1-6.86-1.38-10.19.23-17.17.91-4.13.4-11.5-2.45-15.65-2.57-4.11-.13-7.97-2.03-10.58-5.21l8.39-81.7,8.16-21.65,8.45-1.07s-.66,9.04,12.3,9.84c12.95.8,14.56-9.54,14.56-9.54,0,0,24.71,4.83,24.5,5.58s-14.74,82.42-14.74,82.42l10.28,19.89Z"/>
        <path class="cls-9" d="M130.04,103.2c-.41,1.17-6.44,65.45-7.06,82.41-.61,16.96,5.74,62.54,5.74,62.54l35.68-.25-14.52-53.08,6.49-82.8-20.75-5.1-5.58-3.73Z"/>
        <path class="cls-2" d="M125.75,169.97s-.94,15.37,4.37,22.08c5.31,6.71,10.35,7.9,15.14,8.3,2.02.16,4.04-.15,5.91-.92l-2.57-9.71-22.85-19.75Z"/>
        <path class="cls-9" d="M154.18,111.5s12.49,3.86,14.07,19.14c1.29,12.44-6.55,51.07-9.36,56.54-4.09,8.01-10.19,13.16-22.7,6.26-4.37-2.42-9.08-11-10.51-24.03-1.87-17.03-2.69-37.18-2.69-37.18l14.89-2.34,7.43,20.87,8.87-39.26Z"/>
        <path class="cls-9" d="M147.15,196.59h-1.4c-.57.01-1.14-.02-1.71-.11l-1.09-.16c-.2-.02-.4-.05-.6-.09l-.62-.17-1.35-.38c-.46-.17-.93-.39-1.46-.59-.24-.12-.51-.2-.73-.34l-.73-.44-.78-.45c-.25-.17-.5-.36-.73-.55-2.28-1.73-4.17-3.92-5.56-6.43-1.69-3.02-2.92-6.29-3.64-9.68-.77-3.89-1.29-7.81-1.57-11.77-.73-8.32-1.33-17.47-1.86-27.11-.11-2.11-.22-4.2-.33-6.26v-.17h.17l20.39-2.91h.16v.17c.61,3.1,1.2,6.07,1.75,8.92.53,2.85,1.16,5.55,1.76,8.07,1.22,5.1,2.35,9.52,3.12,13.24.88,3.91,1.47,7.89,1.75,11.89,0-.07,0-.14,0-.2,0-.15-.04-.34-.08-.6-.06-.53-.15-1.32-.29-2.34-.28-2.04-.73-5-1.56-8.74-.83-3.74-1.95-8.15-3.2-13.21-.62-2.53-1.25-5.23-1.79-8.07l-1.78-8.93.2.14-20.39,2.91.16-.2c.11,2.05.22,4.14.33,6.25.53,9.62,1.11,18.78,1.83,27.1.27,3.94.78,7.85,1.53,11.73.7,3.36,1.89,6.6,3.55,9.6,1.36,2.49,3.22,4.67,5.46,6.4.23.19.48.38.73.55l.73.46.73.44c.24.13.48.24.73.34.49.21.95.43,1.41.6l1.34.39.61.18c.2.04.41.07.6.1l1.08.17c.57.1,1.14.15,1.71.15l1.06.05.38.04Z"/>
        <path class="cls-4" d="M150.98,122.85c.1,0-.84,4.63-2.1,10.29s-2.36,10.24-2.46,10.19.83-4.62,2.09-10.29c1.26-5.66,2.37-10.19,2.47-10.19Z"/>
        <path class="cls-2" d="M71.03,248.32l17.71-.28s13.8-60.16,8.83-85.18"/>
        <path class="cls-9" d="M81.23,107.85s-8.45,1.31-13.99,10.19c-5.1,8.08-6.62,39.17-6.62,39.17l-15.53-22.94-15.93,9.22s19.75,42.23,21.79,46.65c5.26,11.39,15.68,9.58,23.6,7.17,7.91-2.41,2.5-62.92,2.5-62.92l4.18-26.54Z"/>
        <path class="cls-9" d="M77.16,194.13c-.2.04-13.17,53.4-13.17,53.4,0,1.34,17.71.58,20.29.51,0,0,8.74-33.32,11.21-53.4,2.47-20.09,4.73-92.36,4.73-92.36l-6.41,4.09-12.58,1.46-8.11,26.15c-5.4,17.39-4.78,36.09,1.74,53.08l2.3,7.07Z"/>
        <path class="cls-4" d="M95.71,180.29s-.05-.05-.12-.16l-.31-.48c-.24-.44-.68-1.05-1.09-1.91-1.25-2.41-2.25-4.94-2.97-7.56-1.08-3.86-1.79-7.82-2.14-11.81-.43-4.88-.61-9.79-.54-14.69,0-4.91.42-9.81,1.26-14.64.73-4.46,1.57-8.45,2.18-11.79.62-3.35,1.1-6.08,1.37-7.97.15-.95.23-1.68.31-2.18,0-.23.07-.42.09-.57s0-.19,0-.19c0,.07,0,.13,0,.2,0,.15,0,.33-.05.57-.05.5-.1,1.24-.23,2.18-.23,1.9-.65,4.63-1.25,8.01-.6,3.38-1.41,7.35-2.11,11.8-.82,4.81-1.23,9.68-1.23,14.56-.08,4.89.09,9.78.51,14.65.33,3.98,1.02,7.92,2.05,11.77.7,2.6,1.65,5.12,2.84,7.54.39.87.81,1.46,1.03,1.94.11.2.2.37.27.51.06.07.1.15.14.23Z"/>
        <path class="cls-4" d="M73.97,206.71c0-.08,0-.16,0-.23l.15-.68.61-2.59c.56-2.27,1.35-5.5,2.33-9.46v.08c-1.13-3.25-2.37-7.09-3.57-11.36-1.31-4.59-2.37-9.26-3.17-13.96-.48-2.63-.72-5.29-.73-7.97,0-2.58.23-5.1.49-7.43.56-4.71,1.33-8.91,2.02-12.42.69-3.51,1.29-6.32,1.7-8.31.2-.96.34-1.72.45-2.26.05-.24.09-.43.12-.58,0-.07.03-.14.05-.2,0,.07,0,.14,0,.2,0,.16-.05.36-.08.6-.08.52-.21,1.29-.39,2.27l-1.58,8.34c-.66,3.52-1.4,7.71-1.93,12.38-.25,2.35-.44,4.83-.47,7.39.01,2.65.26,5.3.73,7.91.8,4.69,1.85,9.34,3.14,13.93,1.18,4.26,2.4,8.1,3.49,11.36v.09l-2.45,9.46c-.29,1.09-.52,1.95-.68,2.57-.08.28-.14.5-.19.66,0,.08-.02.15-.05.23Z"/>
        <path class="cls-4" d="M69.41,178.95c-.09-.3-.15-.62-.17-.93-.08-.6-.23-1.46-.43-2.55-1.08-5.58-3.31-10.88-6.55-15.54-.62-.9-1.14-1.6-1.52-2.08-.21-.24-.39-.5-.55-.77.25.2.47.43.67.68.41.45.97,1.14,1.62,2.02,3.4,4.62,5.66,9.99,6.6,15.65.17,1.08.28,1.96.31,2.57.04.32.05.64.03.95Z"/>
        <path class="cls-12" d="M132.18,59.63c0,.32-11.65,35.73-11.65,35.73l7,11.72,2.18-.53,9.8-32.47s-4.68-14.15-5.21-14.47-2.13.02-2.13.02Z"/>
        <path class="cls-6" d="M139.04,115.22s.86-7.44,2.18-10.92c1.33-3.48,1.04-5.65,1.04-7.7,0-1.61-1.22-4.51-1.22-4.51,0,0-3.17-11.16-3.57-12.95-.39-1.79.15-5.23-1.81-5.15-1.95.08-2.42,1.46-2.42,4.14s.55,3.59.55,3.59c0,0-3.52-2.26-5.47-2.1-1.95.16-6.09,1.56-6.09,1.56,0,0-1.46,3.19,4.3,2.42,1.17-.16,3.12,1.01,3.12,1.01l-6.71.63-3.36,4.22s1.25,2.42,4.91-.47l4.92-.23,2.5,5.31-4.69-2.78-6.25,1.19-2.18,4.19s-.33,1.51,1.55.96c1.22-.44,2.24-1.31,2.87-2.45l3.38.5,2.5,3.28s-2.26,10.38-1.95,13.97c.22,2.3.63,4.57,1.25,6.79l.37,11.61,13.11-1.94-2.83-14.14Z"/>
        <path class="cls-13" d="M139.04,115.22c.03.08.05.15.07.23l.15.73c.13.63.33,1.54.58,2.74.5,2.41,1.22,5.93,2.18,10.43v.1h-.1l-13.11,1.98h-.15v-.15c-.12-3.5-.25-7.43-.39-11.61v.04c-.44-1.58-.78-3.18-1.02-4.81-.14-.85-.22-1.7-.26-2.56-.01-.88.03-1.75.13-2.62.37-3.52,1.05-7.14,1.83-10.86l.04.15-2.5-3.28.12.07-3.38-.5.19-.09c-.51.91-1.27,1.67-2.18,2.18-.48.28-1.03.44-1.59.47-.33.02-.64-.13-.84-.39-.17-.27-.23-.6-.16-.92h0l2.18-4.16.04-.08h.09l6.25-1.17h.13l4.69,2.78-.27.24-2.5-5.31.18.11h-.09l-4.83.23.11-.04c-.74.62-1.6,1.09-2.53,1.35-.48.14-.98.14-1.46,0-.49-.16-.91-.49-1.18-.93l-.07-.11.08-.09,3.36-4.22.04-.07h.08l6.71-.62-.07.34c-.68-.41-1.42-.72-2.18-.92-.18-.04-.37-.07-.55-.08-.19,0-.38,0-.58,0-.4.05-.8.08-1.21.09-.83.06-1.65-.11-2.39-.5-.38-.23-.64-.61-.73-1.04-.08-.42-.02-.86.15-1.25v-.07h.07c1.01-.33,2.02-.65,3.02-.92,1-.3,2.02-.51,3.05-.64.53-.03,1.06.04,1.57.2.5.14.98.32,1.46.52.91.41,1.79.88,2.63,1.41l-.23.23c-.28-.65-.44-1.35-.49-2.05-.06-.68-.09-1.35-.07-2.03,0-.67.08-1.35.23-2,.14-.69.57-1.29,1.19-1.62.47-.22.99-.3,1.5-.23.18.04.34.11.49.21.28.21.48.5.58.84.11.3.18.62.23.94.05,1.22.19,2.44.41,3.64,1.25,4.59,2.4,8.82,3.44,12.6h0c.34.84.64,1.71.88,2.58.12.42.21.85.28,1.29.05.42.07.85.06,1.27.09,1.57-.02,3.14-.33,4.68-.3,1.46-.89,2.69-1.22,3.87-.33,1.19-.58,2.29-.78,3.29-.39,1.99-.63,3.53-.79,4.58-.07.51-.13.9-.17,1.19s-.07.4-.07.4c0,0,0-.14.04-.41s.08-.68.14-1.19c.14-1.05.35-2.6.73-4.59.19-1,.42-2.1.73-3.31s.9-2.45,1.19-3.87c.3-1.53.4-3.09.3-4.64,0-.42-.02-.84-.07-1.25-.07-.42-.16-.85-.28-1.26-.25-.87-.54-1.72-.88-2.55h0l-3.49-12.6c-.22-1.2-.36-2.42-.42-3.64-.03-.59-.27-1.15-.68-1.57-.24-.16-.52-.22-.8-.17-.3.02-.6.09-.87.23-.55.3-.92.84-1.02,1.46-.15.63-.22,1.28-.22,1.92-.02.67,0,1.33.07,1.99.05.66.21,1.3.45,1.91l.25.52-.49-.3c-.83-.52-1.69-.98-2.58-1.38-.88-.44-1.85-.68-2.83-.69-1.01.14-2.01.35-2.99.63-1,.28-2,.58-3,.92l.1-.09c-.13.33-.17.69-.12,1.03.07.34.28.63.58.81.67.34,1.43.5,2.18.44.39,0,.78-.04,1.17-.08.2-.03.41-.05.62-.04.21.01.43.04.63.09.8.21,1.57.54,2.28.96l.5.29-.58.05-6.71.63.13-.07-3.36,4.22v-.2c.23.35.57.6.96.73.42.12.86.12,1.28,0,.88-.26,1.69-.7,2.39-1.29h.11l4.83-.23h.22l.05.12,2.5,5.31.26.56-.53-.31c-1.61-.96-3.2-1.91-4.69-2.78h.13l-6.25,1.16.13-.09-2.18,4.16v-.05c-.05.21-.01.44.09.63.14.16.34.25.55.23.49-.02.98-.17,1.41-.42.85-.49,1.55-1.19,2.02-2.05l.07-.11h.12l3.37.5h.07l.04.06,2.5,3.28.04.07v.08c-.78,3.71-1.46,7.33-1.84,10.82-.1.86-.15,1.72-.14,2.58.05.81.14,1.62.28,2.42.24,1.61.57,3.2,1,4.76v.04c.12,4.19.25,8.1.35,11.61l-.15-.12,13.11-1.91-.08.12c-.89-4.51-1.58-8.05-2.05-10.46-.23-1.19-.41-2.11-.52-2.74-.06-.31-.1-.53-.13-.73s-.01-.19-.01-.19Z"/>
        <path class="cls-13" d="M128.79,84.73c.17-.07.34-.12.52-.12.48-.07.97-.1,1.46-.08.76.02,1.51.27,2.12.73.34.3.61.66.82,1.06.23.39.43.81.65,1.22.43.77.91,1.5,1.46,2.18.45.58.86,1.18,1.24,1.81.28.42.46.9.52,1.4,0,.38-.17.55-.17.52.03-.17.03-.34,0-.51-.12-.46-.33-.89-.61-1.27-.33-.51-.77-1.09-1.28-1.73-.58-.68-1.1-1.41-1.54-2.18-.34-.79-.79-1.53-1.35-2.18-.55-.43-1.22-.68-1.92-.73-1.13-.14-1.9-.04-1.9-.11Z"/>
        <path class="cls-13" d="M138.77,87.41c-.54-1.18-1.23-2.29-2.05-3.3-.63-.67-1.37-1.24-2.18-1.67-.63-.39-.91-.76-.87-.79s.36.25,1,.57c.31.16.73.34,1.11.6.45.28.85.63,1.19,1.03.63.72,1.14,1.53,1.5,2.41.19.35.3.74.3,1.14Z"/>
        <path class="cls-13" d="M135.47,99.56c.05-.24.08-.48.08-.73-.08-.63-.24-1.26-.48-1.85-.4-.83-.86-1.62-1.38-2.37.82.52,1.43,1.31,1.73,2.23.26.63.39,1.31.4,1.99-.04.52-.32.79-.35.74Z"/>
        <g class="cls-3">
          <path d="M88.86,154.36c-.46,4.37-.92,8.83-.25,13.19s2.62,8.7,6.14,11.34c-3.24-7.28-5.91-15.45-5.69-23.65"/>
        </g>
        <path class="cls-4" d="M104.57,82.59c-.24-.17-1.27,1.45-3.4,1.73s-3.74-1.01-3.91-.79c-.07.09.19.56.91,1.05.95.62,2.08.88,3.2.75,1.06-.13,2.04-.66,2.72-1.48.55-.65.59-1.19.47-1.25Z"/>
      </g>
      <g>
        <circle class="cls-1" cx="157.61" cy="32.84" r="5.94"/>
        <g id="freepik--2dqxsktif--inject-71">
          <path class="cls-5" d="M155.28,29.73s.02,0,.02,0c.18.01.34.09.47.21.11.11.19.26.21.42.05.26-.05.52-.25.69-.1.09-.22.15-.36.17-.07.01-.14.02-.21.01-.31-.03-.56-.24-.65-.53-.02-.05-.02-.1-.03-.16,0-.01,0-.02-.01-.03v-.07s.01-.02.01-.03,0-.04,0-.06c.02-.14.08-.28.18-.39.13-.14.31-.23.5-.24,0,0,.02,0,.02,0h.08Z"/>
          <path class="cls-5" d="M157.95,32.35l.02-.02c.19-.29.48-.5.82-.58.11-.03.22-.04.34-.05.08,0,.15,0,.23,0,.22.01.44.06.64.16.2.1.37.26.48.45.07.13.12.26.16.4.03.1.05.19.06.29,0,.05,0,.1.01.15,0,.09.01.18.01.27h0v2.46s0,.05-.05.05h-1.18c-.06,0-.06-.02-.06-.06v-2.16c0-.14-.02-.28-.05-.41-.02-.08-.06-.15-.1-.22-.08-.11-.19-.19-.33-.22-.05-.01-.1-.02-.16-.02h-.17c-.23.02-.44.16-.53.38-.04.1-.07.2-.08.31-.02.11-.02.23-.02.34v1.99s0,.03,0,.05c0,.02-.01.03-.03.03h-1.2c-.05,0-.06-.02-.06-.06v-4.01s0-.02,0-.03c0-.03.01-.04.04-.04h1.16s.04.01.04.04v.48s0,.02,0,.03h.01Z"/>
          <path class="cls-5" d="M154.6,33.87v-2.02s0-.02,0-.03c0-.01.01-.02.02-.02,0,0,0,0,0,0h1.22s.06.01.06.06v4.02s0,.03,0,.04c0,.02-.01.03-.03.03h-1.21s-.06-.01-.06-.06v-2.02h0Z"/>
        </g>
      </g>
      <g>
        <circle class="cls-10" cx="180.2" cy="49.11" r="8.34"/>
        <path class="cls-5" d="M175.27,54.05c.22-.77.4-1.49.62-2.2.07-.21.05-.44-.06-.64-1.49-3.01.49-6.65,3.83-7.06,3.08-.38,5.68,1.94,5.62,5-.05,2.51-2.18,4.67-4.7,4.78-.85.04-1.69-.12-2.46-.47-.15-.06-.32-.07-.47-.04-.77.18-1.54.39-2.37.61ZM176.47,52.88c.49-.13.9-.25,1.33-.34.15-.03.3,0,.44.06.62.33,1.3.51,2,.52,2.56.04,4.62-2.33,4.13-4.82-.34-1.72-1.39-2.85-3.1-3.24-1.75-.4-3.25.16-4.31,1.61-1.04,1.42-1.06,2.94-.22,4.49.07.15.1.32.06.49-.08.39-.2.78-.32,1.23h0Z"/>
        <path class="cls-5" d="M177.95,46.88c.36-.49.85-.39,1.1.15.1.21.12.28.22.53.15.37.11.61-.15.84-.19.18-.18.32-.04.52.4.6.96,1.08,1.62,1.37.16.11.38.06.49-.1,0,0,0,0,0,0,.47-.56.48-.55,1.14-.24l.23.11c.51.24.59.7.18,1.11-.39.39-.97.53-1.5.36-1.43-.36-2.46-1.26-3.25-2.47-.26-.35-.4-.77-.41-1.21.02-.35.15-.68.36-.96Z"/>
      </g>
      <g>
        <path class="cls-11" d="M165.47,62.81c-1.28-.69-2.81-.75-4.14-.16-.66.29-1.25.73-1.71,1.28-.46.55-.8,1.21-.98,1.91-.36,1.43-.03,2.95.89,4.1l-.02-.08-.55,2.28-.04.17.16-.07,2.15-1h-.06c.79.38,1.67.54,2.55.45.22-.02.43-.06.64-.12,1.06-.26,2.01-.88,2.66-1.76.13-.17.25-.35.36-.54.1-.19.19-.39.27-.59.87-2.23-.07-4.76-2.19-5.88h0Z"/>
        <path class="cls-5" d="M162.66,64.24c.5-.17.8.14.72.65-.03.2-.05.26-.1.49-.08.33-.22.49-.53.53-.22.03-.29.14-.29.35-.02.63.15,1.25.48,1.79.06.16.24.23.4.17,0,0,0,0,0,0,.61-.17.62-.16.94.39l.11.19c.24.43.07.79-.42.88-.47.08-.96-.1-1.25-.49-.84-.97-1.13-2.12-1.09-3.38-.01-.38.1-.75.31-1.07.19-.24.44-.41.73-.51Z"/>
      </g>
      <g>
        <circle class="cls-7" cx="179.63" cy="13.45" r="13.45"/>
        <g>
          <rect class="cls-9" x="174.07" y="4.81" width="11.79" height="17.49" transform="translate(145.1 190.62) rotate(-83.17)"/>
          <path class="cls-4" d="M187.94,20.45h0l-17.37-2.08h0l1.4-11.71h0l17.37,2.08h0l-1.4,11.71ZM170.59,18.36l17.35,2.08,1.4-11.69-17.35-2.08-1.4,11.69Z"/>
          <path class="cls-4" d="M189.38,8.89c-.06.05-.11.1-.18.14l-.54.36-1.98,1.32-6.59,4.32-.05.04-.05-.05-.11-.11-5.58-5.71-1.68-1.74-.45-.48c-.06-.05-.11-.11-.15-.17.06.05.12.1.17.15l.47.46,1.7,1.7c1.45,1.46,3.43,3.46,5.62,5.67l.11.11h-.1s6.62-4.3,6.62-4.3l2.01-1.28.55-.34c.06-.04.13-.07.2-.1Z"/>
          <path class="cls-4" d="M170.62,18.51s1.47-1.48,3.35-3.23c1.88-1.75,3.42-3.15,3.45-3.12s-1.47,1.48-3.35,3.23c-1.88,1.76-3.42,3.15-3.45,3.12Z"/>
          <path class="cls-4" d="M183.21,12.7s1.14,1.72,2.45,3.9c1.32,2.18,2.36,3.96,2.32,3.98s-1.14-1.72-2.45-3.9c-1.32-2.18-2.36-3.95-2.32-3.98Z"/>
        </g>
      </g>
    </g>
  </g>
</svg>