<?xml version="1.0" encoding="UTF-8"?>
<svg id="Layer_2" data-name="Layer 2" xmlns="http://www.w3.org/2000/svg" viewBox="0 0 138.48 36.66">
  <defs>
    <style>
      .cls-1 {
        fill: #fff;
      }

      .cls-2 {
        fill: #f9c90c;
      }
    </style>
  </defs>
  <g id="Layer_1-2" data-name="Layer 1">
    <g>
      <g>
        <path class="cls-1" d="M118.9,35.69c-6.77,0-12.28-5.51-12.28-12.28s5.51-12.28,12.28-12.28c4.84,0,9.24,2.86,11.21,7.28.5,1.11,0,2.42-1.12,2.91-1.11.5-2.42,0-2.91-1.12-1.26-2.83-4.08-4.67-7.18-4.67-4.34,0-7.86,3.53-7.86,7.86s3.53,7.86,7.86,7.86c3.1,0,5.92-1.83,7.18-4.66.5-1.11,1.8-1.61,2.91-1.12,1.11.5,1.61,1.8,1.12,2.91-1.97,4.42-6.37,7.28-11.21,7.28Z"/>
        <g>
          <path class="cls-1" d="M108.83,25.4c-.08,0-.16,0-.25-.01-1.21-.13-2.08-1.23-1.95-2.44l2.14-19.28c.13-1.21,1.21-2.09,2.44-1.95,1.21.13,2.08,1.23,1.95,2.44l-2.14,19.28c-.13,1.13-1.08,1.96-2.19,1.96Z"/>
          <path class="cls-1" d="M115.29,16.01c-.61,0-1.23-.25-1.66-.75-.8-.92-.71-2.31.21-3.11l11.16-9.76c.92-.8,2.31-.71,3.11.21.8.92.71,2.31-.21,3.11l-11.16,9.76c-.42.37-.94.55-1.45.55Z"/>
          <path class="cls-1" d="M110.97,19.23c-.37,0-.75-.09-1.1-.29-1.06-.61-1.42-1.96-.81-3.01l8.52-14.82c.61-1.06,1.95-1.42,3.01-.81,1.06.61,1.42,1.96.81,3.01l-8.52,14.82c-.41.71-1.15,1.11-1.92,1.11Z"/>
        </g>
        <path class="cls-2" d="M118.84,21.55c1.03,0,1.86.83,1.86,1.86s-.83,1.86-1.86,1.86-1.86-.83-1.86-1.86.83-1.86,1.86-1.86M118.84,18.4c-2.77,0-5.01,2.24-5.01,5.01s2.24,5.01,5.01,5.01,5.01-2.24,5.01-5.01-2.24-5.01-5.01-5.01h0Z"/>
        <path class="cls-2" d="M137.53,24.36h-13.8c-.52,0-.95-.42-.95-.95s.42-.95.95-.95h13.8c.52,0,.95.42.95.95s-.42.95-.95.95Z"/>
        <g>
          <path class="cls-2" d="M133.4,27.19c-.35,0-.63-.28-.63-.63v-3.03c0-.35.28-.63.63-.63s.63.28.63.63v3.03c0,.35-.28.63-.63.63Z"/>
          <path class="cls-2" d="M135.99,27.19c-.35,0-.63-.28-.63-.63v-3.03c0-.35.28-.63.63-.63s.63.28.63.63v3.03c0,.35-.28.63-.63.63Z"/>
        </g>
      </g>
      <g>
        <path class="cls-2" d="M2.07,21.11H0v-3.1h2.07v-2.3l4.13-1.94v4.24h2.92v3.1h-2.92v5.11c0,.65.11,1.12.33,1.43.22.31.58.46,1.07.46.64,0,1.23-.21,1.75-.63l-.23,3.37c-.37.19-.78.33-1.24.42-.46.09-.91.13-1.35.13-1.52,0-2.64-.38-3.36-1.14-.73-.76-1.09-1.9-1.09-3.42v-5.74Z"/>
        <path class="cls-2" d="M11.12,12.68h4.13v6.83c.35-.58.82-1.03,1.39-1.34s1.22-.47,1.94-.47c1.22,0,2.21.43,2.95,1.3.74.86,1.11,2.02,1.11,3.48v8.62h-4.13v-8.19c0-.61-.12-1.09-.37-1.42-.25-.33-.62-.5-1.12-.5-.38,0-.73.1-1.03.3-.31.2-.55.47-.74.81v8.99h-4.13V12.68Z"/>
        <path class="cls-2" d="M24.96,18.01h4.06v2.2c.38-.87.87-1.51,1.46-1.91.59-.4,1.21-.6,1.85-.6.14,0,.28,0,.44.02.15.02.29.04.41.07l-.44,4.29c-.26-.16-.62-.24-1.08-.24-.6,0-1.12.16-1.57.48-.45.32-.78.76-1,1.31v7.46h-4.13v-13.08Z"/>
        <path class="cls-2" d="M45.04,27.23l.39,3.32c-.48.26-1.11.46-1.92.62-.8.15-1.61.23-2.42.23-1.44,0-2.68-.29-3.72-.86-1.04-.57-1.84-1.39-2.4-2.45-.56-1.06-.84-2.32-.84-3.79,0-1.34.25-2.5.74-3.49.49-.98,1.19-1.75,2.09-2.3.9-.55,1.98-.82,3.22-.82,1.68,0,3,.51,3.94,1.53.94,1.02,1.41,2.46,1.41,4.34,0,.24,0,.54-.02.91-.02.36-.03.67-.05.93h-7.07c.35,1.92,1.45,2.88,3.28,2.88.63,0,1.26-.1,1.89-.29s1.13-.44,1.48-.75ZM38.31,23.02h3.63c0-.78-.15-1.37-.45-1.78s-.72-.62-1.25-.62c-1.1,0-1.75.8-1.93,2.4Z"/>
        <path class="cls-2" d="M58.29,28.81c0,.37.02.78.07,1.22.05.44.1.8.16,1.05h-3.88c-.08-.18-.14-.42-.18-.73-.05-.31-.08-.61-.11-.92-.34.66-.81,1.15-1.41,1.48-.6.32-1.3.48-2.08.48-1.1,0-2-.35-2.69-1.05-.69-.7-1.03-1.64-1.03-2.82,0-1.31.53-2.37,1.6-3.18s2.61-1.33,4.63-1.54l.8-.07c-.11-1.28-.9-1.91-2.36-1.91-.57,0-1.16.11-1.79.31-.63.21-1.22.54-1.77.99l-.23-3.34c.63-.34,1.34-.61,2.12-.8.79-.19,1.58-.29,2.38-.29,1.88,0,3.32.47,4.31,1.42.99.94,1.48,2.31,1.48,4.11v5.59ZM51.19,27.09c0,.44.12.78.36,1.04.24.26.55.39.93.39.32,0,.64-.09.94-.28.31-.19.55-.45.74-.79v-2.42l-.18.02c-1,.11-1.71.34-2.14.69s-.64.79-.64,1.34Z"/>
        <path class="cls-2" d="M61.73,21.11h-2.07v-3.1h2.07v-2.3l4.13-1.94v4.24h2.92v3.1h-2.92v5.11c0,.65.11,1.12.33,1.43.22.31.58.46,1.07.46.64,0,1.23-.21,1.75-.63l-.23,3.37c-.37.19-.78.33-1.24.42-.46.09-.91.13-1.35.13-1.52,0-2.64-.38-3.36-1.14-.73-.76-1.09-1.9-1.09-3.42v-5.74Z"/>
        <path class="cls-1" d="M70.69,27.23c.54.42,1.11.74,1.73.96.62.22,1.24.33,1.85.33s1.09-.11,1.42-.31c.34-.21.51-.49.51-.85,0-.27-.15-.5-.45-.69-.3-.19-.89-.43-1.78-.74-1.3-.45-2.22-1-2.74-1.65-.53-.65-.79-1.43-.79-2.35,0-1.34.47-2.38,1.42-3.12.95-.74,2.2-1.11,3.74-1.11.72,0,1.45.09,2.18.27.73.18,1.34.41,1.81.7l-.87,2.88c-.4-.32-.82-.58-1.26-.76-.44-.19-.93-.28-1.45-.28-.49,0-.89.09-1.19.27-.31.18-.46.43-.46.75,0,.26.16.49.49.69.33.2.9.44,1.71.71.93.31,1.66.67,2.17,1.09.51.42.87.88,1.07,1.37.2.49.3,1.01.3,1.56,0,1.41-.5,2.5-1.5,3.28-1,.78-2.35,1.18-4.05,1.18-.78,0-1.55-.09-2.31-.27-.76-.18-1.4-.41-1.92-.7l.37-3.2Z"/>
        <path class="cls-1" d="M89.13,31.26c-.49,1.34-1.04,2.41-1.65,3.2-.61.79-1.31,1.36-2.09,1.69-.78.34-1.67.51-2.66.51-.51,0-.96-.04-1.37-.11-.41-.07-.79-.18-1.16-.33l.32-3.34c.29.16.58.28.86.36s.61.12.98.12c.67,0,1.24-.2,1.7-.59.46-.4.86-1.09,1.19-2.07l.07-.17c-1.59-4.13-3.12-8.31-4.59-12.52h4.25c.4,1.32.8,2.66,1.19,4.01s.81,2.68,1.24,4.01c.43-1.34.83-2.68,1.22-4.02.38-1.34.77-2.67,1.17-4h4.13c-1.5,4.31-3.1,8.73-4.8,13.25Z"/>
        <path class="cls-1" d="M94.92,27.23c.54.42,1.11.74,1.73.96.62.22,1.24.33,1.85.33s1.09-.11,1.42-.31c.34-.21.51-.49.51-.85,0-.27-.15-.5-.45-.69-.3-.19-.89-.43-1.78-.74-1.3-.45-2.22-1-2.74-1.65-.53-.65-.79-1.43-.79-2.35,0-1.34.47-2.38,1.42-3.12s2.2-1.11,3.74-1.11c.72,0,1.45.09,2.18.27.73.18,1.34.41,1.81.7l-.87,2.88c-.4-.32-.82-.58-1.26-.76-.44-.19-.93-.28-1.45-.28-.49,0-.89.09-1.19.27-.31.18-.46.43-.46.75,0,.26.16.49.49.69.33.2.9.44,1.71.71.93.31,1.66.67,2.17,1.09.51.42.87.88,1.07,1.37.2.49.3,1.01.3,1.56,0,1.41-.5,2.5-1.5,3.28-1,.78-2.35,1.18-4.05,1.18-.78,0-1.55-.09-2.31-.27-.76-.18-1.4-.41-1.92-.7l.37-3.2Z"/>
      </g>
    </g>
  </g>
</svg>