<?xml version="1.0" encoding="UTF-8"?>
<svg id="Layer_2" data-name="Layer 2" xmlns="http://www.w3.org/2000/svg" viewBox="0 0 66.12 74.08">
  <defs>
    <style>
      .cls-1 {
        fill: #f9c90c;
      }

      .cls-2 {
        fill: #0c2549;
      }
    </style>
  </defs>
  <g id="Layer_1-2" data-name="Layer 1">
    <g>
      <path class="cls-2" d="M25.48,74.08C11.43,74.08,0,62.65,0,48.6s11.43-25.48,25.48-25.48c10.05,0,19.19,5.93,23.28,15.12,1.03,2.31-.01,5.02-2.32,6.05-2.31,1.04-5.02-.01-6.05-2.32-2.62-5.88-8.47-9.68-14.91-9.68-9,0-16.32,7.32-16.32,16.32s7.32,16.32,16.32,16.32c6.44,0,12.29-3.8,14.91-9.68,1.03-2.31,3.74-3.35,6.05-2.32s3.35,3.74,2.32,6.05c-4.09,9.18-13.23,15.12-23.28,15.12Z"/>
      <g>
        <path class="cls-2" d="M4.59,53.1c-.17,0-.34,0-.51-.03-2.51-.28-4.32-2.92-4.05-5.43L4.47,7.62c.28-2.51,2.52-4.33,5.06-4.05,2.51.28,4.32,2.54,4.05,5.06l-4.44,40.02c-.26,2.34-2.24,4.45-4.55,4.45Z"/>
        <path class="cls-2" d="M17.99,33.23c-1.28,0-2.55-.15-3.45-1.19-1.67-1.9-1.47-5.17.43-6.84L38.14,4.96c1.9-1.66,4.8-1.47,6.46.43,1.67,1.9,1.47,4.8-.43,6.46l-23.16,20.25c-.87.76-1.94,1.13-3.01,1.13Z"/>
        <path class="cls-2" d="M9.02,39.92c-.77,0-1.56.18-2.28-.23-2.19-1.26-2.95-4.44-1.69-6.63L22.73,2.3c1.26-2.2,4.05-2.94,6.25-1.69,2.19,1.26,2.95,4.06,1.69,6.25l-17.68,30.76c-.85,1.47-2.39,2.3-3.98,2.3Z"/>
      </g>
      <path class="cls-1" d="M25.36,44.74c2.13,0,3.86,1.73,3.86,3.86s-1.73,3.86-3.86,3.86-3.86-1.73-3.86-3.86,1.73-3.86,3.86-3.86M25.36,38.2c-5.75,0-10.4,4.66-10.4,10.4s4.66,10.4,10.4,10.4,10.4-4.66,10.4-10.4-4.66-10.4-10.4-10.4h0Z"/>
      <path class="cls-1" d="M64.15,50.57h-28.65c-1.08,0-1.96-.88-1.96-1.96s.88-1.96,1.96-1.96h28.65c1.08,0,1.96.88,1.96,1.96s-.88,1.96-1.96,1.96Z"/>
      <g>
        <path class="cls-1" d="M55.57,56.44c-.72,0-1.31-.59-1.31-1.31v-6.3c0-.72.59-1.31,1.31-1.31s1.31.59,1.31,1.31v6.3c0,.72-.59,1.31-1.31,1.31Z"/>
        <path class="cls-1" d="M60.95,56.44c-.72,0-1.31-.59-1.31-1.31v-6.3c0-.72.59-1.31,1.31-1.31s1.31.59,1.31,1.31v6.3c0,.72-.59,1.31-1.31,1.31Z"/>
      </g>
    </g>
  </g>
</svg>