<?xml version="1.0" encoding="UTF-8"?>
<svg xmlns="http://www.w3.org/2000/svg" xmlns:xlink="http://www.w3.org/1999/xlink" viewBox="0 0 439.13 243.68">
  <defs>
    <style>
      .cls-1 {
        fill: #1d3f70;
      }

      .cls-2 {
        fill: #feb601;
      }

      .cls-3 {
        opacity: .29;
      }

      .cls-3, .cls-4 {
        fill: #31155b;
      }

      .cls-5 {
        fill: #ffbf9d;
      }

      .cls-6 {
        fill: #f8fdff;
      }

      .cls-7 {
        fill: #ff9a6c;
      }

      .cls-8 {
        fill: #263238;
      }

      .cls-9 {
        fill: #3b245b;
        mix-blend-mode: multiply;
        opacity: .19;
      }

      .cls-10 {
        fill: #ffe7aa;
      }

      .cls-11 {
        fill: #fff;
      }

      .cls-12 {
        fill: none;
      }

      .cls-13 {
        fill: #f2f2f7;
      }

      .cls-14 {
        fill: #4d58aa;
      }

      .cls-15 {
        isolation: isolate;
      }

      .cls-16 {
        fill: #789dd0;
      }

      .cls-17 {
        opacity: .3;
      }

      .cls-18 {
        fill: #4f69b2;
      }

      .cls-19 {
        fill: #455a64;
      }

      .cls-20 {
        fill: #f9c90c;
      }

      .cls-21 {
        fill: #f5f5f5;
      }

      .cls-22 {
        fill: #4aede8;
      }

      .cls-23 {
        fill: #0c2549;
      }

      .cls-24 {
        clip-path: url(#clippath);
      }
    </style>
    <clipPath id="clippath">
      <polyline class="cls-12" points="274.14 58.83 439.13 58.83 439.13 243.68 274.14 243.68"/>
    </clipPath>
  </defs>
  <g class="cls-15">
    <g id="Layer_2" data-name="Layer 2">
      <g id="Layer_1-2" data-name="Layer 1">
        <g class="cls-24">
          <g id="freepik--character-1--inject-83">
            <polygon class="cls-21" points="289.4 171.74 286.11 169.9 281.77 180.83 285.28 182.86 289.4 171.74"/>
            <path class="cls-5" d="M347.12,101.26c.39-8.78,7.92-15.81,17.32-16.17h.93c10.11.16,15.61,8.27,15.16,17.71l-1.28,38.01-15.98,5.73-6.18-5.31c0-2.66,0-8.19-.06-8.19s-9.75-1.03-10.27-10.08c-.25-4.46.02-13.52.36-21.7Z"/>
            <path class="cls-7" d="M357.03,132.96c4.48-.18,8.81-1.56,12.47-3.97,0,0-2.73,6.93-12.44,6.49l-.03-2.51Z"/>
            <path class="cls-8" d="M350.46,109.08c.02.7.64,1.26,1.39,1.25.72.03,1.33-.49,1.37-1.16,0-.02,0-.04,0-.06-.02-.7-.63-1.26-1.38-1.25-.73-.03-1.35.5-1.37,1.19,0,.01,0,.02,0,.03Z"/>
            <path class="cls-8" d="M349.35,105.19c.18.16,1.2-.61,2.69-.66s2.63.6,2.76.42-.11-.38-.6-.68c-.66-.39-1.44-.59-2.22-.55-.78.03-1.52.29-2.13.74-.45.34-.59.66-.5.73Z"/>
            <path class="cls-8" d="M363.41,109.08c.02.7.64,1.26,1.39,1.25.73.03,1.35-.5,1.37-1.19,0-.01,0-.02,0-.03-.03-.7-.64-1.25-1.39-1.25-.73-.03-1.35.5-1.37,1.19,0,.01,0,.02,0,.03Z"/>
            <path class="cls-8" d="M363.97,104.95c.18.16,1.19-.61,2.68-.66s2.63.61,2.77.43-.11-.38-.6-.68c-.66-.39-1.44-.59-2.23-.55-.77.03-1.52.29-2.13.73-.44.35-.58.66-.49.74Z"/>
            <path class="cls-8" d="M359.1,115.85c-.79-.2-1.61-.31-2.44-.32-.39,0-.74-.07-.82-.32-.04-.36.03-.73.21-1.06.32-.88.66-1.79,1.01-2.75,1.39-3.92,2.38-7.13,2.21-7.18s-1.43,3.08-2.82,7c-.33.97-.66,1.88-.96,2.77-.23.44-.28.93-.14,1.4.13.25.36.43.65.5.21.04.43.06.65.06.82.06,1.64.03,2.45-.09Z"/>
            <path class="cls-8" d="M363.29,100.61c.22.35,1.65-.08,3.4-.18s3.24.09,3.4-.28c.07-.18-.24-.49-.88-.75-1.69-.64-3.6-.51-5.18.35-.59.35-.84.7-.74.86Z"/>
            <path class="cls-8" d="M349.11,101.1c.32.3,1.52-.05,2.98-.11,1.46-.06,2.7.15,2.97-.19.12-.16-.08-.48-.63-.76-1.54-.7-3.35-.61-4.79.24-.51.38-.67.66-.53.82Z"/>
            <path class="cls-5" d="M380.02,109.47c.17-.07,6.58-2.1,6.64,4.1.06,6.19-6.61,4.98-6.63,4.8s-.02-8.9-.02-8.9Z"/>
            <path class="cls-7" d="M382,116.01s.11.07.31.16c.28.11.6.11.88,0,.87-.52,1.37-1.44,1.3-2.41.01-.53-.1-1.06-.33-1.54-.13-.39-.46-.69-.88-.82-.27-.06-.55.07-.67.3-.09.18,0,.3-.08.31s-.14-.11-.1-.36c.04-.16.13-.29.26-.39.18-.13.41-.19.63-.16.56.1,1.02.46,1.22.96.29.53.43,1.12.42,1.72,0,1.25-.7,2.46-1.66,2.69-.36.1-.75.04-1.06-.16-.18-.16-.24-.29-.24-.3Z"/>
            <path class="cls-8" d="M363.78,116.71c-.23,0-.24,1.41-1.55,2.46-1.31,1.05-2.93.82-2.94,1.04s.36.28,1.04.29c.9,0,1.77-.28,2.45-.82.67-.5,1.1-1.23,1.2-2.02.06-.62-.11-.96-.21-.95Z"/>
            <path class="cls-8" d="M333.73,93.11c.12-.35.38-.65.73-.82.77-.34,1.62-.48,2.47-.41,2.11-.06,4.19-.57,6.06-1.49-.66-.29-1.27-.68-1.8-1.15-1.17-.98-1.65-2.48-1.24-3.9.05-.27.24-.49.51-.6.43-.13.81.26,1.12.57.79.98,2.09,1.48,3.39,1.3.88-.06,1.74-.31,2.51-.73.03-.03.06-.06.09-.09l1-.97h0c2.47-2.34,4.6-3.96,6.8-4.82,3.22-1.25,8.63-1.8,12.02-1.01s6.45,3.28,6.96,6.55c1.88-1.52,4.72-1.54,7.01-.7h.06c2.58.82,4.07,3.35,4.85,5.79,0,.13.08.27.12.4.88,1.29,2.09,2.36,3.51,3.12.25.13.53.29.57.57-.03.27-.19.51-.44.64-.62.41-1.32.69-2.07.82.24.57.54,1.12.88,1.64.29.46.64,1.01.39,1.48-.21.37-.64.58-1.09.52-.43-.08-.84-.25-1.2-.49l.88,1.92c-.93.15-1.89.1-2.8-.15-.52,2.29-.88,6.55-1.49,8.1-1.75.05-2.19-.12-3.08.16-1.15.37-.68,2.27-2.18,1.74-.76-.27-1.97-2.95-2.23-3.68-1.75-4.81-2.38-9.92-1.84-14.97-1.08-1.04-2.37-1.87-3.79-2.46l.11.1c-2.73-.82-5.8-1.69-8.36-.48-1.99.95-3.14,2.9-4.61,4.46-2.51,2.88-6.22,4.62-10.19,4.78-.35,2.74-.4,7.22-.52,9.77l-2.4-5.09h0c-.19-.3-.35-.61-.51-.9l-.05-.09h0c-.23-.49-.49-.97-.78-1.44h0c-.8.51-1.89.32-2.44-.43-.36-.49-.41-1.13-.11-1.67.22-.31.5-.59.81-.82-.67.63-1.65.88-2.57.66-.91-.26-1.52-1.06-1.49-1.95.06-.6.46-1.12,1.05-1.37-1.21.11-2.43-.13-3.51-.67-.67-.36-1.36-.95-1.13-1.76Z"/>
            <path class="cls-19" d="M371.3,86.63c.35.25.68.52.98.82.78.86,1.3,1.89,1.52,3,.18.76.27,1.53.28,2.3,0,.82-.05,1.74-.11,2.68-.07.99-.07,1.98,0,2.97.04.53.11,1.05.24,1.57.09.55.33,1.07.7,1.52.35.36.87.51,1.38.42.47-.09.9-.33,1.23-.66.5-.69.81-1.49.88-2.32h-.21c.3.68.71,1.32,1.21,1.88.48.53,1.16.87,1.9.94.34.03.69-.03,1-.17.28-.15.51-.37.67-.63.15-.25.22-.53.2-.82-.02-.26-.13-.51-.32-.7l-.1.09c.58.61,1.3,1.11,2.1,1.44.27.11.5.18.65.23.07.02.15.04.23.05l-.22-.09c-.14-.05-.36-.13-.63-.25-.77-.35-1.47-.85-2.03-1.46l-.1.08c.34.39.37.93.08,1.35-.14.24-.35.43-.6.56-.27.12-.58.17-.88.15-.68-.08-1.31-.4-1.75-.89-.48-.56-.87-1.18-1.16-1.85l-.15-.29-.06.31c-.08.8-.38,1.57-.88,2.22-.29.3-.67.51-1.1.59-.43.09-.88-.05-1.17-.35-.34-.41-.57-.9-.65-1.42-.12-.5-.2-1.02-.24-1.53-.07-.98-.07-1.97,0-2.96.05-.94.11-1.84.08-2.69-.02-.79-.12-1.57-.31-2.33-.24-1.11-.79-2.14-1.59-2.99-.31-.31-.67-.57-1.07-.76Z"/>
            <path class="cls-19" d="M341.36,95.74l.08.06.25.16c.13.09.27.17.41.25.19.1.39.2.6.28,1.31.54,2.74.77,4.16.66,2.12-.15,4.15-.87,5.84-2.08,2.04-1.49,3.73-3.36,4.97-5.48.69-1.11,1.26-2.24,1.88-3.28.57-1.02,1.29-1.96,2.14-2.79.76-.76,1.72-1.32,2.78-1.64.48-.13.97-.19,1.47-.17.46.02.92.1,1.36.23.76.24,1.45.61,2.04,1.11.44.38.82.83,1.1,1.32.24.43.41.89.52,1.36v-.1c0-.1,0-.16-.04-.28-.08-.35-.21-.7-.39-1.02-.28-.51-.66-.97-1.1-1.36-.6-.52-1.3-.91-2.08-1.15-.45-.14-.93-.22-1.4-.25-.52-.02-1.04.04-1.53.17-1.09.31-2.08.88-2.87,1.64-.87.84-1.6,1.79-2.18,2.83-.63,1.05-1.19,2.18-1.88,3.28-1.23,2.1-2.9,3.95-4.9,5.44-1.65,1.19-3.64,1.92-5.72,2.09-1.4.12-2.82-.08-4.12-.58-.47-.21-.93-.44-1.37-.69Z"/>
            <path class="cls-19" d="M340.43,91.79s.11.09.35.22c.33.19.68.35,1.03.48.53.2,1.08.36,1.64.48.69.13,1.39.21,2.09.24.7,0,1.41-.05,2.1-.16.56-.1,1.12-.24,1.66-.43.36-.12.71-.27,1.05-.43.13-.05.26-.13.37-.21,0,0-.55.23-1.47.51-.54.16-1.09.28-1.65.37-.68.1-1.37.15-2.06.14-.69-.02-1.38-.09-2.05-.22-.55-.11-1.09-.25-1.62-.43-.9-.32-1.43-.6-1.45-.57Z"/>
            <path class="cls-8" d="M331.71,230.25c-1.75,7.28-2.34,14.76-1.75,22.2.39,4.72,17.42,135.23,17.42,135.23h22.99l-6.46-122.66,1.88.38s12.56,52.33,13.59,60.79c.88,7.61,12.18,67.46,12.18,67.46l21.7-.22-8.07-77.24-7.82-70.2-2.94-20.48-62.72,4.75Z"/>
            <path class="cls-20" d="M289.37,169.9l22.34,10.33,12.64-30.77c2.34-5.35,7.34-9.27,13.37-10.5.76-.15,1.54-.24,2.31-.29l-9.04,49.15c-1.77,4.02-4.13,7.79-7.01,11.21-1.88,2.12-5.63,4.35-13.93,1.92l-26.69-16.7,6.01-14.35Z"/>
            <path class="cls-21" d="M380.38,132.69l-11.06,8.59-5.64,4.1-2.86-.38-1.58-4.03-2.13-7.86-2.98,3.68-8.06,16-9.05,77.38s15.77,4.33,23.96,4.84,21.2-1.56,21.2-1.56v-40.72l4.64-40.33-5.6-15.45-.83-4.27Z"/>
            <path class="cls-8" d="M357.01,234.49c.01-.07.01-.14,0-.21v-.64c0-.58.05-1.4.1-2.46.08-2.15.18-5.23.32-9.01.28-7.62.73-18.14,1.37-29.74s1.37-22.12,1.93-29.72l.67-9.01c.08-1.05.14-1.87.18-2.46v-.86c0,.07,0,.15,0,.22,0,.16,0,.37-.08.63-.05.58-.13,1.4-.24,2.46-.2,2.12-.47,5.19-.78,9.01-.62,7.59-1.38,18.09-2.02,29.71-.64,11.62-1.05,22.12-1.27,29.75-.11,3.81-.19,6.89-.22,9.01v3.1c.04.15.04.22.04.22Z"/>
            <path class="cls-20" d="M385.86,140.63l-.79-.39,15.77,7.72-5.96,38.14-3.31,19.66,12.34,46.62s-9.27,5.66-13.92,4.55c-2.48-.6-4.6-5.26-6.24-8.93-3.28-7.32-5.41-15.05-6.32-22.94-.88-7.94-1.75-18.02-1.15-24.92,1.16-12.84,2.97-34.01,3.14-39.58.17-5.57,1.57-26.09,1.57-26.09l4.86,6.15Z"/>
            <path class="cls-20" d="M356.75,132.74l-9.17,4.64-8.04,1.29-10.85,22.2,2.07,40.14-10.83,49.55s7.94,2.63,11.09,1.55c3.15-1.08,7.44-7.73,7.61-11.75.17-4.02,6.28-42.98,6.28-42.98l5.21-45.8c.49-4.37,1.8-8.62,3.86-12.57l2.79-6.27Z"/>
            <path class="cls-2" d="M347.58,138.67c-.1.1-.2.2-.29.31l-.82.93-3.03,3.56-.06.07.08.06,2.58,1.83v-.2l-3.02.89h-.09v.1c.05,5.02.12,11.35.2,18.22.13,8.38.25,15.96.34,21.48.05,2.73.11,4.91.14,6.5,0,.75,0,1.34.05,1.77v.61-8.9c-.06-5.51-.14-13.11-.24-21.48-.11-6.86-.2-13.19-.27-18.22l-.1.12,3.01-.92.23-.07-.19-.13-2.63-1.8v.14l2.96-3.6.78-.97c.13-.1.26-.2.38-.32Z"/>
            <path class="cls-2" d="M377,192.16s.05-.1.06-.15l.16-.45.6-1.74c.53-1.5,1.31-3.67,2.32-6.34l1.67-4.36c.66-1.66,1.22-3.36,1.69-5.08,1.02-3.94,1.81-7.94,2.37-11.96.82-5.57,1.35-10.83,1.67-15.34v-.07l-.05-.05-2.63-2.34v.2l2.47-1.75.09-.07-.07-.09-4.45-5.64-1.22-1.52-.33-.38s-.07-.09-.11-.13c0,0,0,.06.09.15l.3.41,1.17,1.56,4.38,5.73v-.16l-2.48,1.74-.13.09.11.1,2.63,2.37-.04-.11c-.35,4.51-.88,9.76-1.75,15.33-.56,4.02-1.34,8.01-2.33,11.95-.5,1.81-1.05,3.49-1.66,5.06l-1.63,4.37c-.98,2.68-1.75,4.86-2.22,6.37-.25.76-.43,1.35-.54,1.75-.05.19-.1.34-.12.46s0,.11,0,.11Z"/>
            <polygon class="cls-8" points="336.44 220.12 334.47 225.84 323.31 224.89 326.79 219.41 336.44 220.12"/>
            <path class="cls-19" d="M336.43,220.12s-.22,0-.67-.08l-1.95-.18c-1.69-.15-4.13-.36-7.01-.59h-.09l-.05.08-3.51,5.46-.13.21h.26l.58.05,10.59.91h.11v-.09c.6-1.79,1.07-3.28,1.38-4.24.14-.47.26-.82.36-1.14.04-.13.08-.25.11-.38-.07.14-.13.27-.18.42l-.43,1.15c-.38,1.02-.88,2.46-1.5,4.1l.14-.09-10.59-.95-.57-.05.13.24,3.46-5.48-.14.07c2.82.2,5.26.34,6.92.43l2,.11c.5.04.77.05.77.04Z"/>
            <g class="cls-17">
              <path d="M343.09,146.24l-1.84,2.38s.52,35.99,2.47,44.93l-.63-47.3Z"/>
            </g>
            <path class="cls-10" d="M380.38,140.23c-.19.28-.43.54-.69.76-.47.47-1.17,1.13-2.03,1.95-1.75,1.64-4.15,3.84-6.84,6.27l-1.75,1.64-.3.27-.14-.36c-.88-2.28-1.75-4.34-2.38-6.05l.32.07-2.28,1.92c-.26.25-.56.47-.88.65.21-.3.46-.58.74-.82.5-.48,1.24-1.18,2.16-2.03l.21-.2.11.26c.7,1.7,1.56,3.74,2.51,6l-.44-.09,1.75-1.64c2.7-2.46,5.16-4.6,6.97-6.16.88-.82,1.63-1.41,2.15-1.83.24-.24.52-.44.82-.61Z"/>
            <path class="cls-10" d="M359.71,146.58c-.64-1.05-1.19-2.14-1.63-3.28l.36.06c-1.31,1.59-2.39,3.34-3.21,5.2-.15.32-.27.64-.39.94l-.3.75-.23-.77c-.58-2.01-.9-4.07-.96-6.15-.07-.84,0-1.69.18-2.52.11.83.18,1.67.19,2.51.16,2.04.54,4.06,1.12,6.03h-.53c.12-.31.25-.64.4-.97.84-1.9,1.98-3.68,3.38-5.26l.24-.26.13.31c.51,1.1.92,2.24,1.24,3.41Z"/>
            <polygon class="cls-23" points="357.72 148.66 359.9 151.66 363.18 151.66 364.93 148.66 363.26 145.36 360.4 144.98 357.72 148.66"/>
            <polygon class="cls-23" points="359.78 150.13 349.9 219.9 358.34 230.6 366.8 219.25 363.06 150.13 359.78 150.13"/>
            <path class="cls-19" d="M340.54,225.98c.01.52-.02,1.03-.11,1.54-.13,1.08-.3,2.46-.5,4.17-.2,1.71-.51,3.88-.81,6.18-.39,2.53-1.05,5.02-1.99,7.43-1.03,2.51-2.36,4.99-4.63,6.3-1.07.55-2.28.84-3.51.82-1.05,0-2.09-.07-3.12-.25-1.49-.23-2.95-.57-4.38-1.01-.53-.14-1.05-.32-1.54-.57.54.1,1.08.22,1.6.38,1.44.35,2.91.63,4.38.82,1.01.14,2.03.2,3.05.18,1.15.01,2.28-.25,3.29-.77,2.06-1.2,3.38-3.6,4.38-6.08,2.04-5.04,2.31-9.99,2.94-13.47.27-1.69.5-3.08.67-4.15.05-.51.14-1.02.27-1.52Z"/>
            <path class="cls-19" d="M376.85,228.03c0,.16.03.31.08.46l.34,1.31c.3,1.13.77,2.76,1.38,4.77,1.56,5.24,3.46,10.38,5.67,15.41.65,1.44,1.4,2.83,2.23,4.18.4.65.87,1.26,1.39,1.83l.41.39c.16.12.32.23.48.34.17.11.36.19.55.26.18.06.38.07.56.11,1.42.2,2.86.1,4.23-.27,1.2-.29,2.37-.67,3.51-1.14,1.62-.66,3.18-1.42,4.69-2.29.53-.3.95-.56,1.21-.73.15-.08.28-.18.4-.29-.16.05-.31.12-.45.21l-1.25.66c-1.53.8-3.11,1.52-4.72,2.16-1.12.43-2.26.79-3.44,1.06-1.32.34-2.7.42-4.05.23-.7-.11-1.33-.47-1.75-1.01-.5-.55-.95-1.14-1.34-1.77-.82-1.32-1.55-2.69-2.19-4.1-2.21-5.01-4.14-10.13-5.78-15.33-.63-1.95-1.15-3.55-1.52-4.73-.17-.51-.31-.94-.42-1.28-.06-.17-.13-.33-.23-.48Z"/>
            <path class="cls-20" d="M394.19,144.89h0s13.56,2.84,15.28,13.74c1.99,12.54,3.73,41.24,3.73,41.24l-23.24-29.09"/>
            <path class="cls-2" d="M398.51,147.39s-.6.5-1.49,1.36c-2.34,2.25-3.96,5.07-4.68,8.13-.27,1.17-.33,1.92-.39,1.92-.03-.18-.03-.36,0-.53.03-.48.09-.95.18-1.43.62-3.14,2.27-6.02,4.73-8.23.37-.34.76-.65,1.17-.93.14-.11.3-.21.46-.29Z"/>
            <path class="cls-2" d="M329.13,153.76c.15,0,.62,10.13,1.04,22.64.42,12.51.65,22.65.49,22.65s-.61-10.12-1.04-22.63c-.43-12.51-.64-22.65-.49-22.66Z"/>
            <path class="cls-20" d="M400.82,147.96s6.31,3.98,7.01,7.2c.6,2.6,5.58,41.78,6.22,46.64.64,4.87,3.12,15.01-3.24,19.04-4.28,2.71-17.79,5.43-17.79,5.43,1.33-5.82-1.39-10.08-8.04-13.31l9.04-7.97-4.05-34.21,10.86-22.82Z"/>
            <path class="cls-2" d="M391.55,205.74c.16,0,2.37-10.65,4.93-23.83,2.57-13.18,4.53-23.92,4.38-23.92s-2.37,10.65-4.94,23.83c-2.58,13.18-4.52,23.89-4.37,23.92Z"/>
            <path class="cls-2" d="M393.29,197.9c-.04.68-.02,1.36.06,2.03.09,1.27.25,3.05.44,5.09l.06-.17-1.75,1.52c-2.01,1.78-3.8,3.41-5.09,4.6-.73.61-1.4,1.28-2.02,1.99.79-.54,1.54-1.13,2.23-1.78,1.35-1.13,3.18-2.73,5.19-4.51l1.75-1.53.08-.07v-.1c-.22-2.04-.42-3.82-.59-5.08-.06-.68-.18-1.35-.37-2.01Z"/>
            <path class="cls-2" d="M403.04,210.05c-.93-1.44-2.27-2.6-3.87-3.36-1.53-.88-3.3-1.33-5.09-1.3,1.68.38,3.32.93,4.87,1.64,1.48.87,2.85,1.88,4.09,3.02Z"/>
            <path class="cls-5" d="M383.63,215.8s-2.73-1.98-4.77-2.06-4.68.66-5.21.42-1.75-1.34-2.56-.43c-.81.91-1.75,4.22,2.47,5.13h2.91c-.15,1.31-.51,2.58-1.06,3.79-.7,1.07-10.59,12.7-10.59,12.7,0,0-1.24,1.15-.62,2.31.61,1.15,3.27.49,3.27.49,1.08.89,2.58,1.2,3.97.82,1.05-.33,2.06-.77,3-1.32,1.41,1.01,3.36,1.01,4.77,0,2.47-1.73,12.33-13.11,12.33-13.11l-4.56-9.1-3.36.35Z"/>
            <path class="cls-21" d="M386.39,213.7l-2.8,2.09c4.16,2.83,6.33,6.31,6.3,10.48l3.58-2.32s.65-8.55-7.08-10.25Z"/>
            <path class="cls-7" d="M375.11,230.6c-.11-.08-1.59,1.77-3.71,3.79-2.11,2.02-4.09,3.42-4,3.54.5-.21.96-.49,1.37-.82,1.05-.73,2.03-1.54,2.95-2.41.91-.88,1.76-1.81,2.52-2.8.36-.39.65-.83.86-1.3Z"/>
            <path class="cls-7" d="M380.01,232.91c-.11-.09-1.21,1.15-2.83,2.37-1.07.67-2.01,1.5-2.79,2.46,1.08-.64,2.1-1.35,3.07-2.14,1.05-.71,1.92-1.63,2.55-2.69Z"/>
            <path class="cls-5" d="M275.25,170.67c-.56.96-.42,2.14.36,2.96,1.35,1.27,4.74-.42,4.74-.42,0,0,4.79-.07,5.07-1.26.17-.74-.22-1.5-.96-1.83-1.1-.19-2.22-.32-3.34-.38,0,0,4.19-.04,4.57-.82"/>
            <path class="cls-7" d="M275.17,170.86c.05.11,1.48-.47,3.35-.75,1.87-.28,3.41-.17,3.43-.3-1.14-.32-2.35-.37-3.51-.12-1.18.11-2.31.52-3.27,1.17Z"/>
          </g>
        </g>
        <g>
          <g id="_7" data-name="7">
            <path class="cls-18" d="M117.33,182.51v46.63c0,1.58-.31,3.09-.86,4.44h-41.84c-.56-1.35-.86-2.86-.86-4.44v-46.63c0-5.91,4.31-10.71,9.62-10.71h24.33c5.31,0,9.62,4.8,9.62,10.71Z"/>
            <path class="cls-23" d="M157.76,228.21c-2.23,0-4.39-1.15-5.59-3.22l-32.24-55.68c-1.78-3.08-.73-7.03,2.35-8.81,3.08-1.78,7.03-.73,8.81,2.35l32.24,55.68c1.78,3.08.73,7.03-2.35,8.81-1.02.59-2.13.87-3.22.87Z"/>
            <path class="cls-20" d="M135.46,166.08c-.06,13.01-19.83,13-19.89,0,.06-13,19.83-13,19.89,0Z"/>
            <rect class="cls-6" x="94.36" y="85.98" width="2.37" height="14.4"/>
            <path class="cls-18" d="M89.41,101.77c.08-1.41-.56-4.52,1.71-4.48,0,0,8.84,0,8.84,0,.94,0,1.71.77,1.71,1.71-.08,1.41.56,4.52-1.71,4.48,0,0-8.84,0-8.84,0-.94,0-1.71-.77-1.71-1.71Z"/>
            <path class="cls-18" d="M65.64,137.24c-1.86-.07-5.73.64-5.68-2.3,0,0,0-12.48,0-12.48-.05-2.92,3.82-2.24,5.68-2.29,1.26,0,2.29,1.03,2.29,2.29v12.48c0,1.26-1.03,2.29-2.3,2.29Z"/>
            <path class="cls-18" d="M128.84,137.24c-1.86-.07-5.73.64-5.68-2.3,0,0,0-12.48,0-12.48-.05-2.92,3.82-2.24,5.68-2.29,1.26,0,2.29,1.03,2.29,2.29v12.48c0,1.26-1.03,2.29-2.29,2.29Z"/>
            <path class="cls-23" d="M86.19,107.21c.13-2.15-.85-6.89,2.61-6.83,0,0,13.48,0,13.48,0,3.45-.07,2.51,4.68,2.61,6.83,0,1.44-1.18,2.61-2.61,2.61h-13.48c-1.44,0-2.61-1.18-2.61-2.61Z"/>
            <path class="cls-18" d="M93.44,142.96c2.15.13,6.89-.85,6.83,2.61,0,0,0,13.48,0,13.48.07,3.45-4.68,2.51-6.83,2.61-1.44,0-2.61-1.18-2.61-2.61v-13.48c0-1.44,1.18-2.61,2.61-2.61Z"/>
            <path class="cls-23" d="M113.66,152.31h-36.23c-7.42,0-13.48-6.07-13.48-13.48.59-11.51-4.29-33.35,13.48-33.72,0,0,36.23,0,36.23,0,7.42,0,13.48,6.07,13.48,13.48-.59,11.51,4.29,33.35-13.48,33.72Z"/>
            <path class="cls-1" d="M110.18,144.45h-29.27c-4.94,0-8.99-4.05-8.99-8.99.39-7.67-2.86-22.23,8.99-22.48,0,0,29.27,0,29.27,0,4.94,0,8.99,4.05,8.99,8.99-.4,7.67,2.86,22.23-8.99,22.48Z"/>
            <path class="cls-18" d="M100.03,85.98c-.03,5.86-8.93,5.86-8.96,0,.03-5.86,8.93-5.86,8.96,0Z"/>
            <path class="cls-20" d="M89.54,128.71c-.02,4.79-7.3,4.79-7.32,0,.02-4.79,7.3-4.79,7.32,0Z"/>
            <path class="cls-20" d="M108.88,128.71c-.02,4.79-7.3,4.79-7.32,0,.02-4.79,7.3-4.79,7.32,0Z"/>
            <path class="cls-1" d="M117.33,180.72v28.39h-43.57v-28.39c0-4.92,4.31-8.92,9.62-8.92h24.33c5.31,0,9.62,3.99,9.62,8.92Z"/>
            <path class="cls-23" d="M131.13,169.17v22.81c0,5.73-4.65,10.38-10.38,10.38h-50.41c-5.73,0-10.38-4.65-10.38-10.38v-22.81c0-5.73,4.65-10.38,10.38-10.38h50.41c5.73,0,10.38,4.65,10.38,10.38Z"/>
            <path class="cls-20" d="M71.8,163.18c-.06,13.01-19.83,13-19.89,0,.06-13,19.83-13,19.89,0Z"/>
            <path class="cls-23" d="M29.61,225.31c-4.8.11-8.13-5.54-5.57-9.68,0,0,32.24-55.68,32.24-55.68,4.35-7.25,15.29-.96,11.16,6.46,0,0-32.24,55.68-32.24,55.68-1.2,2.06-3.36,3.22-5.59,3.22Z"/>
            <path class="cls-20" d="M39.56,218.86c-.06,13.01-19.83,13-19.89,0,.06-13,19.83-13,19.89,0Z"/>
            <path class="cls-23" d="M88.52,212.32l-9.98.02,2.09-2.3c2.86-3.05-1.99-7.48-4.76-4.35,0,0-6.07,6.66-6.07,6.66l-39.93.07c-3.56,0-6.45,2.89-6.45,6.45s2.89,6.45,6.45,6.45h58.67c8.53-.17,8.51-12.86-.02-12.99Z"/>
            <polygon class="cls-16" points="205.3 221.68 132.8 221.68 147.23 168.53 219.3 168.53 205.3 221.68"/>
            <rect class="cls-16" x="132.8" y="221.41" width="72.51" height="3.61"/>
            <polygon class="cls-16" points="148.32 168.53 145.73 168.53 131.59 221.41 97.18 221.41 97.18 225.02 134 225.02 134 221.79 148.32 168.53"/>
          </g>
          <g id="_6" data-name="6">
            <polygon class="cls-16" points="267.48 221.56 340.29 221.56 325.8 168.18 253.42 168.18 267.48 221.56"/>
            <rect class="cls-16" x="267.48" y="221.29" width="72.82" height="3.62"/>
            <polygon class="cls-16" points="324.7 168.18 327.31 168.18 341.51 221.29 376.06 221.29 376.06 224.92 339.08 224.92 339.08 221.68 324.7 168.18"/>
          </g>
          <path id="_5" data-name="5" class="cls-14" d="M412.97,229.62c0,2.62-1.49,4.74-3.33,4.74H3.33c-.92,0-1.75-.53-2.36-1.39-.6-.86-.98-2.04-.98-3.35,0-2.62,1.49-4.74,3.33-4.74h406.31c.92,0,1.75.53,2.36,1.39.6.86.98,2.04.98,3.35Z"/>
          <g id="_2" data-name="2">
            <path class="cls-16" d="M147.9,86.71v9.05c0,1.5-1.22,2.72-2.72,2.72h-21.71c-1.5,0-2.72-1.22-2.72-2.72v-9.05c0-1.5,1.22-2.72,2.72-2.72h21.71c1.5,0,2.72,1.22,2.72,2.72Z"/>
            <path class="cls-16" d="M120.74,95.77c0,1.5,1.22,2.72,2.72,2.72h1.11v3.89l5.25-3.89h15.36c1.5,0,2.72-1.22,2.72-2.72v-9.05c-10.25,10.25-27.16,9.05-27.16,9.05Z"/>
            <path class="cls-11" d="M137.95,88.42h-14.46c-.42,0-.75-.34-.75-.75s.34-.75.75-.75h14.46c.98,0,.99,1.5,0,1.51Z"/>
            <path class="cls-11" d="M129.32,91.99h-5.83c-.98,0-.99-1.5,0-1.51,0,0,5.83,0,5.83,0,.98,0,.99,1.5,0,1.51Z"/>
            <path class="cls-11" d="M145.15,91.99h-12.32c-.42,0-.75-.34-.75-.75s.34-.75.75-.75h12.32c.98,0,.99,1.5,0,1.51Z"/>
            <path class="cls-11" d="M135.42,95.57h-11.93c-.98,0-.99-1.5,0-1.51,0,0,11.93,0,11.93,0,.98,0,.99,1.5,0,1.51Z"/>
            <path class="cls-16" d="M143.9,83.99c-18.31,0-22.56,3.05-23.17,3.59-.23-1.81.75-3.58,2.72-3.59h20.44Z"/>
          </g>
          <g id="_1" data-name="1">
            <path class="cls-16" d="M309.74,95.09v7.41c0,1.23,1,2.23,2.23,2.23h17.77c1.23,0,2.23-1,2.23-2.23v-7.41c0-1.23-1-2.23-2.23-2.23h-17.77c-1.23,0-2.23,1-2.23,2.23Z"/>
            <path class="cls-16" d="M331.97,102.5c0,1.23-1,2.23-2.23,2.23h-.91v3.18l-4.29-3.18h-12.57c-1.23,0-2.23-1-2.23-2.23v-7.41"/>
            <path class="cls-11" d="M317.88,96.48h11.84c.34,0,.62-.28.62-.62s-.28-.62-.62-.62h-11.84c-.8,0-.81,1.23,0,1.23Z"/>
            <path class="cls-11" d="M324.95,99.41h4.78c.81,0,.81-1.23,0-1.23h-4.78c-.81,0-.81,1.23,0,1.23Z"/>
            <path class="cls-11" d="M312,99.41h10.08c.34,0,.62-.28.62-.62s-.28-.62-.62-.62h-10.08c-.8,0-.81,1.23,0,1.23Z"/>
            <path class="cls-11" d="M319.96,102.34h9.76c.8,0,.81-1.23,0-1.23h-9.76c-.8,0-.81,1.23,0,1.23Z"/>
            <path class="cls-16" d="M313.01,92.86c14.98,0,18.46,2.5,18.96,2.94.18-1.48-.61-2.93-2.23-2.94,0,0-16.73,0-16.73,0Z"/>
          </g>
        </g>
        <g>
          <g>
            <g>
              <rect class="cls-14" x="159.81" y="27.78" width="140.63" height="92.07" rx="12" ry="12"/>
              <rect class="cls-16" x="164.46" y="31.18" width="132.08" height="78.62" rx="12" ry="12"/>
              <path class="cls-14" d="M159.81,103.86v9.45c0,3.6,2.94,6.54,6.54,6.54h127.55c3.6,0,6.54-2.94,6.54-6.54v-9.45h-140.63Z"/>
            </g>
            <path class="cls-11" d="M241.92,72.47h-23.43c-1.8,0-3.27-1.47-3.27-3.27h0c0-1.8,1.47-3.27,3.27-3.27h23.43c1.8,0,3.27,1.47,3.27,3.27h0c0,1.8-1.47,3.27-3.27,3.27Z"/>
            <g>
              <circle class="cls-9" cx="230.21" cy="52.31" r="10.9"/>
              <path class="cls-11" d="M230.21,61.85c-5.26,0-9.54-4.28-9.54-9.54s4.28-9.54,9.54-9.54,9.54,4.28,9.54,9.54-4.28,9.54-9.54,9.54ZM230.21,43.32c-4.96,0-8.99,4.03-8.99,8.99s4.03,8.99,8.99,8.99,8.99-4.03,8.99-8.99-4.03-8.99-8.99-8.99Z"/>
              <circle class="cls-11" cx="225.85" cy="50.68" r="1.09"/>
              <circle class="cls-11" cx="234.29" cy="50.95" r="1.09"/>
              <path class="cls-11" d="M230.18,56.51c-1.87,0-3.4-1.25-3.42-1.27-.12-.1-.13-.27-.03-.38.1-.12.27-.13.38-.04.13.1,3.11,2.53,5.63.02.11-.11.28-.11.39,0s.11.28,0,.39c-.96.96-2,1.29-2.94,1.29Z"/>
            </g>
            <g>
              <path class="cls-4" d="M220.75,68.4l-.62.82h0s.99-.12.99-.12v.44l-.99-.12h0s.63.8.63.8l-.41.24-.39-.92h-.01l-.42.92-.37-.24.62-.8h0s-.97.11-.97.11v-.44l.96.12h0s-.61-.81-.61-.81l.4-.23.41.91h.01l.4-.92.39.22Z"/>
              <path class="cls-4" d="M224.85,68.4l-.62.82h0s.99-.12.99-.12v.44l-.99-.12h0s.63.8.63.8l-.41.24-.39-.92h-.01l-.42.92-.37-.24.62-.8h0s-.97.11-.97.11v-.44l.96.12h0s-.61-.81-.61-.81l.4-.23.41.91h.01l.4-.92.39.22Z"/>
              <path class="cls-4" d="M228.95,68.4l-.62.82h0s.99-.12.99-.12v.44l-.99-.12h0s.63.8.63.8l-.41.24-.39-.92h-.01l-.42.92-.37-.24.62-.8h0s-.97.11-.97.11v-.44l.96.12h0s-.61-.81-.61-.81l.4-.23.41.91h.01l.4-.92.39.22Z"/>
              <path class="cls-4" d="M233.05,68.4l-.62.82h0s.99-.12.99-.12v.44l-.99-.12h0s.63.8.63.8l-.41.24-.39-.92h-.01l-.43.92-.37-.24.62-.8h0s-.97.11-.97.11v-.44l.96.12h0s-.61-.81-.61-.81l.4-.23.41.91h.01l.4-.92.39.22Z"/>
              <path class="cls-4" d="M237.15,68.4l-.62.82h0s.99-.12.99-.12v.44l-.99-.12h0s.63.8.63.8l-.41.24-.39-.92h-.01l-.43.92-.37-.24.62-.8h0s-.97.11-.97.11v-.44l.96.12h0s-.61-.81-.61-.81l.4-.23.41.91h.01l.4-.92.39.22Z"/>
              <path class="cls-4" d="M241.25,68.4l-.62.82h0s.99-.12.99-.12v.44l-.99-.12h0s.63.8.63.8l-.41.24-.39-.92h-.01l-.43.92-.37-.24.62-.8h0s-.97.11-.97.11v-.44l.96.12h0s-.61-.81-.61-.81l.4-.23.4.91h.01l.4-.92.39.22Z"/>
            </g>
            <g>
              <rect class="cls-13" x="168.09" y="36.24" width="2.72" height="2.72"/>
              <rect class="cls-13" x="168.63" y="42.78" width="2.72" height="2.72"/>
              <rect class="cls-13" x="173.54" y="44.96" width="2.72" height="2.72"/>
              <rect class="cls-3" x="171.9" y="39.51" width="2.72" height="2.72"/>
              <rect class="cls-3" x="165.37" y="47.14" width="2.72" height="2.72"/>
              <rect class="cls-3" x="165.37" y="51.5" width="2.72" height="2.72"/>
            </g>
            <g>
              <rect class="cls-13" x="289.6" y="83.64" width="2.72" height="2.72" transform="translate(581.92 170.01) rotate(180)"/>
              <rect class="cls-13" x="289.05" y="90.18" width="2.72" height="2.72" transform="translate(580.83 183.09) rotate(180)"/>
              <rect class="cls-13" x="284.15" y="92.36" width="2.72" height="2.72" transform="translate(571.02 187.45) rotate(180)"/>
              <rect class="cls-3" x="285.78" y="86.91" width="2.72" height="2.72" transform="translate(574.29 176.55) rotate(180)"/>
              <rect class="cls-3" x="292.32" y="94.54" width="2.72" height="2.72" transform="translate(587.37 191.81) rotate(180)"/>
              <rect class="cls-3" x="292.32" y="98.9" width="2.72" height="2.72" transform="translate(587.37 200.52) rotate(180)"/>
            </g>
          </g>
          <g>
            <path class="cls-22" d="M310.3,96.28h-4.64c-.12,0-.21-.1-.21-.21s.1-.21.21-.21h4.64c.12,0,.21.1.21.21s-.1.21-.21.21Z"/>
            <path class="cls-22" d="M305.45,98.27c-.12,0-.21-.09-.21-.21,0-.12.09-.22.21-.22l8.29-.08h0c.12,0,.21.09.21.21,0,.12-.09.22-.21.22l-8.29.08h0Z"/>
            <path class="cls-22" d="M305.45,100.44h-4.17c-.12,0-.21-.1-.21-.21s.1-.21.21-.21h4.17c.12,0,.21.1.21.21s-.1.21-.21.21Z"/>
            <path class="cls-22" d="M310.73,102.47h-6.86c-.12,0-.21-.1-.21-.21s.1-.21.21-.21h6.86c.12,0,.21.1.21.21s-.1.21-.21.21Z"/>
          </g>
        </g>
        <g>
          <path class="cls-20" d="M201.29,7.1c-1.82.68-2.99,2.25-2.99,3.99v38.46c0,7.87,3.74,15.24,10,19.72l22.59,14.48c1.5.96,3.54.96,5.05,0l22.59-14.48c6.26-4.49,10-11.85,10-19.72V11.19c0-1.78-1.25-3.39-3.14-4.04-27.44-9.4-38.45-9.65-64.1-.05h0Z"/>
          <g>
            <g>
              <rect class="cls-10" x="207.86" y="21.4" width="51.1" height="32.8"/>
              <rect class="cls-10" x="207.86" y="14.08" width="18.8" height="40.12"/>
            </g>
            <rect class="cls-10" x="207.86" y="59.6" width="51.1" height="10.79"/>
          </g>
          <g>
            <g>
              <rect class="cls-23" x="239.75" y="26.48" width="3.38" height="5.97"/>
              <path class="cls-23" d="M243.13,23.84c0-5.38-4.38-9.76-9.76-9.76s-9.76,4.38-9.76,9.76v2.64h3.38v-2.64c0-3.52,2.86-6.38,6.38-6.38s6.38,2.86,6.38,6.38v2.64h3.38v-2.64Z"/>
            </g>
            <path class="cls-23" d="M220.23,32.45v17.83h26.75v-17.83h-26.75ZM235.91,46.03h-4.62l1.06-5.09c-.63-.41-1.06-1.13-1.06-1.94,0-1.28,1.03-2.31,2.31-2.31s2.31,1.03,2.31,2.31c0,.81-.42,1.53-1.06,1.94l1.06,5.09Z"/>
          </g>
        </g>
      </g>
    </g>
  </g>
</svg>